<mxfile host="app.diagrams.net" modified="2022-05-01T09:06:04.634Z" agent="5.0 (Windows NT 10.0; Win64; x64) AppleWebKit/537.36 (KHTML, like Gecko) Chrome/100.0.4896.127 Safari/537.36" etag="J8r_c_GVbpgsydKyXHdV" version="17.5.0" type="github">
  <diagram id="YfgWilQCI4OXS4J1aCSx" name="第 1 页">
    <mxGraphModel dx="1043" dy="581" grid="1" gridSize="10" guides="1" tooltips="1" connect="1" arrows="1" fold="1" page="1" pageScale="1" pageWidth="827" pageHeight="1169" math="0" shadow="0">
      <root>
        <mxCell id="0" />
        <mxCell id="1" parent="0" />
        <mxCell id="psAbm342U6_RFJnEFFYR-3" value="" style="group" vertex="1" connectable="0" parent="1">
          <mxGeometry x="138.5" y="140" width="670" height="76" as="geometry" />
        </mxCell>
        <mxCell id="psAbm342U6_RFJnEFFYR-1" value="" style="shape=image;imageAspect=0;aspect=fixed;verticalLabelPosition=bottom;verticalAlign=top;image=data:image/jpeg,/9j/4AAQSkZJRgABAQEAkACQAAD/2wBDAAMCAgMCAgMDAwMEAwMEBQgFBQQEBQoHBwYIDAoMDAsKCwsNDhIQDQ4RDgsLEBYQERMUFRUVDA8XGBYUGBIUFRT/2wBDAQMEBAUEBQkFBQkUDQsNFBQUFBQUFBQUFBQUFBQUFBQUFBQUFBQUFBQUFBQUFBQUFBQUFBQUFBQUFBQUFBQUFBT/wAARCABVAkkDASIAAhEBAxEB/8QAHwAAAQUBAQEBAQEAAAAAAAAAAAECAwQFBgcICQoL/8QAtRAAAgEDAwIEAwUFBAQAAAF9AQIDAAQRBRIhMUEGE1FhByJxFDKBkaEII0KxwRVS0fAkM2JyggkKFhcYGRolJicoKSo0NTY3ODk6Q0RFRkdISUpTVFVWV1hZWmNkZWZnaGlqc3R1dnd4eXqDhIWGh4iJipKTlJWWl5iZmqKjpKWmp6ipqrKztLW2t7i5usLDxMXGx8jJytLT1NXW19jZ2uHi4+Tl5ufo6erx8vP09fb3+Pn6/8QAHwEAAwEBAQEBAQEBAQAAAAAAAAECAwQFBgcICQoL/8QAtREAAgECBAQDBAcFBAQAAQJ3AAECAxEEBSExBhJBUQdhcRMiMoEIFEKRobHBCSMzUvAVYnLRChYkNOEl8RcYGRomJygpKjU2Nzg5OkNERUZHSElKU1RVVldYWVpjZGVmZ2hpanN0dXZ3eHl6goOEhYaHiImKkpOUlZaXmJmaoqOkpaanqKmqsrO0tba3uLm6wsPExcbHyMnK0tPU1dbX2Nna4uPk5ebn6Onq8vP09fb3+Pn6/9oADAMBAAIRAxEAPwD478Xf63S/+vCL/wBmrArf8Xf63S/+vCL/ANmrIsLG41S+gs7WJp7mdxHHGvVmJwBSbUVdgrvRFeirWqaXdaLqE9jewtb3cDbJImxlT+FVaIyUkmndMqUXFuMlZoKKKKZIUUUUAFFFFABRRRQAUUUUAFFFFABRRRQAUUUUAFFFFABRRRQAUUUUAFFFFABRRRQAUUVPY2M+pXkNrbRtNcTOEjjXqzHoKA21ZBRVi/sbjS7ya0uomhuIWKSRt1UjtVeknfVAFFFFMAooooAKKKKACiiigAooooAKKKKACiiigAooooAKKKKACiiigAooooAKKKKACiiigAooooAKKKKACiiigAooooAKKKKACiiigAooooA3/F3+t0v/AK8Iv/ZqTwfJo8WpBtW/tNX3J9nk0uZI3R89SWU+2MUvi7/W6X/14Rf+zUeFNN0m9naXU9dj0byXRkWS2lm83kk42A4xgdfWufEW9m+a/wArt/hqa0ebnXLa/na346Fnx9o0WkfEDU9Oa9uJYY7kI15eMZZMEAl2IHzHk9BXpOmrp/hH4f2EmkeNYdMFzey+ZqUenSkz4VQExsLAL78c1xfxUk0DWtc1HXNK8QR38l3OGFmLSaNlXbgncygdv1rN1LXLK4+G+i6VHNuv7e9nmlh2MNqsF2nOMHOD0NeLKlPFYehGV1tzLl/uvdSj3+R73tIYXFV5R5X8Ti+bz0s4y6r5nP6tMbjVr2U3X24yTOxutpXzssTvweRnrg+tVKKnsbGfU763s7WMzXNxIsUUa9WdjgAfUkV9DGNkoo+elLmbkyCivSv+Gb/iX/0KN9+af/FVk6B8GvGvihr8aV4eur02Fw1pc+WV/dSr95Dk9RV8strGfMt7nIWsYmuoY2yFdwpx15Ne933wX+Hq/E68+H9vq/iBNedtlpdyLC1rHIYg6pJgBmz3YbQM4xxmvMvEXwr8WfD2Oz1DxFolxpVm9wsazTbSC3LY4J7A/lXeTfEfw6/7UyeLxqOfDovkm+2eRJ9wQhSdm3f146VrFRvGMurd/LYzm5Wco9tDg/AXhnQdT1DUo/EVxqm60XEWm6Lama6un3YIViCiBepLevANdP4r+Eel6fceCr/Tm1i20bxDe/YpLTV4livLZlkRW5A2kEPkHHbkVd+G3xA0jTfD/i3Rz4muvBeo6lfJdW+vWdvJIzxKWzCxj/eKDndke+a0PF/xK0LUNJ+Htp/wleoeJbvRdZe4vtQ1KKbzDEXjYON247cKwC5LYXkDOKdPlag5f3fxav8Adf8AC4VOZSly+f5O34/mW2+C/wAPV1dLU6l4kCL4ik8NSDEBJuCf3cgOOEAyG4yTyAvSuS8H/CGyvLjxhdazLqd1pfhy6Fk1vokAe6u5WkZF2BshVAQsSQa6Gb4l+G216S4GpZhPxBXXA3kS/wDHnk/vcbf/AB373tUHhP4o6Za6h8QtL/4STUPC8Gvaj9tsdf09Jd0e2V2CuqESbXV+3I7ikuWyfW36Q/zl+XQcrq/a/wCsv+B8jlvih8NrHwtomh+INH/tSLStUaWH7HrcIju7eWMjIbaAGUhgQQBXnNelfEbVI/E02haNpnjDxB481AyFXuNSlkFuZHYKiwRykup7FmPPHAo/4Zv+Jf8A0KN9+af/ABVZ8rbbitC1JJJN6nmtFdpoHwa8a+KGvxpXh66vTYXDWlz5ZX91Kv3kOT1FQeLvhP4t8BWEV74g0O40u1lk8lJZiuGfBOOCewP5VNmldrQd1exyVdR4O8OeH9djum1vxdB4ZeMqIkmsZ7nzgc5IMSnGOOvrXL11Hg7xvF4Rjukk8M6D4g88qQ2sW8kpixnhNsi4BzznPQVUbdRSv0H+LPDPhzRVszo/jG38RGVyswi0+4t/IXj5j5ijd34HPFb/APwr3wF/0VWx/wDBJff/ABFYHizx5D4oWzEfhbw/of2dy5Ok20kfndPlfdI2Rx2x1Nb/APwue1/6Jx4I/wDACf8A+P01y6/8El30POZ0SOaRI5BLGrELIAQGGeDg9M1HUk8nnTSSBFiDsW2RjCrk9B7VHWS21NXudIdatj8O10rzP9NGpm58vaf9X5W3OcY69s5rm6K2dE8H6z4jt5JtN0+W7ijbYzJjAbGccn3qfdhdsjSKMait3UvA+vaOLc3umzW4uJRDFux8znovWrv/AAq3xV/0Bbj81/xpe0hvzIOaPcm8K+GNJ1LRkvtTlvEL6jHYKtqU/jQkE7h2P6du9M8T+FdP0vRReWNxcyyQX0mn3IuAoDSKudyY6L9cmpdJ1S20bQ0029kMF7b65DcSwlGJVEUqxyBjg9utP1bxJps2kXESuLl21+S+EJRgHgK4ByRjnpjr7VhefPdbX/y/4Jl7yl/Xn/wC3pPgjQ9amgsLWbV5bqZPk1H7MFtN+3OMEbtueM5rnPDI0y31TZqf9oJMsirDJp0qIyPuwSSwPtjFehW/jnTV8WQ6s/i7UDpzS7v7LEMqpEpGNrAHaVH+yDnH41wOiWulXupTXN9rMemLHOHjV7eSTzBuJ42g4/H1pU5Sd+e9vn/l+RK5uVp+X6jPGWmLpvjDUbITzXCx3BXzrh90jdOWOOTzXVXHgXw0viyfw3Fe6kuosdsMzhDCrbNwVuAT9Rjr+NZXj19G1DXLrWNP1uO9a4uQ/wBlFtKjIvruZQD0/WrknijTG+Ly62Ln/iWfaFfz/Lb7ojAztxu6+1Jc8oR3Wj+/T/glScrXXb8TgpIzFIyMMMpIP4U2t7T/AAnq/iiS6utKsJbyBZmUumAAeuOT6EUmpeB9e0cW5vdNmtxcSiGLdj5nPRetdKqR2b1NnKN7XMKtPwzfRab4j0u7nbZBBdRSSNgnChgScD2rX/4Vb4q/6Atx+a/41zVzbyWdxLBMhjmico6HqGBwR+dNSjLRO5Ok00mXPEV5HqHiDU7qFt0M9zJIjYIypYkHn2rcXTvB3/Ct2vDq1+PGn2vYNO8n/R/I/vbtvX/gXtt71yVdaum+D/8AhW7Xp1e+/wCE0+17Bpvk/wCj+R/e37ev/Avbb3q4x5YNLpb81/Xpcp7r+un9fM5KiiigYUUUUAFFFFABRRRQAUUUUAFFFFABRRRQAUUUUAFFFFABRRRQAUUUUAFFFFABRRRQAUUUUAFFFFABRRRQAUUUUAb/AIu/1ul/9eEX/s1afh/X/C1no1vpep6NLdrdMz3+oRhRdQEHEYtiTjaF5YNjeXI42q1Zni7/AFul/wDXhF/7NWBUyipKzA9Ij8e+EDPJfy+DIPti/wCixWaN/orWpOC7jr9oCAqHHBLbyAy/NF/wlngiON7RfDM01pYt51hNI6rcXcnRlu2B/wBWflO1Pu7NoPzs1eeUVn7KPn97Hc9Cm8ceFNwlTwnC8uoAf2ojEIkPGCLID/VZPz5OcH5MbQdz/wDhNPBsMmYfC+/+zFxpbzBT9rOMZvlzh/mJk+X/AHDlcEedUUeyj5/eFz0P/hLPBEkaWjeGZobS+bzr+aN1a4tJOiraMT/qx8x2v97ftJ+RWpzePfCu6a/XwdarqSf6Nb2jc2TW5ON8i53GYINu8dS2/hlyfOqKPZR8/vC56KvirwIrQ2J8MXT6VB/pKXDSqL2SfO4xSOOGhPEfADALvGCWUrD408G3SySXvhbyrrUv3Oo/YwoitUHIls0J+SQttJU/LhCoIDkL5zRR7KPd/eFz0P8A4TjwpHGlxF4RhW/09vL0+GQh7eaM/wAd2OssinJ4wG34OFQKXN4q8CM01iPDF0mlT/6S9wsqm9jnzuEUbnhYRzHyCxDbzkhVHnVFHso+f3hc9FXx74V3Q37eDrVtSf8A0a4tF4sltwcb41zuExQ7d56Fd/LNkN/4SzwRHG9ovhmaa0sW86wmkdVuLuToy3bA/wCrPynan3dm0H52avPKKPZR8/vYXPQpvHHhTcJU8JwvLqAH9qIxCJDxgiyA/wBVk/Pk5wfkxtB3P/4TTwbDJmHwvv8A7MXGlvMFP2s4xm+XOH+YmT5f9w5XBHnVFHso+f3hc9D/AOEs8ESRpaN4ZmhtL5vOv5o3Vri0k6KtoxP+rHzHa/3t+0n5FanN498K7pr9fB1qupJ/o1vaNzZNbk43yLncZgg27x1Lb+GXJ86oo9lHz+8Lnoq+KvAitDYnwxdPpUH+kpcNKovZJ87jFI44aE8R8AMAu8YJZS3/AITjwpJG9xL4Rha/1BvL1CGMhLeGMfx2g6xSMcHnIXZgZVyo5Lw54V1jxdfNZ6Np1xqVwqGRkt0LbFHVmPRR7msmj2K8/vYrnov/AAmng2GTMPhff/Zi40t5gp+1nGM3y5w/zEyfL/uHK4Ib/wAJZ4IkjS0bwzNDaXzedfzRurXFpJ0VbRif9WPmO1/vb9pPyK1eeUUeyj3f3jueit498K7pr9fB1qupJ/o1vaNzZNbk43yLncZgg27x1Lb+GXJF8VeBFaGxPhi6fSoP9JS4aVReyT53GKRxw0J4j4AYBd4wSynzqij2UfP72Fz0P/hOPCkkb3EvhGFr/UG8vUIYyEt4Yx/HaDrFIxwechdmBlXKh3/CaeDYZMw+F9/9mLjS3mCn7WcYzfLnD/MTJ8v+4crgjzqij2UfP7wueh/8JZ4IkjS0bwzNDaXzedfzRurXFpJ0VbRif9WPmO1/vb9pPyK1Obx74V3TX6+DrVdST/Rre0bmya3JxvkXO4zBBt3jqW38MuT51RR7KPn94XPRV8VeBFaGxPhi6fSoP9JS4aVReyT53GKRxw0J4j4AYBd4wSylv/CceFJI3uJfCMLX+oN5eoQxkJbwxj+O0HWKRjg85C7MDKuVHnlFHso+f3hc9GXxp4Nt5g0XhbzRpa40tpgp+1nGM3y5w/zEyfL/ALnK4IRvFXgRmmsR4Yuk0qf/AEl7hZVN7HPncIo3PCwjmPkFiG3nJCqPOqKPZR7v7wueir498K7ob9vB1q2pP/o1xaLxZLbg43xrncJih27z0K7+WbIb/wAJZ4Ijje0XwzNNaWLedYTSOq3F3J0Zbtgf9WflO1Pu7NoPzs1eeUUeyj5/ewuei/8ACaeDZpMzeF9n9prjVHhCj7IcYzYrnCfMBJ83+4MLklv/AAnHhSONLiLwjCt/p7eXp8MhD280Z/jux1lkU5PGA2/BwqBT55RR7KPn94XPRW8VeBGaaxHhi6TSp/8ASXuFlU3sc+dwijc8LCOY+QWIbeckKoF8e+Fd0N+3g61bUn/0a4tF4sltwcb41zuExQ7d56Fd/LNkedUUeyj5/ewueh/8JZ4Ijje0XwzNNaWLedYTSOq3F3J0Zbtgf9WflO1Pu7NoPzs1O/4TTwbNJmbwvs/tNcao8IUfZDjGbFc4T5gJPm/3Bhck+dUUeyj3f3hc0NevLK/1aebTrL+z7H5Vhty5dlVVCgsx6scbieBknAA4rPoorVaKwgooopgFFFFABRRRQAUUUUAFFFFABRRRQAUUUUAFFFFABRRRQAUUUUAFFFFABRRRQAUVreIvCuseEbxLXWdOuNOnkQSIs6FQ6Hoynow9xWTR5AFFFFABRRRQAUUUUAb/AIu/1ul/9eEX/s1YFb/i7/W6X/14Rf8As1YFABRRRQAUUUUAFdP4J8KaZ4ka+n1jxJZ+G9Ps0VnkmUzTyljgLFCpDOfXHAHWuYr2X4J6lYWfhPxBHp+p6DonjVp4WtL7xCkflfZgDvWNpFZFfdjORyP00gk27kTbS0OT8a/DWHw3Z6Hqula3Fr2gawzx298tu0DrIjBXR42JKkZHc5rtb39nbSbfxle+EIvHdtL4oXP2SxfTpFSc+XvCvLuKxsR0HzducnFXvjF4oXXPAfge0u/Euk+IdbtdSuftbaUIkRATHtwiKvy9t20BiDjI5rsfEuh6Rof7SWoeNdR8V6NZ6fplytzcWM05W+3rAoEaQ4y+44IIOMH1GK1UY3s9r7+Vov8AC/n8zJyly3W9tvO7X428vkeJeB/hbb+KPDXiPWtT16PQLbQ5oIrjzrZpciRmU42nO4FcBQDknqBzVb4gfDm38J6Vo2taRrcfiLQNWEiwXq27W7rJGQHjeNiSpGR35rufh1aQeLPhP8T4pr+30gXmoWDpcXrFYUYyyModgDtB6Z6AkZ45rG+J02m+Hfhr4S8HW2s2GualZ3F1fXk2lzedbxeYVCIJBwxwpJx0rKStC7Vn7v3u1/1f/Dmqfv2Tutfu1t+NkeUV3Xw6+Gtv440XxJql3rkWh2uhxwTTSTW7SqySOVP3TnIA4AB3HA461TXwXpZ+GreJT4osRqwu/s48P4/0gp/z0+9nHf7uPfPFbfw+1axsvhT8TrS4vLeC7vLewW2gllVZJitzlgik5bA5OOgoikm79F+l0Dd7W6tL8bMreMPhfaaLouja7ofiCPxDoGpXLWYuxatbyQzrglHjYnscg55x9Ksv8HdvxuHw8/tfOboW39pfZvWMPu8vf+GN1cFb6rcwRwQGeVrSKYTi28w+Xv8A723pnHGa+j2uPDUnxpX4q/8ACY6KNAyL82H2j/iY+YIdvk+RjO7d36Y5zVxUW1J7X19NP+D/AMORJySaW9tPX+rHlHg/4U2niPQ/FGr3/iKPRbLQbmGGaSS1aXesjMu4BWzu+XhQDknqBzVL4gfDmDwjpei6zpWtx+IdA1cSC3vUt2t3EkZAdHjYkqRkd+a2vD+vWL/B34kQTXdvBfX99YSwWkkqiWQCVy21ScttBGcDioPE2rWNx8CfBWnxXlvJf2+o37zWqSqZY1YptLLnIBwcE9cVm17r7pR/G1/zuafbt0bf6tfkaXii+m8F/A/wdpmmSNa/8JJ9p1DU5ojte4CSeXFGxH8AAJ29MnNcP4c0+2vtA1trhoofL8gi4kTcYxvOcd8kcYHWu91rSbr4jfBPwpeaJC9/eeF/tFlqVnAC0sUbyeZHNtHJTGQSOhHsa870m4ij8L69E8qLLJ5GxGYBmw5JwO+K5cbzO6j/ADR+66t+H/BO7LnFTvNXXLP7+WX6/pboQaxoaafa2t3a3a31ncFlWQIUYMvVSp6da0R4NhF0mnyarHHqzKCLXymKhiMhS/TOPaq1zdRf8Ifp8IkRpku5GaMMNwGBgkelb0n2G68VR+IP7UtEs9yztEz/AL4EKPl2dScivOnVrRjbmenNrbdp6Lbr5WuexSw+HnK6gnfk0u0kmnzNa30dt27X1OZ0jQv7Qa8a4uBZ29mu6aQoXI5wAFHU5pl/ptlbNbvb6kt1byNtdvLKvHzyShPp71d0O6lk1K9nttTj0yeTLItxjy5AWyVYngfiKn8VSWz2Fnvexl1Te3myaeBsKcY3Y4LZ9K29pU9uot6Pp209Pxv5WOb2NF4WU4pXV9W99elpb26OPncu3mjaEvh3TnOpmNWllAuVsjul5HBG7PH171V8J+AX8YfbGt9e0LTI7dwoOs6jHZtKDnBUOeenPpkUy3t4ta8L2NrHe2ltcWs0pdLqYR5DYIIz16U7wjrPhfRVvI/EXhmbxG7MPJkt9Ua0EYGc9I23Z4546Vtg1bnjOTbTe/r5Lr9xjmLUlTnTgkmlqr9tVq3s/mJ4w8Ay+DYbaSTXNB1cTsVC6PqUd2yYA5YL90c1urPoG6PMen4/4RgqeI/+PvHX/rr/AOPVheMNc8LatDbL4e8LXHh6RGJlebVGvPMGBgAGNduOfXrXL10VIc+l/wCrHj8t7P8Arc3fC+pabpcjy3WnrqV4WVbeOfmBM53M6/xHpgdOuav+OdNtY/iNfWMSR2VoblI8RKFSNSFyQBwOuazfDegtrMzSDUNPshC6k/brpYS3P8OevStz4pafFJ4ivtWt9S069trqYBEtbpZJB8o5KjoOP5Vm2lWWvR/pYj7bSZ0DQ26eOh4VHhazOm+b5HmGFvtJj/57ebnP+16Y4rkLC+0nwzJq4azj1XUI5vJtDdRh7cIGIZyM8kgDHGK3NJ8c6hpHgu5mn1mS6vJv9EsrQzBmgTHzSsM5HHC5rI8AaHpmqXVzdapeWcUVqoaOzurlYPtLnOF3MeFGOcc1jFOKlz7L8SFpFuWxL4ygtbjw9oOrCxg0y/vBKJILZNkbopAWQJ/Dnn61x1dT44t76a7GoX2p6ZfPIfLSLT7pZRCoHChV+6oqgNCtD4VOq/2vbi8E3lf2bj97t/vden4Y9+1b02ow1No6RSH+F9S03S5HlutPXUrwsq28c/MCZzuZ1/iPTA6dc1Y+JFrBY+ONWgtoY7eBJQFiiQKq/KOgHAqp4b0FtZmaQahp9kIXUn7ddLCW5/hz16V0fxDt7eHxhLrsd/p2o2ct0jCG1uklkKgAnco6D5SPxpNpVlr0f6WIvabsTXXgPULPwpBaWumR3WpXCi8upGMZmijx8kaKTu6cttHt2rO8CWtvJY6vNFYQarrcKobWyuV3qy5PmME/jYDHFb7Q6c/joeKx4ksRp3ni72eaftWMZ8ry8Zz/AA+mKyvD+pWuoWfiBLW/g0LV7y4EsM9w/lqYSSWiEg+7yR9cYrBSk4O/W3fTXb+uhF3y29Ct46tYItM0mefT7fSdcl3/AGmztl2AR5GxmTPyE88Vxldp4yuIE8O6XZXOpwazrUMrlrm3k80RwkDbGZP4uckenIrFGhWh8KnVf7XtxeCbyv7Nx+92/wB7r0/DHv2renLljr3NYu0Vc1/Adrby2GrzQ2EGra3EqG1srld6smT5jBM/OwGOKd46tYItM0mefT7fSdcl3/abO2XYBHkbGZM/ITzxR4LuLdtB1Wzg1KDR9ZmdDHdXDmNXhGd0Yk/hJOD74xS+MriBPDul2VzqcGs61DK5a5t5PNEcJA2xmT+LnJHpyKzd/a/P9PyIV+f+uxxdbvhfUtN0uR5brT11K8LKtvHPzAmc7mdf4j0wOnXNMGhWh8KnVf7XtxeCbyv7Nx+92/3uvT8Me/ajw3oLazM0g1DT7IQupP266WEtz/Dnr0rpcotO+xcmnFl34iWdtZePNUt4oltrVJlAjgQKFXaudqjiuj8P6npHiTxKmiWvh6zXQ3VlM8kWLpECkmVpc8HIz6dqzPihp8U3iO91W31PTby3upwEW2ulkcfKOWUdBx1rautAh0rQ/wCytE13QwblB9vvpNRjWSb/AKZqM/Kg/M964rp0YJ72/T9DOTTSM74e2CyaT4mmt7PT764tzbiGTUokaNFLsGYl+FG0fpWT48t9QgksmvbHS7aGRGaCfSYkWKYZGfmTrj9M+9U9D0e31D+0LKTWIdPuVx5XnSbbefBOQX6D1GeDWl4rltdP8L6Nokd7b6hdW8k080lq++JN5GFDd+mTitdql1rf/Ir/AJeP+uhqrPoG6PMen4/4RgqeI/8Aj7x1/wCuv/j1edUVoeH9DufEmtWel2m37TdSCJC5IUE9zgHgdfwrW0aSc5PT/h2a04PSK1b/AOGM+irmsaa2i6rd2DzQ3D20rRNJASUYg4OCQCRn2qnWkZKSUlsy5RcJOMt0a+jaDHqljf3Ut4tpHaeWWLIWBDEjsevHTvSaxoaWFrbXlrdi+s7gsqyBCjBh1Uqa0vDNul14b1+J5ktw32cCST7oO84yew96i1poNO8P2GmpdQ3lwsz3EjW770XIAA3dzxXne1n7dxT62tbpyp727+Z7X1el9UVRxV3Fu99b87SVr22Xb8mSDwbCLpNPk1WOPVmUEWvlMVDEZCl+mce1UNH8PjU01BprlbMWah3LoWH3sHoe345rpJPsN14qj8Qf2paJZ7lnaJn/AHwIUfLs6k5FYumX8L6f4kZ5Eia4jUxozAFj5mcD14rGFatKG7v7vTZt6rb/ADOqph8LGqlyq15W1fvRUbxb16vtZeRX1DQILW0tr23vxd2EsvkvL5RRo26kFSeeOetbV5o2hL4d05zqZjVpZQLlbI7peRwRuzx9e9cd50nk+Vvbyt27Zn5c9M49a6S3t4ta8L2NrHe2ltcWs0pdLqYR5DYIIz16VtWjUioOU3o99NrPfT5djmwtSjUdRQpK7jom3vdXtrfz3v5j/CfgF/GH2xrfXtC0yO3cKDrOox2bSg5wVDnnpz6ZFHi7wDL4NjtJJdc0HVxO5ULo+pR3bJjHLhfug570nhHWfC+ireR+IvDM3iN2YeTJb6o1oIwM56Rtuzxzx0o8X654V1aO1Xw/4XuPDzoxMzy6o155i8YABjXbjn1617C5VZrXY8DXmd1bc9Y8ZaJqtrrmpWui+HPCUlvDGHhtJLS3N5IgQFnVPvHnd27cV5/4D0+3s/Cesa4NIh1vVEuoLGztbqIyxhpNxJ8sfebjAFa/hfSNJ8O+L7PxQ3i6wvNJtv8ASP3kx+3P8hHlmHruzx1xisvwdqdrq3hvXtHGqQaFqU97DqFncXUpij3IWyvmD7hG4EH2r0pazu99dLp9Vt6q9vT0PJinGnyrVLl1s163/C/rqSeLtHt9Y0Hw/qjaVDoWp3F/Lpt7b2sRij3KVw3ln7rDcQRXVfY7H/hO/wDhF/8AhD7H/hGftn9lf2h9mbz/ADNv3vtH9/POPSuU8WatbaLoPh/STqkOualb30uo3lxaymWPcxXC+YfvMdpJNdT9p0//AIT3/hK/+Evsf+Eb+1/2p/Z/2lvP8zb937P/AH88Z9O9XDk9pra11zbdo3+V+bbr8iZ83J12lbfu7fPa1+hy/hHR7bR9B8QaoulQ67qdvfxabZ291EZY9zFst5Y+8x2gAVX8eWFveeE9I1w6TBomqNdT2N5a20RijLR7SG8s/cPJBFT+E9Wtta0HxDpQ1SHQ9Sub6LUbO4upTFHuUtlfMH3WG4EGq/ju+t7HwlpGhf2tBrWppdT315c2spljDSbQF8w/fPBJNcsrfV9eyttvdX87/Ff/AIY6Vze387vvtZ/K23zN3whfTeNPgr4z0fU5Guh4eSDU9LllO5rbMgjljUnojKR8vTIzXkdew+H9Juvh38GPFuo61C9hc+Jkg0/S7ScbZZkWQSSy7TyEAAAPcn6V49XFU+LXeyv66/pY7ofC+13b00/W4UUUVBYUUUUAFFFFAG/4u/1ul/8AXhF/7NWBW/4u/wBbpf8A14Rf+zVgUAFFFFABRRRQAUUUUAPhlMMySKAWRgwz04NbXjjxhe+PvFWoa/qEUEN5esryR2yssYIULwGJPRR1JrCop36C8zoNL8a32k+D9c8OQxW7WOryQSzyOrGVTExZdhDYAJJzkH8K5+iihu+rAKKKKQwooooAKKKKAL+i69qXh29F3pV/caddbSvnWsrRsVPUEg8g+lUKKKACiiigAooooAKKKKACiiigAooooAKKKKACiiigAooooAKKKKACiiigAooooAKKKKACiiigAooooAK1fDPiS68J6smpWSRNdRo6RtMpIQspXcMEcgE4rKoqJwjUi4SV0y4SlTkpxdmtRWYsxJOSeSTSUUVZBdtdUltdOvbJFQxXezezA7htORjmqVFFSoqLbXUuU5SSTe2i+9v82woooqiAooooAKKKKACiiigAooooAKKKKAL+s69qXiK8F1ql/cahcBQgluZWkYKOigk8AelUKKKACiiigAooooAKKKKAN/xd/rdL/wCvCL/2asCiigAooooAKKKKACiiigAooooAKKKKACiiigAooooAKKKKACiiigAooooAKKKKACiiigAooooAKKKKACiiigAooooAKKKKACiiigAooooAKKKKACiiigAooooAKKKKACiiigAooooAKKKKACiiigAooooAKKKKACiiigAooooAKKKKACiiigAooooAKKKKACiiigD/2Q==;base64,/9j/4AAQSkZJRgABAQEAkACQAAD/2wBDAAMCAgMCAgMDAwMEAwMEBQgFBQQEBQoHBwYIDAoMDAsKCwsNDhIQDQ4RDgsLEBYQERMUFRUVDA8XGBYUGBIUFRT/2wBDAQMEBAUEBQkFBQkUDQsNFBQUFBQUFBQUFBQUFBQUFBQUFBQUFBQUFBQUFBQUFBQUFBQUFBQUFBQUFBQUFBQUFBT/wAARCADuAnADASIAAhEBAxEB/8QAHwAAAQUBAQEBAQEAAAAAAAAAAAECAwQFBgcICQoL/8QAtRAAAgEDAwIEAwUFBAQAAAF9AQIDAAQRBRIhMUEGE1FhByJxFDKBkaEII0KxwRVS0fAkM2JyggkKFhcYGRolJicoKSo0NTY3ODk6Q0RFRkdISUpTVFVWV1hZWmNkZWZnaGlqc3R1dnd4eXqDhIWGh4iJipKTlJWWl5iZmqKjpKWmp6ipqrKztLW2t7i5usLDxMXGx8jJytLT1NXW19jZ2uHi4+Tl5ufo6erx8vP09fb3+Pn6/8QAHwEAAwEBAQEBAQEBAQAAAAAAAAECAwQFBgcICQoL/8QAtREAAgECBAQDBAcFBAQAAQJ3AAECAxEEBSExBhJBUQdhcRMiMoEIFEKRobHBCSMzUvAVYnLRChYkNOEl8RcYGRomJygpKjU2Nzg5OkNERUZHSElKU1RVVldYWVpjZGVmZ2hpanN0dXZ3eHl6goOEhYaHiImKkpOUlZaXmJmaoqOkpaanqKmqsrO0tba3uLm6wsPExcbHyMnK0tPU1dbX2Nna4uPk5ebn6Onq8vP09fb3+Pn6/9oADAMBAAIRAxEAPwD4copevA5Ne0Xnhfw14R1seFU8Eaj441q1gjk1K6trqZGjdlDMsUcQI2ruA3NnJrgxWMjhWouLk3d2Vtla7vJpdV16lRjzHi1Fei+IPhHcf8LGuvD+hyh7P7MmoJc6hIsSwWzRrJumY8DaGwT6jpWT4q+Gd/4X0eHV01DS9b0mSb7Mb3Sbnzo45cbtj5AKkjnpipp5hhqnIlPWaTS9dvR+RTpyV9DkKK9Lt/gLrEzaWs2t6BZS6paxXVlDd3pjefzBlUVSmd3Qf3cnAJ5rD8N/C3W/E2ua3pEQt7PUNHglnuoryTywPLYKyhsEZyepIGATmlHMcJJSkqitHf77fnoLklo7b/rschRXYeKvhjqHhfQrfWl1DS9a0qab7M13pNz5yRS43eW+VBBI59PeuPrro16eIjz0pXQnFx3Ciui8D+BdR+IOqXOn6W1utzBaSXZFw5QMqAZUHB+Y5GM4HqRWl4l+Feo+HfDw1yLUtJ1zTFmFvPPpF154t5CMhZOBjPYjI9+RWUsZh4VVQlNKWmnrt9/TuNRlJXSOLor0PR/glrGrafptxNquiaTcaoglsLDUb3yri5UnClV2kAMem4jNYWl/D7VtSuvEdswis7nQbWW6vIbliGAjYKyrgHLZPfA96iOPwsua1Re7v99vz09Q5JaO25zNFbtt4PvLrwbe+JUlgFjaXcdm8bM3ml3UsCBjGMA9/wAK9PtfgnpEnwvnvm8UeGf7U/tSONdU+3zeQkRiJMB+TG8nDfd6Dr2rLEZlh8Lbne8uXRXs9N/vQ4wlJ6ef4X/yPE6K6jS/h7f694qutD0y7sL82ytLNqMU+LRIlALSmRgMIM9SKm8WfDW/8LaTDqqahpmt6TJN9nN9pFz50ccuM+W+QCpxzyOa6PrmH9pGlzrmey9dvv6IXJLXTY5SON5pFjjRpJGO1VUZJJ6ACiaGS3meKVGiljYq6OCGUg4II7GvWvBd43w2+EN34y09EXxJqepnSbK8ZQzWUSxh5Hjz0dshc9QOlcR4ItYPEvji1j1jfex3TyvOZJG3SNsZtxYHOd3Oc12VLU736K7+6/5GPN7rl0/yOZpVUswAGSeABXRa1ptla+D/AA7eQRbLy6e5E8m5jvCuAvBOBgHtU/w5sYpdeOo3S5stKia+l99n3V+pbFZ+0XK5dr/gDlaN1/WtjmJYnhkaORGjdTgqwwR+FMrf03RtQ8dapqdxHJCLhUe8mMz7QRuGcHGB97vgY70mt+D7rRdNh1AXVnqFlJJ5RnsZvMVHxna3AwcUc6VlJ6j5le1zBorrbf4cXs0NhLJqOmWgvoVmtxcXBQybv4QNvXp7cjmsyz8I6lea5caV5SQXNtuNw0zhY4VX7zM3QD396PaQ112FzxavcxaK3Nb8I3Oi2Ud6Lqz1Gxd/K+02MvmIr4ztbIBBxz0rT0n4fXM39lz3dxYxLeMkiWMtxsuJYi3VVx3Gcc5Paj2kbXuDnFK5yFFdRqnh+3Xxxqmn291Z6Xb208nltfSN5YCtwucMSfr6UvxIW/HiZ31E2LXEsMcgbTwwiKlflIyAelKNRS5bddR83vWOWorqbH4eX95a2ksl7p9jLeKHtrW7uNksyn7pAx37ZIzUfhnwn/aHiH7DqF1aWDW9wkU1veSMjS/NhkTaDk8Y6jqOaftI667Cc42bOaorrPG3hG20HUNRe11PTZIY7l0jsYZneeNdxwCCvYcHk/jWx4Z8M6Nff8IX9ptfM+3teC7/AHjjzNmdnQ8Y46Y96j20eRT/AK2uKU1FXPO6KVsbjjpmkrc1CiitHSdFl1dblo5YYUt1V5GnYqACcZziolKMFzSehdOnKrLkgrszqK29S8J3mmWtxPJLbyC3ZVkSKTcyhvutjHQ9qLTwnc3VvBK9zZ2rXA3Qw3E215B0BAx37ZxWP1ily83NodP1LEc/s3B33/G356epiUVsaRoJutWNrdz29m0MqpJHcuVLfNgquAef8as+KPDsGl3l48F7ZmJJSqWscrNKoz0II7fWj6xT9oqfVjWDrOi61tE7efXp8jnqK62+8IJcDSzaTWtobizifbcTEGWQ5ztBz7egrDtNBvLzVJLBYwk8W7zfMYBYwv3ix9BShiaU4uSew6mBr0pKLje+1ut9TOorV1Lw7Pptot0s9teWpfyzNayb1VsZweARVmy8JzyRWc801rELgho7aWXbLIueoHv255qniKSjzc2hCwddz5OXXf5GDRW/qPh83Hiq906wRYo43YjzHIVEAySSewqpqXh+TT7UXK3dpew7tjNay7tpxwCCAaI4inLlV9Xr9454OtBz926i2m/Tcy6fDDJcTJFFG0ssjBURASzE8AADqa9Asf2fPiJqVlb3lr4VvJra4jWWKRSmGVhkEfN3Bqj4F0e98P8Axi8OabqNu1rfWutWsU0L4yjCZcg4rtjTbqRhLS7POlNKDktbHMaloWpaL5f9oaddWHmZ2faYGj3YxnG4DOMj86o133xv8S6vrfxI8R2uo6re39tZapdx2sN1cPIkC+aRtRWJCjCgYHoPSpvDPhnRr7/hC/tNr5n29rwXf7xx5mzOzoeMcdMe9csqijFT7/5X/Qqb9nv/AFY87orq/AunadeSa3PqFkL+KysJLlIWleMFlZccqQehNWbjT9H8QeEdU1Wx0ttGuNOkiBVZ3limV2xj5+Qw69aTqKLtbt+Iub3rfI4uivQW0zw7oM+iaZe6TLqFxfwQzTXn2pozH5vQIo4OPfrVTR/BtoPGWt6dciW9h0uOeVLeJtslzsICpkDjOecelL20dfn+BPtFa/8AWpxNFdFrVx4fv9K82ysZNH1OOXabUSvLHJHjlstyrA9s10GkTeGtQ8Oa1qL+FYVk05YcIL6fEm99pz83GKbqWV3F/wBfMpytbQ89orrPCVrpXiTx5aQy6ctvpk2/NmszkDETEfMTu+8M9ara1ptla+D/AA7eQRbLy6e5E8m5jvCuAvBOBgHtT9olJRa1f/B/yHza8v8AXX/IzYfDmrXGnm/i0u9lsQrMblLdzFgZydwGMDBz9KqW9rPd+Z5EMk3loZH8tS21R1Y46DnrXsHwH8S6vcaT440aXVb2TR4fCuoSRae9w5t42+U7ljztB+ZuQO59a8w8K+LdX8E6zFqui3slhexjAkjPDKeqsDwynuDwa6XFKSV9Gr/i1+gk2032f+T/AFMiivSvjfpFhHqWgeItNtI9PtvEmlx6lJZwjEcM5LLKqDsu5cge9ea1m002n00+4tO6TXUKKKKACiiigAooooAKKKKACiiigAooooAKKKKACiiigB8ZCyITwMivo7xhYSeINe+Leh2FzbQazdXOnzxRXFylv50KLlwGcgcZU4z6V83V32pfEjS/E2jqniHwzHqOvRWv2WHWbe9e3chV2xtKgUrIV454JAANeDmWFq1qlOpTV7emj5oSTs2rr3LPW+uhtTklo/63X6nqV7o2leKPiVqbSx2PifV7bw7ZvpllcXO2C9uBFGGJbcu4gZO3IzVLx5Bf2vwN1eDVPD2jeGb1dYti1jpIIO0o+GkHmPgnBwMg4HTkV8+UVyxyWUZU/wB7dQ5ej+zbb3rJP/C3fr0KVVLp/VrH0P4o+HGueMPEHw9v9KjintLbQ9N+1SG4RPsqrli7gkELjkEDnBHUVHoN1b+Lvid8X5NNuYTb3uk3yQXDOFjbMkahtx4Ck9zxg5ryLx14z/4TS40aT7H9j/s7S7fTceb5nmeUCN/QYznpzj1NHgvxn/wiFv4hj+x/a/7W0uXTc+bs8reVO/od2NvTjr1rmWV4r6r7z95KyVtveUnd3s9vIaqRTj/27f5Hdax4bv8A4d/BHUdM8QRpY6lq2rQTWlmZUeQxxo26TCk4XJAzXE+Hfhzqfifwpr3iC1ns47LRlVriOebbK2f7i456dyM9Bk1ytFe7RwtajCVqi55S5m+XTorJX7K27118jLmXuq2i/wA2/wBT0z4EErrHisg4I8M6j/6LFcHaeINQsdHv9Kgumj0+/MbXMAA2yFCShPHYk9Kz6K3jhYqtOrLXm5dLbcu3+fkLm93l83+KS/Q9+1rwPqvxF1bwN4i0EQXejW+mWNvdXf2mNFs3h4kEgLArjGenPaodJ1zT/FXxZ+J1tY3kA/t+wvLTTpZZAkc8pZSqhjwN204JrweivIWUS5HCVTRLljpt7ylrr72qX8v4lqpa1lrp/wCSnr2veH734dfBW90XX0jsdZ1PWIriCwMqPL5McbBpGCk4XJAGetN8EeHr/wAcfBPV9C0OAX+rxa7DetZpIqyeT5DJvAJGRu4ryOiun+z6jpNe0XO5qd+XS6t9nmvay/m8w9ok1ZaJNfff/M9g+CkcvhfxX4s0DUbSzGtXGlzWUGn6owEM1wHRvJchgPmCkfeH1qx8SrjxHovw/k03VvDvhjwnb3t7G/8AZ+nh1vJWRTiTb5jqEGSMnB5GK8XoqZZZz4pYmUk9m1Z7x7e9ZfNN+YRqcqaS7/irf1setWttJ4m/ZvlgsFM91oGutd3kKcslvLCFEuP7oZSCe1eS1s+FPGGs+B9XTU9Dv5dPvVBXfHghlPVWU5DKfQgis7UL6XVNQubyfb51xK0z+WoVdzEk4A4Ayegr35tSlzLy/BJfoc8Vyq39au5Xrsp/+Kd+HMMX3bvXJvNf1FvGcKPxbJ/CuRgaNZozMjSQhgXWNgrFc8gEg4OO+D9DXSal4j0fWGtzd6fqkv2eFbeIDUYVCRr0UAWwrOUeeyvp/X6ile6Lvw0t2u18SwK6o0mkyorSNtXJZQMk9B71PqOk3PhX4dXFlqarb3l7fxyQ25dWfYqHL4BOBkgVQ0fxRomix36QaPqDLe2zWsnmakhIViCSuIBzx3zWb9r8Of8AQK1T/wAGcf8A8j1m6TlNu+mn4akKL5m33/Sxq+PmK2vhMg4I0eEj/vp6v+Adem1HWtca8a3vdS1CyZIkvcCOeQFSEbBHUL6jpXN/a/Dn/QK1T/wZx/8AyPR9r8Of9ArVP/BnH/8AI9V7FOLi33/EOX3VE6XxhNq2n+FzZ32laPokdxcq/wBltQwuHKg/PjewC84ya0dQ0C78Qat4Y1qx8uTTEtrSOW481QIWQgMrAnOc9u/auJ+1+HP+gVqn/gzj/wDkej7X4c/6BWqf+DOP/wCR6lUbbSV/mJwdrLz/AB+ZreJPD2o+I/H3iCDTbR7uWO5kdlTGQu7GefrWr8UvCerx3UOotYyCygsbeOWbjCsFCkdfXiuU+1+HP+gVqn/gzj/+R6Ptfhz/AKBWqf8Agzj/APkehUXHltJaeTKtLm5v66eZ12veGL/xlNompaUY5LH7Dbwy3PnKotmQYbfkgjHWuSt5IrHxpbu98L2GG+QteEnEgVxl+T04zSfa/Dn/AECtU/8ABnH/API9H2vw5/0CtU/8Gcf/AMj1cafL9rQSi+Xlfoa3xE8LapY61qurTWjLptxeSNFchlZHDMWXGD3FcdWxPdaA0Mgh0zUo5ipCNJqMbKGxwSBAMjPbI+orHohFwiot3NVe2o6ONpZFRFLOxwFHUk1oeIPD1/4X1OTTtTgFteRgF4hIr7cjIyVJHSm+H9Si0bXLC/mtvtcdrOkxg37N+0ggZwccj0pNe1m48Q61e6ldHM91K0re2T0HsBx+FZ3qe1SS923zv0/W/wAjoSp+ybb966t6a3v+FvmUK3tA/wCQH4h/69o//Ri1g0VVSHtI8t+q/B3HQq+xnz2vo/xTX6ncav8A8e3if/rjY/yWrZa41K00qaw0vTdQhS1jje4uPvRMowQ3zjAHXpXnlFcP1LRJS1Xl5Jd12PV/tS823DRp9V/M5dU+9tjYvb5p/FLXVxJCzfaVZ5LfPlnDDJXPOOKu+MtDvodUv9RaA/YZZyyTqwKsGORjBrmqK6vYuMoyi9lbbp9+hwvEqcKkakW3J8179dd9HffyOo8RH/TvDv8A14W/8zWkzK/jHxLa71jlu4JYYt52hnO0gZ98GuForD6p7qjzbK34p/odKzC03Ll3cXv2TVtut/kdVcafP4f8J3ltfqILm6uIzFCWBbaoOWwDwOat3mk3GsyaFqFpsezjtoYpZfMAETIfmB5//XXFUU/q0vi5veu+mmqttfy7k/XaduTkfJZJa66Ny3t3b6I7G6a7Hj7U/sLwCctIBHcEbJQRynPBz+FM8QaVHDobXN3psWkagJVWOOGQ4lUg5Owk4x61yNFCwzjKLUtrert8/wA0ypY+M1UUoX5nJ7qyv8r3XdNeZ6HYwfCg2Vuby98ZLeeWvnCCztDGHx820mUEjOcZ5qj4FGnr8YvDg0lrl9N/tq1+zteKqzFPOXG8KSAfoa4qrWl6pc6LqdpqFlJ5N5aTJPDJtDbXUhlOCCDggdRivVhNRqRm1szwpRbg4p7nR/Fz/kqnjD/sL3f/AKOauSrqPG3xK8RfESS3fX72K8e3LtG0dnBAcvjcSY0XdnaOua5eueK5Ul2NpPmdztvhleS6f/wklzAwWaHSpXRmUMAQy44IIP41h614y1jxBbpb314ZLdG3CGONI0z6lUABP1rFoqPZrm52ZqKTbPUL7w7eeKdS8Natpwjn06K0tY55/NUCBo/vh8nIxWPLCfE3jzXLnSdUW0uxLJPZMH2GchsbVfIwSOR61w9FQqTXXvb5kqDStc9G8XQ358HtJ4oSFNcFyotH+QXEkeDv37eqjjBPesjwx/yIfjL/AHbT/wBGmuQopqnaLjfqn91v8hqOiX9b3CiiitzQ9V+AP+u8f/8AYpah/JK8thhkuJkiijaWWRgqRoCWYngAAdTXX6T8XvFeheFZvDljqMVvpE0EtvJCLG3LtHISXUyGPfzuP8XHbpWR4R8Zat4F1RtS0W5WzvzE0Kz+WrsgbGSu4HB46jkVpJxcl2St+Lf6kK6T7t/ol+h3fx5T+x4/BPhuYj+0dG0KKK9jByYZnZpDGfcBlz9a8pqa8vJ9Quprq6mkubmZzJJNKxZ3YnJJJ5JNQ1DfM3J9W39+pSXKkl0CiiikMKKKKACiiigAooooAKKKKACiiigAooooAKKKKACiivUtS8F+BvAs9vpPiq+12414xRy3Y0lYRBZl1DBDvyXYAgnGBzXHiMVDDuMWm5O9kld6bv0V196KjFyPLaK9Otvgbql38Q5dBs3j1HTreW2klvEnit2a1mwyyKsjDLbCeAGwR371PiZ8G9Y8A32rXH2df7At7tobe4kvbeSVk3EIWRG3ZIxn5Rj0Fc0M0wdSrGjGquaSTSv3tbTe7vtuX7Odm7bHnlFdnoPwc8ZeJtIi1PTtDlns5gTC7SxxtKB1KIzBn/4CDWNoPg3WvE2pXen6bp8lzfWsMk81vkI6rH9/hiMkf3Rz7V1LGYaXNapH3d9Vp69vmRyysnbcxaK6nxV8MfE/guwgvtY0p7Szmfy0nWRJU34ztYox2tweDg8GrWg/B3xj4m0iLU9O0OWeymyYXaWONpsdSiswZ/8AgINS8dhVTVZ1Y8r0vzK1+172HySva2pxlFdz8Ofh2PGN14nsrmK8TUdN0ya5t7WEBXa4R1VY2UqT1YggYOe9Zfiz4b+JPA9vbXGtaY9pb3JKxTLIksbMOq7kYgH2PPBpLG4d1nh+dKfa+91fTvoHJK17HNUUVs+GfB+seMri6g0axe/mtoDcSxxsoYICBkAkbjlgMDJ56V1VKkKUXOo0kur0IMaiul8WfDfxJ4Ht7a41rTHtLe5JWKZZEljZh1XcjEA+x54q9oPwc8ZeJtIi1PTtDlns5gTC7SxxtKB1KIzBn/4CDXM8bhY01WdWPK9L3VvvvYvlle1tTjKKkmhktppIZo2iljYo8bghlYHBBB6EGo67d9UQFFdjpPwh8Ya7ocOr2WiSzWE5PlSGSNWkAOCVRmDFR6gY96o2vw78Q33iLUtBt9NabV9OSWS5tUkQsgj+/g7sMR6KST2zXGsbhW5JVY+7vqtLd+xXLK17HOUV1Pir4Y+J/BdhBfaxpT2lnM/lpOsiSpvxnaxRjtbg8HB4NWdB+D3jHxLpMWpadoks9nMCYXaSONpgOpRWYM//AAEGk8dhVTVZ1Y8r0vzK1+172HySva2pxtFa+h+EdZ8Sa8NF03TprnVCzKbULtZSv3t2cBcd84xXYa18I7rwt8O9S1jWoLiz1e31GG2iiWWN4HidGJYFc7jlSMhscEYpVcbh6M405zXNK1lfXV2TtvbzCMJS2X9bnnFFeqeA7XT/AAP8N73x5eafb6tqst+NL0m3vYxJBC4TfJO6HhyAQFB4B55rj/Dvjy/8PeKJ9c+z2WoTXRk+1W97apJBOrtudSmMAE/3cY7Yr0XFKXK3/T1RlzNq6X9dTm6K7/4x+FdM0HWNK1PQ4mttE1/T49TtrV23G33ZDxZ7hWU4PoRXAVGqbT3RW6TXUKKKKACiiigAooooAKKKKACiiigAooooAKKKKACiiigAooooAKKKKACiiigAooooAKKKKACiiigAooooAKKKKACiiigAooooAKKKKACiiigAooooAKKKKACiiigAooooAKKKKACiiigB8X+tT/eFfSviS11ebxF8XJfDMdy/iRLnT1iawBNysBH7zZt+bBwucdhzXzPXpusePvDniu3k1fUV1zSfGH2TyJLnSnjNveOqBUeQMQyZwobbkcZxXz2aYepWqU5RV0rp6X+1CSurq6fK07dzanJLR/1uv1v8jZ+JbPb/ABy8MtdMiSJHpJmYEbQQke48cY69OK5f40eH9UsfiP4qvLjTbuCzk1S4ZLiSBljYNIxUhiMHI5FcNcXU10yvPLJMyqEDSMWIUDAHPYCtTUvGXiDWNOTT7/XNSvrBCCtrc3ckkSkdCFJIGK1w+Bq4aVFwknyx5X07ar7tgc000+tvwTX6nr3jDw7r2v8Aiz4aX+iWN5eWH9k6alvc2kbNFGyH5xuHClTknOMd6t6Tfxt8c/ild6fMAq6Xqrxywn+IKMsCP9oHmvFNO8Xa7pFhJY2GtajZWUmd9tb3UkcbZ65UHBqlY6peaW8z2V3PaPNE0EjQSMheNhhkbB5U9weDXF/ZFV05U5TVlFxWnRyTu/PT82VGoo2fnH/yX/M0tP8AGGoad4V1Xw9GY207UpIppldSWV4zlSpzwT0PqK9R+InhnxH4j1j4f3nhyyvLu3bRLCKyurSNmiilQYYbgMIVbk56dTXiVa2neLtd0exksrDWtQsrOTO+3t7qSONs9cqDg16WJwUpVI1sPZSV73Wjukr6ddF8tDKMtGnta343PVPA8mqWfiT4rnUr6O71ePQb5bi7tmBV5A6BiCAO+ecVh6S7Sfs76+jEskev2zopPCkxOCR9RXndnql7pq3AtLue1FzEYJxDIyebGeqNg/MpwODxxQmqXkenyWCXc62Mkgle1WRhEzgYDFc4JAJ5rH+zZczldfFB7W+C33X6djT2mt/8X4qxp6P4H13xBoOqazp+nyXOmaYA13cKygRAjPQnJ454BxXZfBGaS3tfiDJE7RyL4Yu8MpwR8yV57a61qFjY3VnbX9zb2d0ALi3imZY5sdN6g4bHvTLLVLzTVuFtLue1W4iMEwhkZBLGeqNg8qcDg8cV1YnD1cTSqUptWbVtHsrPXu7326ERkouMuqf6nomks0n7O+voxLJHr9syKTwpMTgkfUV1PjDw7r2v+LPhpf6JY3l5Yf2TpqW9zaRs0UbIfnG4cKVOSc4x3rxJNUvI9PksEu51sZJBK9qsjCJnAwGK5wSATzV3TvF2u6RYSWNhrWo2VlJnfbW91JHG2euVBwa4amXVeeVWlJXbk9U7WlFL79Lj5k48r7Nfjc3fjNcW938VvFUtq6SQNqEuGj+6TnBI/HNcXW/4T8Vx+Fpbl5NB0jXfOCgLq0LyCPGeV2uuCc85z0FaXiD4iQa9pM1inhDw1pTSbf8AStPtZUmTBB+UtKwGcYPHQmu6j7XDKGHjTcoxSXNddEle245NVJSm3a56hrnhfXvEniH4X63olpcXOiwaXp6fbYMmG1aJv3odhwhBBznr707S5pLb47fFWaJ2jlj03VnR1OCpAyCK8+8C694Q0Wxs5NYvfE7XkNyLh7DTxCLOQo4ZMlnzzgZO36Vz3iDxrf6x4s1zXLaabTZdVlmaVLaVl/dyEkxkjG5cYBB4OK+ehl1epKdB/CouKbVt5J93f1Wn3mkZqKUut4/+S3IdP8Yahp3hXVfD0RjbTtSkimmV1JZXjOVKnPBPQ+or3GHwrZaBr3hC0fwv4h8Xzi2s54ddbUpI7aBTh8RgRsqxx57sMYP1r5zrXt/F+u2umrp0OtajDp6nItI7uRYgc5zsBx156V7OOy+WIt7F8t733V20le8Wnolts+phGVtH2/W57hb28t18WvjLY2CM2p3WnXyWsUX+skbzELKg7kjPA5Ncu2i6rov7Oeqx6naXNiJNfgeGG6Ro2x5TAsFPOCRjPcg+leXf27qX9rHVf7Quv7TL+ab3z287eerb87s++an1LxZresRTRX+sahfRzOskqXN08gdlGFZgSckAkAnpXJDK60HBKSsvZt6O94JLTydv6ubuqnJyt1k/vVj0KeNtT/ZltGtx5n9l+JJDdBeTGssChGPoCQRn1ryium8C/ELVfh/e3MtgLe5tLuPybzT76IS211H/AHZEPX2IwR60eHPGw8M+KrjXLfRdMuZGMjW9peQmW3tmZsqyqTyU6LnP419VLllLm72/BJfjY4o3jG39au/6nYfHKNtN0f4c6RONl9Z+Ho2niP3ozJI7qrDscEce9eU1o+IPEGo+KtZu9W1W6kvdQun8yWaTqx/oAOABwAMVnVDfNJy7tv73cpLlSj2SCiiikMKKKKACiiigAooooAKKKKACiiigAooooAKKKKACiiigAooooAKKKKACiiigAooooAKKKKACiiigAooooAKKKKACiiigAooooAKKKKACiiigAooooAKKKKACiiigAooooAKKKKACituTwuyQyumpadMY0aTy4p9zEKCTgY9BUWl+GdS1VYZo7K6+wPKsTXiwM0SZYDJbGOM+tRKcYK8nYqMZSdoq5k0Vs+IvDcuh+Kb7RIGe/mt52gVo4yGkIPZQT+XNU9S0XUNFkWPULG5sJGGVW5haMkeoDAVMasJqLi91dehpOjUpylGS+F2fkylRXUeF/B9rrGj3+ranqv8AZOm2kkcJkW3M7vI+cAKCOMDrmsPVreztdQmisLxr+0Ujy7h4TEX4GfkJOOcjr2qY1oTm6cd1vo7fft12uOVGcaaqPZ7aq/XpvbR62sU6KK6S1+Gvi++Utb+FdbuFFul2Wi06Zh5LglJeF+4wBw3Q4NaSnGCvJ2MoxcnaKuc3RV3TNE1HWpp4tOsLq/lghe4mS1haRo41GXdgoOFHcngVb17wdr/haO3fWtD1LSEuBuha/tJIBKPVSwGfwo54qXK3qHLJq6Whj0VuaV4F8Sa9pc2pab4e1XUdOhz5l5a2UssKY67nVSBj3NZum6ZeazfQ2Wn2k99eTNtit7aNpJHPoqqCSfpRzxd7PbfyDlaSdtyrRXoF58HdT0j4b6v4n1cXekXunanBpzaRe2TRSESRs4kJYgr93GNvOetaHhvwKln8MPEuq694C8V3VzPbxTaNrlvaSrYW65JeSRyApUjGD8w+nWuaWLpKLlF3s0tO7t3tfR39DeOHqOUYtWum/uuvzVjy+ip7GxudUvIrSzt5bu6mbZHBAhd3b0Cjkn6Vf8QeEtc8JzRw65ouoaNNINyR6hayQMw9QHAzXVzRUlFvVmCi2m0tDJor1q3/AGaPGtx8N5/Eo8P68NSTUksk0T+xpzNJC0Rc3AOM7AQF+7jJ69q8/tfB+rT+LLbw3NYz2OsTXUdp9lvImikjkdgAHVhleo6isqNeliJunSkm07f195dSlOlBVJqyev5/5GLRXoXxWPhrw/dP4S8PaakjaXcGO812dma4vJlBVwoztSMNnCgc7Qc1f8PaPofxM8D6laWmlx6R4u0CwN6k9szeXqVvHjzA6EnEoB3bl+9zkV0WTTad7fl3Mb6pNbnl1FORGkdURSzMcBVGST6Va1bRtQ0G8az1OxudOu1AZre7haKQAjIJVgDyKQynRRRQAUUUUAFFFFABRRRQAUUUUAFFFFABRRRQAUUUUAFFFFABRRRQAUUUUAFFFFABRRRQAUUUUAFFFFABRRRQAUUUUAFFFFABRRRQAUUUUAFFFFABRRRQAUUUUAFFFFABRRRQAUUUUAFFFFABRRRQBtW62bak508XBgFpOW+0bdwPlP8A3e3SvQfEGr6rpviDwHY6dc3EFi2nWRjt4WIjkLn58qOGyeDmuBvtWt9PtX0/Sv8AVMNs90w+eb1A9F/z9bGn/EjxJpWkxaba6pJHZxZ8tCiMUBPIViCwHsDivOxeHnWcZRSdr6PzVr7PY78LWjSU4ybV0tVvo0+6PSNLaC3+K3xCuZnuInt7S6kSWzUGeP5lDNHkgbgpPeuc8SeI9M1L4e3FnaN4i1RVvUkjvtWhQxwNtIZA6ucFgc7fbNcYvizV4/EMmux30kWqyOZGuIwFJY9eAMYPpjFS+IfG2t+KoootTvmuIYiWSFUSNAx77UAGffGa4YZfUjUhKTTSUev8q6aa/evQ9GpmNOUaiimuZza06S766fcz0LSfiJr3/CrNWvftUH2m3vreCNvsUGAhVsgrsweg5IzXluratda5qE19euslzMQXZI1jBwAB8qgAcAdBT4dcvYNHuNKSbbYTyrNJDsX5nUEA5xkdT0NUK78NhIYec5xild9F0stPvR5+Ixc69OnTcm+Va3fW71+52CvqL4j+MvF2geNvgvZ6LqepWVrJ4f0dobe0kdI55GO18qOHJAVSDnjAr5dr37xv+0nreit4Xh8CeJpIbS38N2Nndr9kVvKuo0ZZNnnRkq2No3p1wOTisMdSnUqUuSCla++23V2f5EYeUYxqKUuW66b7rbVfmdj4bmTw7+1B8ZrjStlubTSNZmh8tRtSQKG4HThs8V4jJ8adc1P4c634S1ya41+K/uoLy3vNQunlkspEJ3FN2fvg4PI7+tc5ofjrXfDmpapf2GoPHe6pbT2d5PIiytNFN/rQS4PLf3hz71g1NDL4wa9raVowSfW8L6/fb9TatjHPmdPS8pv5SSVvzPsXxN4y8OeC7r4X27a349024h0HTbiy03wvFC1lOzDLfK0ql3d9wbg56c1yngbV1k+KHxx17QNNvtA1GLQtQurC1uIPIvLJ2kj3/ICdjgFuh4zXk/hn4/eP/B2gw6PpPiOa20+33CCN4YpWgz1ETuhaP/gJFc54b8eeIfCHihfEWkatc2ethnc3gbe7lvvb92Q+c8hs5rijldRRqRbV2mlrvd31VtPPWXU1+ux/d+Ti3/26raO/6I9dbxBrfiP9knXZ9ZvrzUhH4otooLi8kaVtvkuSgdiSQC2cZ4LH1qt8D9c1K++HfxZsrnULq4srfwu3k28szNHH++jHyqTgcelcL4t+NnjXx1o9xpWua217p000dw1t9mhjQOgYKVCINo+ZuFwCSSQTW1o/7TvxH0DS4tOsNbtLezjgW2EY0exbMagAKxMJLdB94nNbSwdd0akIxjeUr7uy0j/d307IiOIpKpTk5O0V21fvN9+z7mv+zPNcaf8A8LI1LTS0et2PhS7msZoR+9hffGGePuGCk8jkZrnr3xd498TfCG8i1Np9Z8KW+qRt/aWoOZpLe6KHEcbs24BlJJUAjvxWK3xa8Wf8Jwvi+LV2tPEQAX7ZZwRW42hQuPLjVUIwMEbcHvmneOvi94v+JVvbW/iLWZL61tmLxW0cUcEKsereXGqru684zya6Xhqsq/tZRi78t7ttq3bTXyenozKNaEafIpPTm+d0lrrp+N12PTNP8beI/wDhlXVLwa/qn2yPxbBCLgXknmLGbRzt3bshc9uma8++EOrS3Pxo8J32o3UlxNJq1uZLi4cuzEuACWPJ7dapeA/i14s+Gcd5H4c1Y2MF4VM8ElvFcRSFc7SUlVlyMnnGawtY8Q6hr2vXOs3k4bUribz5Joo1i/eZzuCoAq8+gFdeDpPC4mVTlXK3fTfppa3l3+Rz4iar4eNO7uk15bt3387bfMvfEG2ls/HniOCZCksepXCsrdQfNau1/Z1Ux+KPEV03FvbeHdQkmfsq+Vjn8SKwvH3xGtviHYWl1f6LFb+KkZVu9Yt5Cq3sYUgGSLGBJ93LA846U6b4lQ6f4DPhnw/o8ekfbY0Gr6iZTLcXxXnaCQBHHn+Ede5612xiqcXG99LferXOaTc2nbrf7nc4uzmntryCa2ZkuY5FeJo/vBgcgj3ziuh+ImueKfEHiWS68Ym8OteUiML238iQIB8o2bVwMHPTnOa521upbG6huIJGinhcSRyL1Vgcgj8a1/GHjbW/H2tNq2v37ajqDRrF5zIqfKvQAKAB+Xeh/Cl5/wBfMOrZh0UUUhhRRRQAUUUUAFFFFABRRRQAUUUUAFFFFABRRRQAUUUUAFFFFABRRRQAUUUUAFFFFABRRRQAUUUUAFFFFABRRRQAUUUUAFFFFABRRRQAUUUUAFFFFABRRRQAUUUUAFFFFABRRRQAUUUUAFFFFABRRRQAUUUUAFFFFABRRXTaDp3he58J6/c6rq11Z6/AI/7Ms4YC0dwSfn3tjjA9x+PSn0b7C7HM0UUUhhRRRQAUUUUAFFFFABRRRQAUUUUAFFFFABRRRQAUUUUAFFFFABRW+ngu+k8CyeLBLb/2dHqK6aYtzed5hjMgONuNuB1znPasCm9HZhurhRRXY+CvhjfeNNLv9U/tPS9D0mykSGW+1e4MURkcEqi7VYlsAnpQk5bCbS3OOorU1jR4dE16XT21K01GCJ1Vr7TWaSF1IBJQsFJxnuByK0vG+l+GrPxY9n4U1ebU9EYRiO+vojEdxA3ZG0HAOecfn1Ja9vMLnM0V6B4n+D1z4c8Iy+I4PEnh/XtOiuks5P7JuZZGSRlLAHdEo6D1rz+h6OzBaq6CiiikMKK3PAuk2+veNvD+m3as1reahb28yqcEo8iqwB7cE10Hxfj8M6b4pvdG8O6BPo/9l3lxazzzag1z9p2vtVgpQbPuk4yfve1U1ZJ97/hb/MSd21/XX/I4Oiuk0vwHf6t/YfkzWy/2uZhB5jsNvlZ3b8LxnHGM/hXPxwvNMsSLvkZtqqO5JwBWakm7IXMn/X9diOiui13wXJ4ft5mudV0x7qEhXsoZmaZSTyMbccd+apada6TLo+pS3l5NBqMYX7JAkeVl5+bcccYH0/GkpprmWocy3RlUVs+H/Df/AAkBZRqmn2EgdUWO8kZWkJ/u4U5qnrOly6Hqt3p87I81tIYnaMkqSD2yBxT5lzcvUd03YpUUVpeHdBuPE2sW+m2rxxzzbtrTEhRhSxyQCegPam2krsG0ldmbRWnfeH7jT9F03U5HiaC/MqxKpJceWwU7hjHU8YJr0X4YaL4R8ZeF/EVhd+H7hdd0vRLzU11ZdRbZI8fKDyNmBjcP4jnb71UbSTae1/w3Ffbzdvxt+Z5PRRRSKCiiigAooooAKKKKACiiigAooooAKKKKACiiigAooooAKKKKACiiigAooooAKKKKACiiigAooooAKKKKACiiigAr3X4Z+PfEHiD4VfELRNR1Sa60rTtAUWlq+NsWJUUYwM9OK8Kr1Lw/8e5/Dekz6daeCvCXk3NstpdO9nOXuUGD+8ImAJJAJ4HNaRa5ZJvdNfemvwM5J3i0tmvwaLXwb1y98M/Dz4l6pp0ogvrW3094ZSivsb7UBkBgRnn04r0D4t6pNrHhf4p2FykBtNKu9JurKOOBE8mWcZmcEAHLkknPrXil18TLqW18TWtpo+k6VZ6/FbxXFtYwyJHEIXDqYgXOCSOc56nGKl1r4tavr1v4nhuLaxRfEJtDdGONwU+zjEfl5c4z3zn2xVc6cOV/1rcSjZ38/wBF/wAE9t8K32oeCX8KeHtU8a6D4WZorbzvDdro8tybpZSD/pMmxgZHDAH5sDIxisHw7pNl4Q+LfxavdMs4Fn8O2N9c6XE8YdLeQSKFdVPHyBjj0rh4vj9raxafJPo+gX2rWEccUGtXWnh7wKmAo37sZAGA2Nw7EHmqvhn4g+ItT+LE/iGwv9L0XVtWllM73jLHY7XBLpJ5hI2HGMMTzjnNaSmpT93+9+O33f8ADEKLjDX+7+G/3/8ADnYa54z1fxz+zjquoa3It3fL4jgjN55KxvKBA5AbaAGIz164IHYV31zrulfDuDwjpcHjrTvC+lDSrO6vNEl0OW6F6ZFDSPLIsbBt+SOvGO1cT8VPFAg+Ez6FqGseG77VbrV47qCx8LNEbW1t0iYEnygFDM7e5P4Vxej/AB01jS9N0y3uNH0HWbrS41isNR1Ow865tkU5RVbcAQp6bgcUvaKMpesfwjZ/j8tA5HKK+f4vQ5j4gPosnjbXH8OsG0J7uR7MqjIPKLZUBWAIA6YI7Vz9W9V1S61vUrrUL6Zri8upWmmmbq7sck/maqVyRVkkdLd3c+htD8M+O5tF097f4KeGb+3a3jMd1LZSF5lKjDsftAySOTwOteJeMoLu18U6pFf6XBol4k7CXT7ZSsdu3dFBZsAfU1jUVrOXM7oiMeVWCvobxt8WNf8Ahzpfw0j0WaG1ik8N2kt1m3jdrld7jy3LAnZgHgY+8a+ea3/FfjS+8YQ6HFeRW8S6Rp8emweQrAtGhYgvljlvmPIwPaqjNxjZb3T/AAf+YnFSevZ/mj2D4XXXhrxD8RvH/iiwhh8O2Nnpst9p73tr9oTT5GZFMvlKGztLMQADjI44ql8VvF2geJvh2Ibzxpa+M/FcF+j2t5FpM1pKtsVIeNmaNQy52kZOa8s8F+NtT8B6w2oaYYXMkLW89vdRCWG4hb70ciH7ynA/KtTxf8UtQ8WaNDo8emaToOkRzfaTY6Na+RHJLjbvfLMzEDgZOKUpL2aguiX53/L59NhRi+dyf9aW/roeu61421TwN4j+G3hLR/s8Ph640/TLi5sjbRst1LMwMkjkgksT0IOQRkYqNufiJ8fgOT/Zl+f/ACOlcV4P+N2pLceF9M1Gx0O4GnTQ21vrV7aBru0txIPlWUttAUE4JGV6gjrUHiz4jXXhT43eK9e8P3VpeQXN7cxncFuLa7gdjlGHR0YY6H0rWpJSd76Pn+V0rfdf/IiEWla23J+F7/eS6Rx+zT4hJ6HxHagf9+Hr1y513Svh3B4R0uDx1p3hfShpVndXmiS6HLdC9MihpHlkWNg2/JHXjHavAfGfxT1LxlpFrpA0/S9C0a3mNwunaNbeRC0xGDI2WYs2OOTwK1NH+OmsaXpumW9xo+g6zdaXGsVhqOp2HnXNsinKKrbgCFPTcDiiNRJt+cfuSt+ffQHTbSXr+LubHhHxZ4N8KfGnxBqNrKINAmW6j0nUFszMLF3/ANVMIXAJC8jGM81f+LU3iTxB4Dh1S58T6P470W3vljGrW8BivbR2Q4jcMqsqMBnBzyB0rzvw/wDEnWfD/ii+17db6jd6gJEvotQhEsN0shy6unHBPPGOlXfFnxYv/FHh9dDg0jR/D2keeLqS10a1MKzSgEBnLMxOATjnFY3/AHSjfVW/P+td/kaW/eOX9bf15Hqtr8cPHS/s/wBxrQ8R3I1SPxFHZJc7U3CH7MzbPu4xkA14DrmuX3iTVrrU9TuGu7+6fzJp3Ay7epxXS+C/ilfeDdHvdIOlaTr2k3Uy3L2OsWxmjWVQVEi7WUhsHHXpXP3euG48Qvq0NlZ2TG4+0JaW8RFvGQ2QqoxPy+xJqpyU53b00+WiT/zFFcsbJf1dmZX0Xo/xMg/4UHrGof8ACFeFtsGtW9ubP7JL5EpMTHzHXzclxjqCByeK8c+I3xC1H4n+JpNc1WCzt7t4kiKWMRjjwowDgkkn3JqvbeNb618D3vhVIrc6fdXsd88jK3miRFKgA7sbcH0z71Kk1GS7/wCa/Qbjdxf9bf5lqz+JGsaH4suvEHh/yPDF3cJ5flaVHsijQhcqquWIBKg9TzXZftOXc2ofEHT7q4kMtxNolhJJI3VmMIJP5muB8IeKo/Cd7NcSaFpOvCSPyxDrELyxpyDuUK688Y69zXVeOvjbc/ECxkgv/Cnhm3uWhjt0v7S1mW4ijTG1UZpWAGBjoeCacmnTUb6p3/Br9QSfPe3S35f5F3R/+TafEP8A2Mdr/wCiXq3+zfY2B1XxTq15c29jNpOjSXNrfXVsblLSQui+d5YBLFQxxwetcf4J+Jl/4L03UNNGnaXrek3zpLNp+r25mh8xM7XG1lIYAkcGnad8UNQ0Pxhc6/pOnaXpYuoTbz6Xb2xNlJCVCtG0bs2VbGTz154q1JKbl3X3Plt+euhHK3Hl7P8AW56B8VvF2geJvh2Ibzxpa+M/FcF+j2t5FpM1pKtsVIeNmaNQy52kZOa6Dwd4/TUfDPhXSfCHjbTvB99bWyW13oeq2BEF9c7jukaYIwYPkDDYxXkHi/4pah4s0aHR49M0nQdIjm+0mx0a18iOSXG3e+WZmIHAycVq6R8ctS02x0yG68PeHNautMjWGz1DUtPMlxEinKDcHUNt7bgacZq7b2bX4K39X33YSi7JLpf8/wCtttiLQ9PvtL+Pml2mpWcGn38XiGBZ7W1XEUb/AGhchBk4X09sVk/Fz/kqnjD/ALC93/6OaodI8aTN8SbDxVrUkt5MupxahdtGo3viUO20ZAzwcDgVo/FjWfCfiTxFc6x4afWvO1C6nuruPVYYY1Qu25RH5btkctnPtWH/AC7h5X/Hl/yNfty87fqY+m+Nb/S/7G8lID/ZRmMG5W58z727nn2xik8G6wuma1AG0+zvjPNGoa7RmMfzdVwwweffoKwKmtLlrO6huEALxOsihumQcjNZ8kdfMiUU4tI7P4leIEuPEGs2A0jTYmW6YfbI4mE5w3Utuxk9+KseFfEWpal4P8S6fc3bzWdrpo8mFsYTDqOPwri9Z1WXXNVu9QnVEmuZDK6xghQSe2SeK6HTfiLJpdlJbQ6DouyWIQzM0Em6VRj737znkZrn9k1SUErsUo7WX9XMDQf+Q5p3/XzH/wChCtL4hf8AI8a5/wBfcn86zNQ1Q32pG8itrfT2ypWK0UqiEAcgEn0z1rV1rxtJr9vOt1pOli6mwXvo4GWckEHOd2MnHPHc1q1LmjK39aFa81z0CTULPwzHotpH4htdItPscE09g+nvL9o3DLM7BTndyOvFefTa5B4f8a3GpaEI5LaOeRrYSIwTYwIxjg4wamsfiBe2draRS2WnX0tooS3uru33yxKOVAORkDtkHFc7eXk2oXU1zcSGWeZzI7t1Zick1nTpNSfN1uRCHKrMtXmt3F9pOn6dIqCCxMhjZQdx3kE559R6V6L8Af8AXeP/APsUtQ/kleVV6j8OfGXgzwV4X115v7dm8S6po93pjRxwQmzQyfcYMZA/QLn5e5612QSipekvxT/Ut7xt3X53PLqKKKksKKKKACiiigAooooAKKKKACiiigAooooAKKKKACiiigAooooAKKKKACiiigAooooAKKKKACiiigAooooAKKKKACiium0HwnYax4T1/V7jxDY6bd6aIzBplwf317uOD5fPb2B98dadtG+wuyOZooopDCiiigAoorV8Q+F9T8KzWcWqW32WS8tY72AeYr74ZBlG+UnGQOh59RR0uHkZVFFFABRWqvhfU28MP4hFtnR0uxYtc+YvExQuE253fdBOcY96yqNtGAUUUUAFFFFABRRRQAUUV02g+E7DWPCev6vceIbHTbvTRGYNMuD++vdxwfL57ewPvjrTto32F2RzNFFFIYUUUUAFFFFABRRRQAUUUUAFFFFABRRWrF4X1ObwzP4gS2zpEFytnJceYvErKWC7c7ugJzjHvR5gZVFdr4A+HsXiiy1LWtX1IaH4Y0vaLu/MZkd3b7sMSZG52+uAOTWd4d0/wxqXiie01TVL3StFkMi2199nWV4zu/dtKgPTH3tpznpVcrul3J5lZs5uiug8deC7/wAA+I59IvzHK6KskVxA26K4iYZSRD3Vh/Udq5+pKCiiigAooooAKKKKACiiigAooooAKKKKACiiigAooooAKKKKACiiigAooooAKKKKACiiigAooooAKKKKACiiigAooooAKKKKACiiigAooooAK9q8Aa1a+Kvhj44sL3w7oAfR9EWW1v4dMiS73iRF3tLjcWwTz1rxWvXfCfxd8GeFdB1HTo/h/dTtqlktlfzHXmXzgCGJUeSdmWGeDx0rSNuWSb3T++zt9zM5XvFpbNfmrlX4RtY6f4H+IOtXOj6brF1psFjLbJqVsJkRmuAp4POCDyAecYORxXb/ABS0fQZfDfxGtrTw3peltoN1ptxZ3NnBsm/0kZlRmzynPyr0AAxXmDfELS7DSvGOl6N4fk07T9fhtYo4pL8zta+VIJCdxQb9xB4+XGe9XfEnxi/4SC08aQf2R5H/AAkhsDu+07vs/wBmAH9wb934Y96vmi4cv9biUXe/n+i/4J3V9c6F4H1jwB4SXwjoupWupWVhdX99e23mXcsk7AsVkz8oXjC9OxBFeXfGKxttL+Kniu0s7eK0tYdSnjiggQIkahzhVUcAD0FewfDSbxX4z0vwjqM3gCw1aPS3itLXxVcSlPs9vHJgll3hWMY3YLA4x0J6+feKrTwz43+KnjS8vvF1voNk+oyyWtw9nNcrcgyNyvlKcDAByeuadZXkrdXJ9tNLfh/wBU3aLv05fv1ueX19KeMvGlhoPin4f6Zc+FtF1uG+0LS47ubU7bzpfLZdu2Ik4jwMnIGcnngAV5D4l8H+EtJ0ea60vx/a67eoV2WMel3ULPkgE73QKMDJ5Pautb46aDfXmgXuq+AodSv9Dsba0s521KSP5oRw0iqmHXd8wU9ORuI6FOSirS7p/Kzv+YpxctV2a+d0aHh3wfoVp8ZvG3w9mtLeS21EXVhpdzcxq8lpcLl4CrkZHTacdcjNc7q2h2vgv4I2n27T7c+IvEGpyNHJPCpmt7W3OxgpIym6TIOMZArmtN1jXPGXxQtNTtnH/CQ6jqqTxNGMBZ2lBXA7AHH4Cuq/aZ8YJ4s+LGpx2xQWGl/6BCsQwmVJMrAe8jOfyrLalG+70+6zv63dvQ13qS7b/fp/wV6HbWvxYnX9n+41T/hFvChZPEUdr9lOjRfZyPszN5hj6GTjG7rjiuW+DOj2HxA8YeKtb1PTtEjaw06S/gsbnbaaYsxZEXzACAsY3E7c4Nc14J+JGm6H4TvvDXiDw4PEejXF4l+kcd61pJFMqFNwdVbIKnGCKreFfiJb+D/FGrXljoscuganDJZ3Gi3VwzhrZyD5fmgBtwwMPjPHSteZOpzN9PufLb89TPlahypdfwvf8jvfito+jXHw7GpXMngq28UW9+kccXhC8iKz2zKc74kYgFWA+YDoea3fCllYX/hXwzF4L0PwR4iuGtFGq6frZiGpy3W4+YqGVgQpGNpQ15H4v8aaDq2jQ6X4f8IWnh23Wb7RLcSXDXd3I2MBfOZQVT/ZAwTzWxofxM8J2VrpMmpfD21vtX01EVL201B7RJihyryxKpDN6nIz3ojKN3fa6/L+tHuwlF2VvP8AP+vQ4fxNbGz8RanA2mvo5juZFOnyMWa2wx/dknk7emT6VmVr+LPE134y8Tanrl8EW7v52nkWMYVSxzgew6fhWRXLG9lc3e7seuaXD4cOm2hl+D2v30vlJuuo9WnVZjgZcAW5AB64BPWvNPEQgXXL4W2mzaPB5p2WFxIZJIB/cZiASR6kCtm2+K/jezt4re38Y6/BBEoSOKPVJ1VFAwAAGwAB2rndQ1C61a9mvL65mvLuZi8txcSF5HY9SzHkn61rNqTuv6+4iKaWpXr2rwBrVr4q+GPjiwvfDugB9H0RZbW/h0yJLveJEXe0uNxbBPPWvFa9d8J/F3wZ4V0HUdOj+H91O2qWS2V/MdeZfOAIYlR5J2ZYZ4PHSnG3LJN7p/fZ2+5kyveLS2a/NXKvwjax0/wP8QdaudH03WLrTYLGW2TUrYTIjNcBTwecEHkA84wcjiu3+KWj6DL4b+I1taeG9L0ttButNuLO5s4Nk3+kjMqM2eU5+VegAGK8wb4haXYaV4x0vRvD8mnafr8NrFHFJfmdrXypBITuKDfuIPHy4z3q74k+MX/CQWnjSD+yPI/4SQ2B3fad32f7MAP7g37vwx71fNFw5f63Eou9/P8ARf8ABPTfBXhZtPsfDFhfeF/Ael213FC11H4lv4n1O8WQ8ypkhotwPyqBkH1rnfDvgjQvDfxQ+JbTabFq1h4UtLy6srC9y8TusgWMSD+JQG5B64rHm+N2j6leaXrOq+CLbUPFNjHBGNS/tCVIpPKACO0AGCwAHfGRyCOKh8M/EbWtc+Meratoegw6lP4ka4hm0G4fzEnhk+Z4i3y54XOeOn4VcmpT93+9+Pw/1bToQk1H3v7v4b/116mlr2o6Z4v+A+p69/wjWjaRrEevQWzT6XaLCGjMLNgDnb7hSAcA4zk16Bb+DdI8J2nhbT47P4evptzp9rdanJ4lvYk1GZpVDSFCzBowAfl2+neue+KUc/hv4Iy6RqXhuz8F3F1rsc1no0E5llaNYW3zOWdmPzELk46AAVxdv8YNE1Cx0dvEvgi18Q6xpNvHaW9819JCkkUf+rWaIAiTHTqMjg0uaMZST7x/9J1/HoHLKUVbz/PT8DjfiBpemaL421yx0W6jvdJgu5EtJ4pRKrxbvlw4OG4xz3rn60bjV1vNffU5rK1CSXP2h7KCMRQY3ZMaqv3V7YHatf4jeLNN8aeJpNT0rw7aeF7RokjGn2RBjBAwW4VRk+wH9a5UrRXc6G7yZ6n4o8UaL8OdN+HqxeDPD2onUNAtbnUJr6xWR5QWcHbjG1zhsvgsfl54xUPw78J+EPEvxL8a32kRWV3oGl2Ml9pkGuSGC0DlkCicsQfLUs3BPOBmvNPHPjj/AITS28NRfYvsf9jaTFpe7zd/nbGY+Z90bc7unPTrSfD3x5J4D1S8laxh1XTr+1exvtPuGZVnhbBI3LypyAQw6Yrp506km9vet89vu09DHlagkv7t/lv+p6T8VtH0a4+HY1K5k8FW3ii3v0jji8IXkRWe2ZTnfEjEAqwHzAdDzXR+CvCzafY+GLC+8L+A9LtruKFrqPxLfxPqd4sh5lTJDRbgflUDIPrXjvi/xpoOraNDpfh/whaeHrdZvtEtxJcNd3cjYwF85lBVP9kDBPNdRN8btH1K80vWdV8EW2oeKbGOCMal/aEqRSeUAEdoAMFgAO+MjkEcU4SgpNva6+62v9dSZRlypLs/vvp/XQ2PD/gnQ/DPxK+Jskumw6tY+FLW6uLGwvsvE7iRUjEg/jVQ3Q9cU3WvE0Xir9nXWL1dH07Rp/8AhI7dJY9Lh8mB/wBw5DCPJCnBwcYBwOM5zzFl8ZmtfiP4l8SS6LDd6b4hWeG+0eac4eGUglBIACCCBhgPwpviT4qaVqHgC58JaL4VTQtPl1CPUFk+3NcPuVGUhyygsTkcjAAHTqaxv+6Uetl9/Nd/h+Rrb9435v7uW35l3Uv3P7M2jCP5Vm8TTtLj+IrbqFz+BNeVV6R8P/FmhXnhHUfBHiueaw0m6uVvrLVIIjKbG6C7SzIOWRl4IHIx+I53w5oOgXniq4s9Z8Qrp2i25kJ1CG2eVp1VsARoOcuORngd6qS5p3T3S/BJP8hRfLGz6X/Ft/qdf8aP3nhX4XzvzO3h1UZj1KrK4UfgK8qrsvip45t/HPiC3fTrVrDRNNtI9O021kOXS3jB2lyP4iSWP174zXG1nJ80pSXVt/ey4rlik+iX5BRRRSGFFFFABRRRQAUUUUAFFFFABRRRQAUUUUAFFFFABRRRQAUUUUAFFFFABRRRQAUUUUAFFFFABRRRQAUUUUAFFFFABRRRQAUUUUAFFFFABRRXTaD8P9T8ReE9f8Q2r2q2GiiM3KzTBZDvOBsXv+ntmnZ2b7C7I5miiikMKK09D8M6x4oneDRtJvtWmjG547G2eZlHqQoOBVbVNKvdDv5rHUbO4sL2EgSW11E0ciEgEBlYAjgg8+tMCrRRRSAKKKKACiiigAooooAKKltraa8uIre3ieeeVxHHFGpZnYnAUAckk9qW8s7jTrua1u4JLW6hcxywzIUeNgcFWU8gg9jQBDRRRQAUUUUAFFFFABRUlvby3U8cMMbzTSMESONSzMxOAAB1JNTz6Xd2mptp91byWl6kvkvBcqY2jfOMMGxtIPr0ppNuyFcqUV0fj7wLqPw48Sz6Hqr20l5CiOzWkvmJhlDDnA5wfSucpDCipba2mvLiK3t4nnnlcRxxRqWZ2JwFAHJJPalvLO4067mtbuCS1uoXMcsMyFHjYHBVlPIIPY0AQ0V02g/D/U/EXhPX/ENq9qthoojNys0wWQ7zgbF7/p7ZrmabTTsxLXVBRRRSGFFKAWIAGSa6/wAZfDe48B6TYyavqNpFrd0Vc6HGS1xbxMuQ8pxtQnj5M55zTs7XFfWxx9FX7HRrjULG9u4jGIrRQ0gZsE59B36VQqFKMm0nsaypyjFSktHt+QUUUVRmFFFFABRRRQAUUVJNby2+zzYni3qHTepG5T0I9R70r9B2drkdFFFMQUVILeVrcziJzCrbDJtO0N1xn1qOlcbTW4UUUUxBRRRQAUV02g/D/U/EXhPX/ENq9qthoojNys0wWQ7zgbF7/p7ZrmabTTsxLXVBRRRSGFFFFABRVvUNJvtIeFL6zuLJ5olniW4iaMvG33XXI5U9iODVSgAooq2NJvm0s6kLO4OnLN9nN55TeSJCNwTfjG7HOM5xQBUooooAKKK3fBvhy28Va0NOuNZs9DaRD5Nxf7hC0nG1GYA7M8/MeBimk5OyE2krswqK1PE/hnUvB+u3ej6tbNa39q+ySMnI6ZBBHBBBBBHUGsukMKKKKACiiigAooooAKKKKACiiigAr2DwbY+EvF/w38WhvCMNnrOh6Qtymqpf3DNLLvVCxjL7BnJOMYrx+vZ/A/jD4YeFfDeuWE0vi2W41zTlsrtktLUpEdysxjJlBIyMDI6VpHWMk+z++zt+JnLeLXdfddX/AAML4K+GdA8Qf8JhceIrKW+tdL0Sa/jSGZonDo6cgg4zgkfMCOc4NWvFGh+FvEnwpPi7w/ocnhq7sdUTTrm0F49zFMjxl1kBfkMCMY6VU8O+M/C/g258a2+ljV7nTdY0STTrN7yGJZllcoSZAr4C5VuQSenFZdj41sbX4Q6r4VeK4OoXWrQ3ySKq+UI0jZSCd2d2T6Y96cmuWy7L7+bX8PwCKfNfz/Dl/wAz1/wreeBNF+But3Gn6r4vsbKTV7aO6uLaGCO6MnlMQi4lAMfU8nOccVwPgvw74b8XeK/FmtXsur6x4e0XTn1Lyr6QR3d4V2KqSOpbaNzHkEnAFc9Y+NbG1+EOq+FXiuDqF1q0N8kiqvlCNI2Ugndndk+mPej4W+OrLwZqGrQatZTX2iaxYSadex2rhJlRiCHjJ43AqODwapyUpt+Wnryq34kqLjBLz19Ob/I3/E2h+F/FHwvn8XeH9Ek8M3Wn6lHYXNiLx7mGVJELK6s/zBgRgjOK8rr0nxV448MWvgE+EfB9rqps7m+W/vL7WfLErsqFUjVIyQFGSc5zmvNqylbmdttPyV/xuaxvyq/9au34G94QTwxJezDxTNq0Nn5f7o6PFFJIXyPvCRlGMZ6c9K1PFUXw/TS8+GrrxLNqW8fLqttbxw7Oc8xyMc9O1ZfhDxxrPgS9mu9FuIbeeaPynaa1huAVyDjEiMByByBmtTxV8XfFPjXS/wCztXvba4tN4k2RadbQHcM4O6ONW79M021y2W4lfmv0ONr0H4OeFNH8Qahr2o6/BNeaToWlzalLZQymJrllKqse8cqCW5I54rz6u4+EfjD/AIRXX723m0ibXtP1iyl0280+2YrNJE+CTGQD8wKg9Ox+tOG79Hb1tp+Ip7fd919fwOl8QaT4P1z4Nah4q0Xw6+halFrMNkYjey3CIhiZjsLHoePvAkEHBwcD0DR/gNZ2On+GrZvh3qXiuLUrO3ub7XotSaD7O0oBKxRg7TsBH3gc1z3jK303Sv2er2207QtT0Czl8RQmFdabNzdEQOWc4VRtHAwBjjrk1z91488A+MrfRL7xbpuvHWdMsobGSHTJIhbXqRDCFmYh4yRwdufbFa+5GUk11j93Lr+NttTL3mlbz+++n4d9CTwnY6L8NfjfP4d1LQ4/Eb2+tQ2lneTXUsDW5WbAk2xkBicqcNx8vvUPx48S+HL3xh4q0+z8Hwadq8erTiTV11CeRpSsrbj5TNsG488DjtXn9p4gh0zxjb63YWCWlvbXy3cFiJGdY1WQMse5sk4AAyea6r4pa54G8V3mo65of/CQQa5qN411NbahHB9mTeSzhXVtx+Y8ZHSsbt04rtf/ANtt+Tv+Jtb35Pvb9TzuvSvgt4Z0DxD/AMJhP4hspb210vRJr+NYZmicOjpgqQcZwSPmBHOcGmxfBG6ljR/+Ex8EruAO1vEMAIz2Iz1rp/g3pdv4V1L4l2WoyWus2tv4am89tLu1kjlQtEWEcoyM4PXnBHtVxi4t37S/JkSkmlbuvzRi+JtF8LeJ/hTL4s8P6FJ4avNN1KOwurUXklzFOkiFlkBflWBXGBxW5rVj8O/Alh4GOp+EZtXm1nRre8vZRqU0KxFmYNIgBOXODwSFG0YHJNcx4q8ceFrX4djwl4QtdW8i6vl1C+vNYMYkZlQqkaLGSNoyTk85rJ+JHjSx8YWnhGKziuIm0jRINNn89VAaRGckphjlfmHJwfahyUbtLqv/AEnX8QUW0k+z/PT8Dt/BHwj0LxJ8UPFljprT+K9C0W2kvLO3spwj3/KiOLzO3L4Zh/dOKn+K3wki0f4djxMfB914Fvre/S0k0+W9a6iuI3UkSKzEsrAjBGcc1wPwx8cWXg6+1aDVrOa+0XWLF9PvY7VwkyoxDB4yeNylQcHg0ni++8Cpo0Nl4V03VpbwzebNqmsyKsgTGBEkUbFMZ5LHJ4qZcvs0l2X33/y87fMcb87b/pW/z/qx6RHo/gv4f694F0O58P3Goa1fw2OoT62L50aCSZgyqkIGxlXjOeSM8jrXK/EXVtK0X46eM7jWNBi8RWn9oXKizmuZbcBjJw26MhuMHjpzWr/wtDwPrk3hXW9e0zXD4k0OC2tWisni+yXKwEbHYsd4OOqjg4xkda5rV/EHg/xl8SvEuta62uWmk39zLc2q6fBC84LPkBw7hQMZ6E81pUac1y23l9ztb8CIXUfe7R+/W/4kvx48N6P4Y8aWsGhaeNLsbjTLS8+yrNJKEeSMM3zOSx5PrXS6vpfw/wDhr/wjeja74auddutQ0+3v7/VhqEkLW4mGcQxqNp2Dn5s5qj8XvGXw+8eAajpj+JotYt7G3sreK7trdbdhEoXLlZCwJUE8DripJviJ4B8XR+H9R8WaVrj63pNnDZPBpzwm0vkh4TeX+ZMjhsA8dKXupytb4v8AyXX/AIHmP3mo37fjp/wfIz/hnqXhbQPipDapo48UWU2q28emX1zcTW0kC+b8shRCAzcqSGGMr71Z+PHiXw5e+MPFWn2fg+DTtXj1acSauuoTyNKVlbcfKZtg3Hngcdq4U+Kki8dJ4itNOt7GOK/W9h0+D5YowrhljHHQAAZrpPilrvgbxVeajrmh/wDCQQa5qN411NbX8cH2ZN5LOFdW3Hk8ZHSs2704rtf16W/J3/E0tacn3t+pueDbHwl4v+G/i0N4Rhs9Z0PSFuU1VL+4ZpZd6oWMZfYM5JxjFc/8IPCekeILrxBqWvRTXelaDpkmoyWVvJ5bXLBlVY9/VQS3JHPFdP4H8YfDDwr4b1ywml8Wy3GuactldslpalIjuVmMZMoJGRgZHSsHwn448MeCfFGuW9rbarqfg/WNPbTrhbkRw3qqwUl12lk3Ky8DOCOtaStz30+F+nN71v0M1flt5r7tL/qW/E2h+F/FHwvn8XeH9Ek8M3Wn6lHYXNiLx7mGVJELK6s/zBgRgjOK6vVdD+HPhbX/AAZo154Rn1CTXNLsJrm6XU5ovIeYYLxrk5bOWIJ29AAOTXE+KvHHhi18Anwj4PtdVNnc3y395faz5YldlQqkapGSAoyTnOc1H4w+Ium+IPF/g7VbeC6S30bT9PtLhZUUOzwH5ygDEEHtkj3xVRcObXbmj93K7/iKSlbzs/vvp+Bd8M+Dbbw/+0hp3hqRvtVpZ+IEtw0gGXRZfl3fUAZrkPiPqE+qfEDxJdXMjSzSajcFmY5/5aMAPoBgfhWt4g+IiTfGK68a6VFIsf8Aav8AaNvFcgK+A4YK2CQM4wcE1e+Lmi6JfXsvjDw5rFrd6VrFy0jaaz7byymfLukkf90Hdhxwf58+vsoN9L3+fLb8mbf8vJedrfK/+Zz2jxabqej6ijaaqXVrZtKLkTPlmBAztzjvVXw7a2ctnqtzd2/2kWsSSIm8pyXA6j61c0XU9B02zuUdtSaW6tvIl2xx7VJwSV+b1HeqUepafY2+rW9r9peK6hSOJplUMGDBjuwenHavJ99ucYqWrXfa6v8AqfQr2SVKc3G6Ur7dny3VtfmautaPpcdjq/2W1eCaz8iVZDKWyJMfLj0GevXinaJ4fiurK0YeH7u9WUDzbp5THjJ6oAeQB3PWqF94itrqHWUVJQbyO3SPcBwY9u7PPtxUtxr2k6g1ndXUN59rt40j8mNl8ltvQ5PIHsP/AK9Y8tdU+XX73/KvNPe/Wx0uphHWc1y7PSyS+OXeLV+W3S7Qlp4dtIPEeq29zvns9OjkmKqdrSBcYXPbqKbc2+mX3hm71C2sTZzx3Ece3zmcAEE8Z9ff0pY/Ekb+Kb+7jtZLm1vg8T2/R2RhzjGeeKuahHb23gy7SCzuLOJruPb9rOXkO0k9hwPanJ1Yyhz3u+Xrp53V/wBBRjQlGqqSVl7Tpd7e7Z20+9fkWbPwikVnp/8AxJJ9TFxCkst0s5TZu5woHoPWuT13TRo+sXdmGLrDIVVj1I7Z/CtRtX0jUoLJtShvBc2sSwYtyuyVV6ZzyDjjis6109davLgwSWunxA7ljubgIACeAC3WtqHtKcpSrN2/Df1f4JHLivYVqcKeHir6Wta+2t/dXXu2+2hm12+rXGmRSaFHfWLXjSWEClhMU2LyMgDqevX2rnr7w69javOb/T5guPkguldzzjgDrWpLrmiXzaY93Be+ZZ20cR8rZiQr2OTwM9+vPSnXaquMoXaV9vQnCxlh1OFS0W7W5rNb/NCWnh+0XxNqWiyjzHKyJaysxBWQDK5wcHI4qiNNgtfC0l3cRZu57jybfJI2Koy7YzzzxzUFxq9xf+IjqMS7bmS4EkaLzg5+UfyrU+IV8k2uG0hUJDagrtXpvY7nP5nH4Ul7X2kISe6Tfy3+92/EuTwzpVasIr3W1HTdS2/8BSbXy7F+21TTP+EOuJP7GjMK3aK0P2iTDNsPzZzkfTpWV4d0q38Ra1dFLNlt4oWnWzhkJLYwAgY88k9ah0fVLFNJudN1FbgQySrMslrtLBgCMEMemDTNL1W00nUroLHNPp1xE1uwbCy7GxzxxkECp9lOCqqne721b0089/xK+sU6rw7quPKt1ZJ3u97K9tu68rmr4g8NC30N786XJo8sUqoYmlMiyKc8jPIIP86lstDtV0eyuIdGk1rzU3XEsU7BomycqFXuB6isHUptIW1EWnwXLyl9zXF0wBAx90Kpx+Jq1pt9okC200iaha3cQG82jqVkIPXJOVz7VLhV9ktXv5//ACV/x+RSqYf2792Pw+W99/g5b28vncl8OReEzrF4viOTWrbTgD5A02GKSYNu6OJGUYxnp3q94qi+H6aXnw1deJZtS3j5dVtreOHZznmORjnp2qDSviVrPhvxFqGsaLJDZT3gKuJbWG4G3IOMSIwzwOQM1P4q+Lvinxrpf9nave21xabxJsi062gO4Zwd0cat36Zr2Iu9ON1r/XU+fqpKtLld43dvT06HXeDbHwl4v+G/i0N4Rhs9Z0PSFuU1VL+4ZpZd6oWMZfYM5JxjFZHwt0Xw/ceE/G2t69o51n+xobOWC3F1JBkvOEYFkPQg+h9sHmt7wP4w+GHhXw3rlhNL4tluNc05bK7ZLS1KRHcrMYyZQSMjAyOlc5b+LvDPh/w/470XRxq1xaa1BZx2Ut9FEsitHKsknmhXIA4IG3PbOK3dlNPTb8by/wCAc0btW8193u/8E7T4lfD/AMH2Hh3xyujaPPp994durGSO7kvHl86O6GfKKHgBMgA9Tjk1HN4Z8B+E7zwV4Z1Tw5c6rqWtWtnd3mri/kiMJuGGESIfKVUYznk9iDzWL4s+LWka9Y/EGG3tr5G8QtphtTJGgCfZwBJ5mHOM9sZ98V0/g/xBY+P7vwRd33gjW9R8QaYbXToL+zc/YZkjkASSUbCcoOoDAHbycdNoKDnZd4/dbX8bGc3JRu+z+/T/AIJ5R8VNFsvDfxI8S6Vp0P2ews7+aCCHczbEViAMsSTx6muVr1bxx4R/4Tz4weOmtdb0PTI4dTmPmatqMdqsmZGHyFvvYxzj1Fc/4l+Fk/hnR5tQfxL4X1FYio+z6brMVxO2SB8qKcnGcn0Ga4IJ8ik+x1ya52keueOL/wAGx+JPAWneIvDU+uTX+gaZC90t+9v9lRl2gxon3mBJY7jg8DA61yHh34Y6LJ8TPG3gG6jN1qCRXUWiXjyMjLcRZdAQpCneoIOQeRxirt78TPhx4g1Twvqesab4i+2aFp1nahLTyBFdPCM4cM2VXd/EDkg9ARk8JH421fX/AIvReJ7CHZrF3qy3VvbxkkeY0gKx57jovvXZK061v5nL7m9H67s5Y80ad+yj96Wvy2L0vhXS9C+Cqa3qNn5mvaxqbW+nM0jr5NvCP3z7QQDlyE+YHHbFek2vjLweP2f7i7Pw9tjpy+Io4W07+1rra0v2Zj52/duBxkbc45zXJftQ+JLbVPiXPpGnRpBpmhqbSOGM/IJWYyTEe/mOR/wGsjwT408ML4A1Dwj4rh1ZLKXUY9TgutHETyLIIzGVZZCBtwex61lGfMpWtra3ya/NK/r5mrjZxb8/xT/K6Ro/CXwLpfxS8aeILmLQZjpun2Ul/B4fsbpt0zBlVIRM+WAJbJbrxWz8VvhJFo/w7HiY+D7rwLfW9+lpJp8t611FcRupIkVmJZWBGCM45rjfBPjbQ/BviLxBbm1v9R8J6xay6dKrFI7wQswKuMZXeCoOOlUvF994FTRobLwrpurS3hm82bVNZkVZAmMCJIo2KYzyWOTxRLl9mkuy++/+VutvmEb87b/pW/z/AKseo6P8N9Dt/BPhzUbD4e3nxAt7yzWfUtTsdSlE1tMWIeFYYzwUAH3gc5rwjWo7WLV71LFLiKzWZxDHeACZUycB8cbgOuO9ekeD/FXw60dtG1SW38U6Nrlisfnpo08bQXToc797sHTd3UAgdqxZlHxj+JmsahLead4Zt76aW+lmv5gkUEe4ZGcfO3I4Ayxp1EpTXL5/1/w+q6ih7sXzeX9f18ja+NzG90D4bajMd95ceHY45ZT1fy5HVST3OOPwryqu9+MHi/TfE2t6bY6EZH0HQ7CPTLKaVdrzqmS0pHYsxJx6Yrgqzk+acpLq2/vZcU1GKfRL8goooqSgooooAKKnvLOawuHguI2ilU4KtUFABRRRQAUUUUAFFFFABRRRQAUUUUAFFFFABRRRQAVa0vVb3RL6G+068uLC9hOY7i1laORDjGVZSCOCenrVWintqgNXXfFWt+KJI5NZ1i/1eSMEI19dPOVB64LE4rKra1PwbrWj+H9M1y90+W30rUy4tLpsbZdpw2Ocj8cZ7Vi0PRtPcOl0FFFFIAq3Y6tfaWlylneXFol1EYJ1glZBLGcZR8H5lOBweOKqU+GJ55UijUvI7BVVRkkngCmrvRC9RlFa/irwlq/gnWJNK1yxk07UI1V2gkIJCsMg5BIPFZFIYUUUUAFFbvg/wTrHjzVDYaNafaZUQyyyMwSKGMdXkdiAqj1JrMutPkt9UmsEeO6ljmMAa2bekjBtuUI+8Ceh75p2enmK618irRWv4q8Jav4J1iTStcsZNO1CNVdoJCCQrDIOQSDxWRSGFFFFABRRW54P8H3/AI41j+y9Ma2+3NGzxRXM6w+cRj5ELEAuc8DPODTSb0Qm0tWYdFWdS0270fULixvreS0vLdzHLBMpV0YdQQarUhhRRRQAUUUUAFFFFAEkFxLazLLDI8UqnKvGxVh9CKlvNSu9QKm6uprkr086Qvj8zVaip5VfmtqWpyUXFPQKKKKogKKKKAHxyvDIskbtHIp3KynBBHQg0kkjzSNJIzO7HczMckk9STTaKVtbju7WCiiimIKKKKACiiigAooooAK3tN8feJ9H0sabYeI9WsdO+b/Q7a+ljh5OT8gYDknnisGindiFJLEk8mkoopDCp7G+udLvIbuzuJbS7hcPFPA5R42HRlYcgj1FQUU9tUBJcXEt5cSzzyvPPKxeSWRizOxOSSTyST3qOiikAUUUUAFFFFABRRRQAUUUUAFFFFAHSfaJby1fT9WtZRcxwPLbzOpWQbVZsHPVflP+enN11K6DrUUs13qCSOkdtMDJJMrkAxuAOpPU/rXLUAFFFFABRRRQAV6LP4U8IaHp/h6fV7vVzJqtklwy2nl4hJYgsSw+70wo54PPSvOq6vxxrllrGn+F4rSbznstLS2nGxl2SBmJXkc8EcjiuDExqTnTjFtJt3t6f5ndhpQhGpKSTaWl+91+lzSsfhpHJ421nSJrySaw0qF7qWezj3ySxgKVCL03Hco9uaZ4n8EWFv4YbXNJj1W0iguFt57XWIlWT5gSroygAjjBGKqfDXxTB4Z1S/F1c3FjDf2clob21z5luxIKyAAgnBXsc1a8Ya1by6ItovjHWPE9y8wYiZpUtUQDusmSz57jAFcL+tRxMYuTaXL0dn/NsrL5vTSx3x+qyoTnypN82l1dfy2u7u3knfqdNZyeDf8AhVN2TBrv9n/2rF5i+dD5vneUcEHZjbjPUZrjtC8O6R4iufE0ls17FZafp0t7arK6GQspUAOQuCOT0x2q14W1LRr7wTqHh7VdUOjO99HexXLW7zI2EKlSE5B5zUXg/V9J8N69rFlc3j3OkahZy6edQghYFVbGJAjYOMjp1qI050VWUObmvdb6rTbo3+JbqU6yw/Py8uz2utZbre3XsULHw3bXPgHU9bZ5hd2t5DbogI8sqykkkYznj1roZ/CnhDQ9P8PT6vd6uZNVskuGW08vEJLEFiWH3emFHPB56VT1rU9E0PwTL4f0nU31qe8vFup7oW7QxxqikKgDck5Oc9Ko+ONcstY0/wALxWk3nPZaWltONjLskDMSvI54I5HFa/vq01rJRcn0s7cum6017mNqNGDuouSj3uubn8nZ+72NfTfhzp48V+J9K1DUJDa6TZSXaXVrtO4LsIJBzn5W6AjnvVDW/DOh3HhE6/4fnv8Ay7e6W1ubfUQhYFlJV1KcY4xiq/gPXLLRYfEovJvJN5pE9rB8jNvkYrtXgHHQ8nijT9csoPhrq+lPNtv57+CaOHY3zIqsCc4wOo6mhxxMal+ZuzgttHf4nb8fIcZYacPhSvzvfVWV4q/rp5nKVu+EX8MpfSnxTDq01l5f7tdIlijk8zI6mRWG3GegznFYVFe4nZ3PDauepfFrRtK0/wAFeBr7QdQ16bR9Sju5IrHWrtJhbFJQh8tUVVXcck468Vq/8Kx8G+GfC3hvUPEn/CU3TaxZJetqGjxRGytFYkbGLKSzLjLAEVm/FCNrf4R/CeCVTHN9jvpfLbg7HuMq2PQjkVvfDfxVoXhe00a60/4pax4ZjjCPqGhXFnNcxySA5k8sIPLKt23DIzyTXQlHnkn3/wA/67mLb5U12/r+tjjPAXw+0jxT4i8QG51eYeGNDtZr+e9toMTzwowVQiN91m3DrwKs+KvA/hi68Anxd4PutVFnbXy2F5Y6yIzKjMhZJFeMAFTgjGM5rW8P/Ebww3xA8dm5hm0bwz4ot7i0SW3hDtZh3Do5jB5GV5UevFU/E+ueF/C/wvm8I+H9bk8TXWoakl/dXws5LaGJI0KrGqyfMWJOScYrHT2afWy9b82v/kvy+Zprzteb+62n4m9efDD4c6Fq3hbStW1LxEL7XtOs7lXtRA0VrJMMZfKgsu7+EDIA6nPHAP4f0TwT8QNX0bxX/aV1aadNLbeZo0kcUrSI+FbMisApAJx15FdD468a6NrPjjwJqFneedZ6Zpmm293J5Tr5ckR/eDBUE49QCD2zVbxQ3hn4hfFjxXqFx4ph0PSLm6luLW9msZ5hMC/A2Iu5eDn5gOlaStz+5beX3Jq3627kRvy+92j9/UZ8etBg0Dx1ElvqOqapHdafa3guNZuBPc/vIwwVnAGcDAHHavVfh3p+g+BvhPrWraF8RrTT7ybUbeCXXI9IuC8A8tm+z7TGW5PO5RjjrXF/HCbwX4smj1nR/G9vfXdpp1rZJp39m3UbTNGqoxDugUDGTz6Vy+m+KNMt/gfrPh+S526vca1BdxW/lsd0SxMrNuxtGCRwTmjmUHU5e+npzf5BZyUL/P15f8zZ03wzZfFbxp4wgufEdz4h137A95pmpRR+Ql9LEilkaN03cqCB937mea56PwTYWvwhm8V6hLcpqF1qQsNMt42URuqrumkcFSSBkKMEc+tZHw/8RXnhPxvomr2KNLdWt3G6xJ1kGcFP+BAlfxr0T9p7UrC18Z23hPRk8jSNAjdFhGMCeZzLL09Nyr/wGokkqaa3en3O9/u0LTbm0/X9Lffr95RWV9B/Zr32beTLrniBoLyReGkhhhDJGT/d3MWx61wfhGTw/Dq27xJHqkmniM7RpEsccwkyNpy6sMde2eleheBbeP4lfCu68DW1xDB4kstS/tTTILiQRi9Vo9kkKseN4wGAJ5/OuH8PeF9NutavtO8Sa9H4Ua03Iz3FpLcZlVtpj2xAkEc8njiqlf2l11St8opP8bkxtyWfd/i3b8Dovj1oMGgeOokt9R1TVI7rT7W8FxrNwJ7n95GGCs4AzgYA47V1V58MPhzoWreFtK1bUvEQvte06zuVe1EDRWskwxl8qCy7v4QMgDqc8VvjhN4L8WTR6zo/je3vru0061sk07+zbqNpmjVUYh3QKBjJ59KyvHXjXRtZ8ceBNQs7zzrPTNM023u5PKdfLkiP7wYKgnHqAQe2auKhztPbn/8AJfe/4BDcuVNb8v4+7/wSv4e+G+j2fxOvvDviPxHb6Y2m6ktqiyWc0wvsS7So2A7MgD73972rv/2jPEr+d4k0SL4iR3VpDeCJPCcOmSxLCquMIJNgT5MZ4POK818YeKNM1T44X3iC1ufN0iTWhdpceWwzF5obdtI3dO2M1l/FjXLLxN8SvEuq6bP9psLy+lmgm2Mm9C2QcMAR+IrDmbpQXrf8P6/I25f3kn6W/E7qP4Z+BPDsnhvR/E+p67/wkGt2sF15umpD9lsxP/qw4cbnI4LYI9q8z8YeG7jwT4s1XRJ5RJcaddPAZo+A21sBh6Z4Nes3HiDwF44vvCfiTWPE1xoV/pFla2t5pP8AZ0k7XBt+hikX5QHAH3sYrib+z1T45fFLWbnRLICbUbmW88uaRUWCHd952JwAoIyfyrWorztDvLbtpy/hf9SIP3by7L79b/19xs/HZzq1p4D8QT/NqOq6DE15N3mkjZo/Mb1YqoyfavKa9H+NmvabeapoehaPdpqGn+HdMj00Xsf3LiUEtK6f7JZiB9M15xWUmnOTW13+bLjdRin2X5BRRRUlBRRRQAUUUUAFFFFABRRRQAUUUUAFFFFABRRRQAUUUUAFFFFABRRRQAUUUUAFFFFABRRRQAUUUUAFFFFABRRRQAUUUUAFFFFABRRRQAUUUUAFFFFABRRRQAUUUUAFFFFABRRRQAUUUUAFFFFABXQ+D/H2t+Ari5n0S5htpbhQkhmtIbjIByMCRGx+GK56imm4u6E0nozY8VeLtZ8bas2p65qEuo3rKE8yTACqOiqoACgegAHNY9FFIYUUUUAFFFFABRRRQBc0fVrrQdWs9SsZFivLSVZ4ZGjVwrqcqdrAg4I7ik1XVLrXNUu9RvpmuL26laeaZgAXdiSx446ntVSigBc45HBpWdpGZmJZmOSxOST602igAooooAKKKKACnLIybgrFdwwcHqPSm0UAFFFFABRRRQAUUUUAFFFFABRRRQAUUUUAFFFFABRRRQAUUUUAFFFFABRRRQAUUUUAFFFFABRRRQAUUUUAFFFFABRRRQAUUUUAFFFFABRRRQAUUUUAf//Z;base64,/9j/4AAQSkZJRgABAQEAkACQAAD/2wBDAAMCAgMCAgMDAwMEAwMEBQgFBQQEBQoHBwYIDAoMDAsKCwsNDhIQDQ4RDgsLEBYQERMUFRUVDA8XGBYUGBIUFRT/2wBDAQMEBAUEBQkFBQkUDQsNFBQUFBQUFBQUFBQUFBQUFBQUFBQUFBQUFBQUFBQUFBQUFBQUFBQUFBQUFBQUFBQUFBT/wAARCABsAgEDASIAAhEBAxEB/8QAHwAAAQUBAQEBAQEAAAAAAAAAAAECAwQFBgcICQoL/8QAtRAAAgEDAwIEAwUFBAQAAAF9AQIDAAQRBRIhMUEGE1FhByJxFDKBkaEII0KxwRVS0fAkM2JyggkKFhcYGRolJicoKSo0NTY3ODk6Q0RFRkdISUpTVFVWV1hZWmNkZWZnaGlqc3R1dnd4eXqDhIWGh4iJipKTlJWWl5iZmqKjpKWmp6ipqrKztLW2t7i5usLDxMXGx8jJytLT1NXW19jZ2uHi4+Tl5ufo6erx8vP09fb3+Pn6/8QAHwEAAwEBAQEBAQEBAQAAAAAAAAECAwQFBgcICQoL/8QAtREAAgECBAQDBAcFBAQAAQJ3AAECAxEEBSExBhJBUQdhcRMiMoEIFEKRobHBCSMzUvAVYnLRChYkNOEl8RcYGRomJygpKjU2Nzg5OkNERUZHSElKU1RVVldYWVpjZGVmZ2hpanN0dXZ3eHl6goOEhYaHiImKkpOUlZaXmJmaoqOkpaanqKmqsrO0tba3uLm6wsPExcbHyMnK0tPU1dbX2Nna4uPk5ebn6Onq8vP09fb3+Pn6/9oADAMBAAIRAxEAPwD478Xf63S/+vCL/wBmrArf8Xf63S/+vCL/ANmqLwr4M1vxteyWmiafLfzRpvk2kKka+rOxCqPqRWdSpClFzqNJLq9ECMWiug8WeAdf8DyW663pslmtwCYZQ6yRyY67XQlSR6A1z9KnVp1oKdKSkn1TuhtOOjQUUUVqIKKKKACiiigAooooAKKK0vDvh3UPFmtWuk6Vb/atQumKww71TcQCTyxAHAPU1E5xpxc5uyWrb6AZtFOZTGxVhgqcGm1Y9tGFFaHh/Qb7xRrdlpOmwG4v7yVYYYx3Yn9B3J7AVufELwzofhG/h0vTNafXNQt96ajPHDstklBA2REnLgfMCxAB4xTtpcm+tjk6K2R4P1ckAWnJsf7SH7xP+Pf+/wBf06+1Y1SpJ7ME09gorc1rw/Houi6NcSSsb2/ja4aDAxHFnCH6tyaYPB+rkgC05Nj/AGkP3if8e/8Af6/p19qnnja9xcyMaiiirKCiiigAooooAKKnsbGfUruK2tk8yeQ4RcgZP1NRMpVipGCDg0uZXtfUrlly81tBtFWNQ0+fS7uS2uY/KnjxuXIOMgEcjjoRVehNSV1sEoyhJxkrNBRRU9nZzahdRW1unmTSNtRcgZP1NDairsUYuTSSu2QUU6SNopGRhhlOCPcU2mDutGFFFdh8I/BVt8RPiFpPh+8uJbS2vDJvmgALrtjZ+M8fw1UYuTsiJSUU2zj6K3fGEfhuHU0XwxNqs1iI/wB42rxRRy+Zk5wI2Ybcbe+c5qMeD9XJAFpybH+0h+8T/j3/AL/X9OvtWbkluyno7MxqK0dF8P6h4iuWg061a5kRd7YIVVX1LEgD8TS634d1Lw7NHFqNq1u0i7kOQyuPUMCQfwNHMr8t9RXV7GbRXWP8LfEsbFXsYUYdVa9gB/LfVDR/BOsa8spsbaOby5TCwa5iQ7x2AZhnr1HFT7SG/MieeNr3MKitvXPBmr+G4BNqNvHAhfy/luIpDuwTghWJHQ00eD9XJAFpybH+0h+8T/j3/v8AX9OvtT54tXuPmXcxqKKKsoKKKu6bo93rH2r7JD5v2aBrmX5gu2Ncbm5POMjgc0m0tWBSoq9qGi3ml/Y/tUPlfa4VuIfmU742ztPB46Hg81uzfC7xPBvDaaGdBkxx3ETv/wB8qxJ/Kpc4x3ZPNHucpRWlo/h3UfEF09tYWj3EsY3OMhQg9WJIA/E0mt+HtR8O3CQ6jatbO67kJIZWHqGBIP4GnzRvy31HdXsZ1FdFH8PfEMlgLxdLlMJTzQNy+YV/vBM7sfhUGh+DdW8SQtLp9vHMiv5Z3XEUZ3YBwAzAnqKXtIa67C5o2vcxKK29c8Gav4bgE2o28cCF/L+W4ikO7BOCFYkdDTR4P1ckAWnJsf7SH7xP+Pf+/wBf06+1HPFq9w5l3MaitzwjH4ck1N18Ty6pDYeUdjaTFHJL5mRjIkZRtxu75zitX4veCbX4d/EDU9Asrma7trURFJrgAO2+JH5A4/irVqyT7jTu7HHUV3nin4eWEPhOHxX4Y1OTV9D81ba8juIhHc2ExGQsigkFW5w44PTrXB0mnFtME7q6CiiikMKKKKAN/wAXf63S/wDrwi/9mrvvB+ky6x8JdM0a2nNmde8Wx2NzMo5aMQptB9QC5bHrXA+Lv9bpf/XhF/7NXe/DWa71zwPFpWhT248U6Prqa1Z2dxIqfak8tVKpuIDMrICVzyCa8TNrqhGSdrSTu9lvZvyTs/Lcun8WnZ/ky3rlnpS/CPxNpWjpqLw6d4igiiS+lSVjIVlQum1F279o+XB6Dk9u58M+Cre88Qaf4c1Xw34J0nTZkWCfTptQjl1pCU+95gIfzM84AxjjHevN/iB8Q9S0mTU9Ak8KWnha/kv4NTuEhkZ3FwoZ9x3E8NvUhRgDHTk1Pb/HLRbfxhb+Kx4Gt/8AhIfOE9xcjUZPLdiMOyRlSEZueTuxk4Gea+aqYTHVqDdGLfNzNNSTd3GNnfnS1abuuZrpvr1OUYu3b/Nv8rEfgO20zQvAPxD1G60ex1m60u6s47U38IcKTK6k+uOhKggHAByOKr+PIdO8ReAfCniuHR7HRtQubyewu4dNh8qCXZtKOIxwpwSDjrWh8O9atrf4Y/ErUL3TY9Rs5buwaaykkZQytM/AdeQRnIYdwOO1cn4w+IFv4ns9D0bStGj0DQ9MdnitFuGnd5HYF3eRgCTwMccV6NKnWqY6coxfuz1lfS3so+7a/VtPa3W+hE3FR02s/wA3Y9d1S48PD48T+Bf+EN0IaLezpbSypaBbhWeFTvjcH93gkcKAOD3Oa+ddUsxp+p3dqG3CCZ4gx77WIz+le+fFD4maX4J+MWuXqeFLe88SWbILTVHu3VEJhXazwgbXZQ2AcjoO4zXh/h/W4dL8TWeq6hYRazDFOJprO4OEn5yVbg9fofoarJYVoUFW5HZ04aNp80rNtrV2vdLW3poFZq8l5/cZNfQXjjxP4X8F/E5NCuvB2hHw/JDa/wBoTGyzOA8KFniZcbMAg4UcnJ6mvFPFms2viLxFf6jZaXBotrcSb47C2OY4RgcDgfXoBz0FX/iL4z/4T7xVPrP2P7B5sMMXkeb5mPLiVM7sDrtz04zXo4jCyxtWk6iajyyvZ2tJ8ltnq1Z2eqTXoZxahzWfp952Hguz0PRfDfjrxTFp1trw0y5gtdMj1SIvDslkceY8fG47VHB6E1H44ttN8Q+BfCniyHSLHR7+6vZ7G7g06LyreXYVKuI84U4JBx1rnPAvj6PwpZ6tpmoaTHrmh6qsYurGSZoW3ISyOki5KsCT2Oad42+IEXiTTdK0jStIj0DQ9MMjwWiTtO5kcgu7yMAWPAxwMVy/VcSsbz2dua/NdW5OS3La9782vw263uPmTg1tv/wPu0+49Cu/DulL+1dHpA0yzGk/b40+wi3TyNphUkeXjbjPOMVD8AfEp0r4u2eiR6VpUkNxqMxF1NZI1zCAjfLHJ1QfL0HqfWs1fjtaf2pH4jfwlayeNUhEY1k3b+UXCbBKbfG0vt98Z5xXA+DvF134N8Xaf4gt1W4urOfztsucSZyGB+oJ59641gMTiMJUo14WfsowV2neSUve0b0u1q7Puipzjdyj1d/T+rml4s8aSeM5oLN9F0PSQlwcS6VpyWztk4+Yr94e1e86h4N8OaL4sbw3eW/gK28KwgW80l1fxx6uvyDMpcsGV9xzjpjjFfP/AIw8Q+HdY8iTQfDUvh64WRnldtSa5D56AAoNuDnua6i9+MGjateHWdS8D2Go+KGjCyX09y7W0rhNoke2I2k4A4zjPOKrGYPEVqdJYenKEUpaJxum7Wfx276ptq+xXPHnk299vx8vQt/s728dp8ZNsMizfZbW/MEy85KwSBWH868lJLEk8mui8A+NLnwD4003xDbRJNJaylngPyrIjAq6ewKsR7Zq58RrDwrFqEF/4S1Oa6sL7fK2n3UBjmsDkfumb7rjk4Zew5r7J/DF9lb83+N/w9Dj+1Lz1/4Hy/UYvj1wyn7J93RjpH+t7Y/1nT/x39axvDOiv4i16x05OPtEoVm/ur1Y/gAT+FZld14F02/stG1fVLbTb+5vJrc21iYLOV1O5tsjhwpX5QCOvXNY8vKm4LX+v1ZnJcsbR/roYnjnWk13xNeTwcWkZEFuo6CJBtXH4DP41dXx64ZT9k+7ox0j/W9sf6zp/wCO/rWRe+Fdb021e5u9Hv7W3TG6aa1dEXJwMkjA5IH41lUeySioSWxfLF2t0Ciul+HOg23iTxhYWd6M6eC010SxUCJFLNkjkDAxn3rH1qazuNWvJNPt/sli0rGCHczbEz8oJYkk496hVk6rpJapX8tf+GOj2T9l7a+l7ee1391195SrqfDfkQaK9xJZ291J9vhiHnxhsKwORXLVqWOtfY9NNp5O/N1Hc792PugjbjHfPWoxEJVIcse6OjB1YUavPPs/vs7fibPiO2tW0i4MVpDbPa6m9ojRLgsm0n5j3OR1rcn0ixsdSGnyJoiaamEkaadVuugy2Scg55xXHah4g+3WV3b+R5fn3zXu7fnbkEbenPXr+lW5PFVrdSi7udHhudR2gGZ5D5bkDAZo+hP415ssPX5UtevXvaz39f8AI92OMwvtJS06dHaycrrSL3XL0tpuWfA98LHxNBZRw208b3BAuHiDSAAEZVu3Tt61k6xrTak/lmzs7fZITutoBGx+pHWqul6lJpepwXsaqZIn3hSMA+oqfVr+wvNrWenNZSbizk3BkDZ7AEDFdvseXEe05b3S189Ty3iebCOip2s3prqnbRaP8WjstSvLa58dPpc+nWs0NwyRySumZcmMYIbtjjpXPaPa2+n2Wt30lvHeS2TJFEk43JlmILEd+BUE3ibzvFS619mxtdH8jzP7qgY3Y9vSotO8QCzkvkmtVurO8OZbdnKng5Uhh0IJrlhh6lOmopdI3V+qeq37adjvqYyhVrucmvinZ22TXuvbo9e/kW9Zjg1DQbHU0tYbS4ed7eRbddqNgAg7ex5rfguLbTfG1ppEOn2qwwSIgn2fvi20HcW789q5PV9cS/tbe0tbVbKygLMsQcuSx6sWPWtSPxpbjUbfUpdJjk1KPbvn84gPgYztxgHHfmlUoVZU7crektL7X269F62HSxVCNVy50neF3Z62vzW0vq7bpXsR6D9i/tTVPtH2X7V832b7d/qd27nd2zjpmm+IreaNrF7rSraLcx/e2DAR3C5HA25AP+PSs6x1W3huLprqwjvIbg5KMxVkOc5VgOP61LqXiBLi0trSxtf7PtoJDMoEpdy5x827j07V0xpzjiIztp/wOmv4NNHHKtRlhZwclfW1r3evXS23VNNbevpvk+GP+iKeIv8AwcXH/wAj1Q/Zt2/8L40DZE0C+Zc4iY5KDyJeCe+K5f8A4XB48/6HbxF/4Np//i60vgb4r07wr8WtF1vXb1rWxhaZp7pkeUgtC6gkKCxyzDt3r14tOa+fkfPTT9nJHBTf66T/AHj/ADrqV8euGU/ZPu6MdI/1vbH+s6f+O/rVHxlpGkaPqiRaL4gi8R2rx+Y11Day24Rix+TbIATwAc9Oawa5nBSVpG80pSudl4dwPh34n+fyg9xaIz/7O5uvqKZ4m0l7HwtpclvriavpX2iRIVWBo/LfALfeAPPFZvhvxMui299Z3VimpabehRNbtIYzlTlWVh0IzS+IvFCaxZ2VhZ2K6bptnuaO3WQyMWY/MzMep49Ky5ZKpfpe/wCCXr0MEnzf12Ou+I6eFz4v1I302rrffJvW3iiMWfLXGCWB6Y7VxPhL/katG/6/Yf8A0YtdDrPjXw9r2pTX974Xme5mxvZdTKg4AHTy/QVy2m6gum61a3yQ5S3uFnWEv2VgwXdj2xnFKjGUYKMk9vIUYv2fL1t+hb8Z/wDI363/ANfs3/oZrTXx64ZT9k+7ox0j/W9sf6zp/wCO/rWBrWo/2vrF9feX5X2md5vL3btu5icZxz1qlVxppwUZLZfobOKbuworpfhzoNt4k8YWFnejOngtNdEsVAiRSzZI5AwMZ96x9ams7jVryTT7f7JYtKxgh3M2xM/KCWJJOPekqydV0ktUr+Wv/DG/sn7L219L289rv7rr7ylWt4f15tBOokQ+d9sspLM/Nt278fN0OcY6Vk0Vs0pKzMGr7m1q+vNrsmkKYfK+xWsVmPm3btpPzdBjr0r0DxRDoel/EmfV7vXzFPbzxzNYwWshkJVVIXfgLzj1715PG3lyK2M7TmtTxVr3/CTeILzU/I+zfaGDeVv37cKB1wM9PSsJU7yVtFr+NjJwu7dLHTx6j/aXg/xtfInkfar6CQovZWkdttU9YYt8NPDbE7il3cqu7nAypx9M1l+G/EyaLb31ld2Kalpt6F863aQxncpyrKw6EZp+veKhqcOn2tjZLpdhYFmhhWQyNvYglmY9TwO1SqbjOyWl0/uVgs+bbq/yOoNzbeNPEUWr6Nqz6V4kkC7bO5T5GkVNuI5BkYIHAYd65Hw0JF8ZaUJQRKL+LeCMEN5gzW4vxCsV1Aat/wAI5b/24vzi6Fw4i8zGN/ldM9+vWuY0/VXs9cttSkXz5Irlbhlzt3kMGIzjjNOnGUdLWVv6+XqJRfK1boWvGf8AyN+t/wDX7N/6Ga018euGU/ZPu6MdI/1vbH+s6f8Ajv61ga1qP9r6xfX3l+V9pneby927buYnGcc9apVcaacFGS2X6Gzim7scn3l+teo/tO/8lr17/ctf/SaKuI8IaPpGtao8Os6/F4ctVjLrdTWstwGYEAJtjBIyCTnpxXSfHnxNpfjD4p6xq2i3f27TZlgWK48t49+2FFPyuAw5U9RXVL4IrzYl8b9P1Rq/Cf8Ae/DP4rQvzD/ZdvLtPTetwu0/Xk15VXqGt+JPDvgv4e3nhTwzfya3qGsvFLq+qmEwxKkZ3JbxK3Jw3JY9cce3l9KfxW7K35v9bfIIfC33d/wS/QKKKKgoKKKKAN/xd/rdL/68Iv8A2asCt/xd/rdL/wCvCL/2asCgAoqxJYXMdnFdvbzJaysUjnZCEdh1AboSKr0k09htNbhRTlVpGVVUszHAUDJJ9K0dS8M6xo1ulxqGlX1jA7bVlubZ41Y4zgFgATgH8qlzjFpN6spRlJNpbGZRRRVkBRRRQAUUUUAFFXbjRdQtNNtNRnsLmHT7xnW2u5IWWKYoQHCORhipIzg8Z5qGxsbjVL2CztIXuLq4kWKKGMZZ2JwAB6k0R97SOoP3dWQUV1Xj3wIfAF1bWF1q1lfavtY3tnZMX+xMMYjd8bS/JyFzjFT+LvhtceG9FsddstQtde8P3jeUmoWW4COXGTFKjANG+OcHqOQadtG+wr6pHHUUUUhhRRRQAUUUUAFFFFABRRRQAUUUUAFFFFABRRRQAUUUUAFFFFABRRRQAUUUUAFFFFABRRRQAUUUUAFFFFABRRRQAUUUUAFFFFABRRRQAUUUUAFFFFABRRRQAUUUUAFFFFAHY3194t061e4uH8uFMbmxCcZOBwPc1p6Tp2m3Vnr/AIl1y1fVFsoLNVs1lMIlllRRuZl5AGCcD1rlbLwzMZJnvybG0tziWVx39F9Sa3tE8YaPDHrel6la3jaJqMcCq1qV8+JoQAjANwc85Brjxim6LVO97rbe11e3yudeEcFWTqWtrvteztfyva5o+MJLK++GXhl9NtWsYJb+5xbvIZPLbCAgMeSO/PPOOetdh/wp20j1ePQz4UvpbMqI38RC8IYOVyXEX3dobjGM4rzrxR4q0a88KaRo2jQXsIsLmabzLzYS4fGCSp65B4xgDHJq/q3izwf4i1J9c1PTNUm1WVAZrGOVFtZJAoXO8HeoOAcAfjXhSo4n2aVPmirz7t3b937S6X3bXc92NbD87dTlbtDslpfm+y122V+3m/4T2Oi23jyxt9RkvjqsN/st1gjQwMV7uS24cjsD2rN+IGq6TfSTJZanr15dLdMZI9T2eSv3slcOTnPTjpmsnwVr1v4b8YaZqtzHIba1nErxwgFsc8DJH6msnULhbq/uZ0BCSSs4DdcEk16iw0ni3Vk3ay9L3Z5rxMVhXSilrJ972sV69d+Cvhfwpqngn4i694o0mbVl0G1s7i2jguXgbc8+0rlTjDcKSQcAkjmvIq77wL4+0/wx8O/iFoN1DcyXniG2tIbV4VUxo0U4kYyEsCBjpgHn0roxkZyouNO97x23tzK/4XOLDuCqxc9jV8dWvgLxN4L0PXPClkvhfXJL9tPvfD5v3uhs2hkuUL/OFJ+U54z06c+myeAPhha/F+L4QyeFr6S9ZksH8V/2pIJxctEG8wQY8vZuIG3Gcc5r5ihma3mSVDh0YMp9wc19En46fDqfx/F8TZ9D8QnxyirOdNSWH+zGu1jCCTf/AKwLwG246968zF0K1OKjTc5K0tm7qTty3d7tL3t2136HXRqwm25KKl7u6Vra82lrX+HZdH135P4c+BfDul+G/HvinxXp8viC38MzwWMOlQ3LWyXM0sjJueRfmCqEJwOTml8f+HfCI8G+DPiDoOgSaZp1/fTWeoeHpr2SaItCVb5Jj+8CupIPOR2rO+HfxP0ax0nxf4e8ZWV9d6H4leK4nuNJZFube4idnV0V/lYEsQQSKj+JvxD8P6t4R8O+DvCFlqMHh/R5Z7prrV2j+1XU8uNzMseVVQFAABPvVcmJ+spyvuuvu8vJrpe1+a/S+3QfNQ9m+W1rS6a3u+Wz32t1to/n654y8eeBbf4E/Dm8n+GFpdabcXeprbaadavFW1ZZIw7CQNufeSDhjxjivL/2dzb3HxkhvYbZbdLe3vbu2g3FxEywSFBk8nbxyeeKn0Hx94D174X6F4T8bReIrWXQrq6ntLrQUgkEqTlWZZFlZcEFeCM8VyHwz8awfD34iafrawyXWnQyvHLC2A8lu6sjD03bWJ9MiurLKP1eVSDuneWrba1bs9W+6u9+5z4yp7alB6OyV0kk9N1t/wAA5KaaS4mklldpJZGLu7HJYk5JJ9a9S+FrG8+FfxSsJjvtlsLa8VD0WVJwAw9DhiK5n4jeD9N8MX8Nxomu2eu6Jf75LSS3k/fRICPkmjIyjjcOD1611moTaX8Lfhnq+gQataaz4m8RmEXf9nyeZBY20bbwhk6NIzYyB0A/P1o6Rl6NfN7fc9fkcEtZRt3T+Sep514UudIs/EmnTa/aTX+jJMGu7a3fZJJH3CnIwfxH1HWneLrrRrzxLqM/h6zn0/RZJSbW1uX3yRp6E5Pv3P1PWm+FLjR7TxJp02v2k99oqTA3dvbPskkj7hTkc/iPqOtO8XXOjXniXUZvD1pcWGiPKTaW10++SNPRjk+/c/U9aHsvn+n9L5j6v+u/9fcY9FFFSMKKKKACiiigAooooAKKKKACiiigAooooAKKKKACiiigAooooAKKKKACiiigAooooAKKKKACiiigAooooAKKKKACiiigAooooAKKKKACiiigAooooAKKKKACiiigDpvF8lxcf2Wpdnj+xxuQW43HOT9elc99mk/u/qK6zxNYzxRadI0bBEtY4mP91hnIP51g0AUfs0n939RR9mk/u/qKvUUAUfs0n939RR9mk/u/qKvUUAUfs0n939RR9mk/u/qKvUUAUfs0n939RR9mk/u/qKvUUAUfs0n939RR9mk/u/qKvUUAUfs0n939RR9mk/u/qKvUUAUfs0n939RR9mk/u/qKvUUAUfs0n939RR9mk/u/qKvUUAUfs0n939RR9mk/u/qKvUUAUfs0n939RR9mk/u/qKvUUAUfs0n939RR9mk/u/qKvUUAUfs0n939RR9mk/u/qKvUUAUfs0n939RR9mk/u/qKvUUAUfs0n939RR9mk/u/qKvUUAUfs0n939RR9mk/u/qKvUUAUfs0n939RR9mk/u/qKvUUAUfs0n939RR9mk/u/qKvUUAUfs0n939RR9mk/u/qKvUUAUfs0n939RR9mk/u/qKvUUANt/D9/dQrLFb7kbod6jvj1ouPD9/awtLLb7UXqd6nvj1rtPDsbzabbIis7sSqqoySSxwAK6z4sfCvxJ8N/DenXHiKx/s1tVRpILeRwZgqsmS6j7udw4PPXIFYzxFCnUhRnNKc78qvq7K7sutluckalSUmktFv5a2PE/s0n939RV628N6jeQrNDb7426NvUd8dzRXceG/+QLb/wDAv/QjSrVHTjdHbFXOM/4RLVv+fT/yIn+NH/CJat/z6f8AkRP8a9Gork+sz7IvlR5z/wAIlq3/AD6f+RE/xo/4RLVv+fT/AMiJ/jXo1FH1mfZByo85/wCES1b/AJ9P/Iif40f8Ilq3/Pp/5ET/ABr0aij6zPsg5Uec/wDCJat/z6f+RE/xo/4RLVv+fT/yIn+NejUUfWZ9kHKjzn/hEtW/59P/ACIn+NRXPhvUbOFpprfZGvVt6nvjsa9LrM8Sf8gW4/4D/wChCqjiJyklYTijzn7NJ/d/UVct/D9/dQrLFb7kbod6jvj1p1eufCT4W+IviZo18PDtmuoT6bD58tssgWVkLsPkB+8eOnX0zXTWxFHC03WxE1GK3bdkru2/qc83PRU1ds8huPD9/awtLLb7UXqd6nvj1qn9mk/u/qK+sv2ZfC+na58RNV07XtItdQih02UtaajbLKqSLNEMlHBwwyR0yMmvluujToTSlKcbyKP2aT+7+oo+zSf3f1FXqKRsUfs0n939RR9mk/u/qKvUUAUfs0n939RR9mk/u/qKvUUAUfs0n939RRV6igC5Z3WraPJNPdWdxJaynNwlxGwR8nGSSOD70mqRQw3jC3DLAyJIiuckBlDY/Wrdz4c8TXEXlyvNPGwBZGugR64ILVX1iF7a+EMg2yRwwowznBEag0AUaKKKACiiigArq/BnhrTNa0vXr3VLi5t4tNijlBtgpLbnwRgjkkcDkcnmuUrqPDGtWen+F/FVpcTeXcX0EKW6bWO9llDEZAwOPXFceL9p7K1O97x27cyv+Fzrwns/bL2lra7+j/Uf4h8PaP8A8I/Z6zoVzdNBLcG0ltb4p5qSBdwIK4BUj2rp/wDhVulR6smgSNrX9rMAh1BLdTZLKVzjpuK5ON2a8uRjG6sOqnNetap440/WtQfVz401zTYJUDvotoZVkRwoBVHz5YBIzk+vSvMxccVS5YU5tr3tbNu+nKnZPz3sn1PTwssNVcpVIJP3dLpLrzPVq3TbXexk/B+HSrXxxYwX0d9/bEd0yQmF0EAwpB3gjcec9D6VzfiQ+HJJFXR49USczESm+kjZcf7O1Qc59aPBfiCHQfGmnatdeZJBDPvkOdz4OQT7nnPvTPEmm6RYSJPpeupq5kkYtGLWSExjqCdwwfwrdU3HGOcnLWK72uua67L5mLqKWDdOFtJPe17aWfd/I27jwNYQ/FZPDIluDYNcRxeYWXzcMgY87cZyfSoPDfhPStQh8TT6jc3UFvpIVlMG0swMhUggjkkcDkcnniujPiXwtceMIvGcmqTpdKFmbRxasXMyoF2iT7u3IzmuW0HxBaQ6B4wiupfKutSii8iMKx3sJdzDIGBgeuK5YzxNSml7yaUE9OvN71tNdN3sdUoYWNVv3XFyk1r9m2l9dNej1E8QeH9GGg2Ws6Hc3RtpLg2k1rfFPNjcLuBBXgqR7V0138P/AArF4yl8Lpf6ouoyELBOyxtCjFAwV+AW+ox1A968wQ7XUnpmvQ7zxZpUvxnj11brOlLcRSG48t/uiNQTtxu6g9q2xFPEQ92E5O0ZteunKn36+pz0alCSc5winzQXy97ma7dL9jz2eFreaSJ+HjYq31BxTKs6lMlxqN1LGd0byuynGMgkkVWr24a2ueRUSUmo7HuurfCn4daR4+j8H3Gsa9FqV4sIgu8QG3tnkjVlWXgFsk5yu3AYDnBNcr4H+FdrqS+J77W31CfT9BmW1e30OIS3FzMzsoCEggKNpJYg8Vn/ABt8Tab4u+I1/qmk3P2uxlhtkSXy2TJSBEYYYA8MpHTtWt8I/H1poPh/xF4futfv/Cj6m0E1vrWniRmheMtlHEZDlWDY49OldC5XJ6d/z/yv6nN7yhH5X+7X8fuKvxC+Gth4f0/w/rWknVIdK1aWSA2msQiO7t5EKhgcABgQwIIArsr74O+AV+JN34Ct9W15dcdtlpdSLC1sjmMOqSYAZv8AeGMZxjjNcV8RPElnfSaLbQ+M9d8ZSWztJc3mpySfZlJIwIY5MuDgck9eMCulm+Ifh9v2nV8WjUM+HxepN9s8mT7ohCk7Nu7rx0ojyOSj0b/DT9b2FLmUW1ul/mcv4D8B6PfaL4k1/wAU3N9BpGitFA0GmBPtE80jFVVS4KgDaSSRXSfEi001/g54Bi0GW5nsJtQv/IF4qrMpLRja+35cg9xwRg8dKyvBXibw7eaD4y8Ma7qcmjWmsXEV3a6mts86I8TsQrovzYYN26U/x14k8N23w+8HaH4f1WTVrnSL26mnkltnh3b2RlYAj7pwQBknAyQM4pR5XFc2zUfzV/1Klfn06N+mzt/X/AOp/wCFB+H18RDwiz+Jv+EhK+X/AGwLNf7LE+zdtxjfsz8u7d17VxHw+8AaJrWh+MtR8RXd9ZJ4fWB8WIRi+6Uoy4Yck4wDkAE5ORxXoev/ABS0bxFrVx4i/wCFoeKtJs7hPNbwzp7XEc0cmwAxxy7vKC7hnOOh6V5r4R8Vadp/w/8AiFp97dMmoavHaC0jdWdpmSfe+WAwCBzlsZodk/k/+AEbtL1X56h448IeG4PCOl+J/Ct9fSWFzcvZT2OqmM3EEqqGBymAVI9uP5cDU9jZT6leW9pbRma5uJFiijXqzMcAD6k13/8Awzv8R/8AoU7380/+KqOVy1S0L5lHRvU6H9l9vDQ+I2ii9i1VvEH2iT7K9vJELQJ5Lf6xSpYn73Qjt71w3i9fB11JbxeFLfXY7x5isv8Aa80DoQeBt8tFIOfWrPwx16P4Z/FbSr/WoZYk026eK7jUbnj4aNuO5BP6VW8WaR4f8O3Vpd6B4qi8SM0xdo1sJrYxAEFc+YADn29K0vGSjfb/AIYizjKVt9P1PTv+FB+H18RDwiz+Jv8AhISvl/2wLNf7LE+zdtxjfsz8u7d17VzHw/8Ahr4c1Xw7/aHiS41WCY6/Hogj04x4BdCQx3qejDk56DGOcjs9f+KWjeItauPEX/C0PFWk2dwnmt4Z09riOaOTYAY45d3lBdwznHQ9K4fwf420nT/BFpZXt6yXy+LbXVJEdHdvs6IQ8hYLgkE9Op9KqKjze95f+lL9L/Ij3uXT+tH+tg8c/DPQtD8OW+o6RfahPJb61LoV+t4qKryoobzIgvRSM8MSa6i++D/gCP4lXfgOHVteXW5G8u0upFha2jkMYdUkwAzZ7lduM4xxmue8UeNNG1jwrf6fZ3nnXlx4zn1SOPynXdbOm1ZMkADJ7E59q9E8ZXvgvwn8ftV8Wal4guItQ02dZf7DWxdnnlEKhNkw+QKcg/Ngjke9KKjo5bPf/wABje3zb+ehUnLVR31t97t+Bxv7O/jnxLofxI0HwpFqk0OjyXzrPYrt2M207u2eqj8q8j1n/kMX3b/SJP8A0I10fw78ZweF/idpPiS+jZreC98+ZIhlgrE7seuNx/KrvibS/Cei6jDq+l+KofE4N+ssmmf2fPbt5W4sdzOu09ApAP8AFWavOMHN97/+S/huXpGU+Vdrf+Tf8A6/w18I/B/iu7s9G0658T3GoXcX7rXRYBNMMuzdjayiTZn5dxI57YpP2Z4/Dtr8TtKg1GLVD4jS7lW2e3liFoFETA7wV3E/f6Edveu1s/jB4fj+JVr4lk+J2tHQ5J948Ora3CRWyFcbHAOwov8AsBicD614x8NfGVj4P+LWm+ILve+nQXkjyNGuW2OGXcB7Bs49q1TSnFrrf5bWMZJypyXlp+JU8Xr4OupLeLwpb67HePMVl/teaB0IPA2+WikHPrXp3/Cg/D6+Ih4RZ/E3/CQlfL/tgWa/2WJ9m7bjG/Zn5d27r2rzHxZpHh/w7dWl3oHiqLxIzTF2jWwmtjEAQVz5gAOfb0r1rX/ilo3iLWrjxF/wtDxVpNncJ5reGdPa4jmjk2AGOOXd5QXcM5x0PSojy8vvfP7un/Aua1HJy935ff1/4Jq/sVeG7fUPjJo8WoQrKdNjubkRtyPNj3BT+DHI9wK8t+KXirUvGmpaxrOrXMl1e3U29ndido3jCj0UDgDsBXY/swfEi1+G/wARtF13UzI2nSGa3u5Dl3WOQsC57nBwx7nBqL9or4Tv8M5PtNpqFpq/h3WC8+lX1pMHEkQdeGx0I3qPQ/oPi6Uo0eIKn1jR1KUFTfflc3OKffVNrqtegL3qMlDpO79NEvxv9/mcMvi6wDIfP6eHDp33G/12Pu9P16e9WfCVhHN4Nku2LCSF1VQCMHc7Zz+VecV6b4Furb/hF5LG6ka3S4wyzBSwVlduoHODmvexEFCF490VGPIvd8v0L02nxx6TY3QZvMnkdGGRgAYxjj3rWk0DS11iTS1nuhck7Y5CFKA4yAe5/DFUNSu7b7LYWNrK1wkDM7TFSoZmI4APOBitrUJNPsfFM99NdOJYX3fZhGSWbaMYbpj615rb/P8AQUpS876/noceylGKnqDg0sf+sX6iprXyLi+T7W7RQO+ZGQZIHtRdrbxXzi2kaS2V/kdxgkVqt1c6W9bHT6rp2n6l4lubVpp0vZW+VgB5YbbkA9zVLwb9kXWbdZln+1iRghRl2AbT1GM+tI2rWv8AwmYv/N/0XzQ3mbT0246YzWfouoR6frkF1JkxLISdo5wcjP61ik+W3kc3LL2bj5f5iyR6bc3VtFaLdJvlCuZmU8EgcYHWtX+wNL+0CPzbvH2s2Z+797PB+nr/AErLaGysb20lhv1ukEoZ8RMu0Ag55HP4VoHVrT7WX835f7V+052n/V5+90/TrTd9LFT5vs3HeGb+8sdeh05bhvs4nZWQdG6g/wAq4rxV/wAgu8/3h/6GK6S01KK08SC9OXhFwz/KOSpJ5/I1keNrWzi0O5ktr9bpmdf3flMpA3DnJGK0pfHFvyK+GT03X+ZVXxdYBkPn9PDh077jf67H3en69PepPh74k1HwjNpmsaTdSWeoWkhliljYgghjwfUHoR0IOK89r2/9n/4Tz/FSYxvf2uk6Lpy/aNT1C7lCLBCXIJGepODjt6mu3GVMLg8NUrYp/u7a310fS3W97W67HJUptpQpq7bX5H1ncaTa6f8AtV6neWsKwHVfC8d/MiDA8xpo1Y/jsBPuSa/N2v0C8J/ETT/iV+05r1/pBL6RZ6F9gtJSCPMjjmi+fB7Fi2PbFfn7XBw/SrUMowtLEJqahFNPdabPzWx3VZKVWbTvr+PX8Qooor6AzCiiigAooooAKKKKANbxI6r/AGYCwB+wxdT9ax/NT++v51e8Xf63S/8Arwi/9mrAoA0fNT++v50ean99fzrOooA0fNT++v50ean99fzrOooA0fNT++v50ean99fzrOooA0fNT++v50ean99fzrOooA0fNT++v50ean99fzrOooA0fNT++v50ean99fzrOooA0fNT++v50ean99fzrOooA0fNT++v50ean99fzrOooA0fNT++v50ean99fzrOooA0fNT++v50ean99fzrOooA0fNT++v50ean99fzrOooA0fNT++v50ean99fzrOooA0fNT++v50ean99fzrOooA0fNT++v50ean99fzrOooA0fNT++v50ean99fzrOooA047gRSK6yKGU5ByOorQ8R+KL7xbrV1q+rXa3eoXTBpptqpuIAA4UADgDoK5yigDR81P76/nR5qf31/Os6igDR81P76/nR5qf31/Os6igDR81P76/nR5qf31/Os6igDu9E1K0h0uFHuoUYbsq0gB+8fel1zVbabSZYkvIpOQVjWUHnIyQM+36VwdFO5zewXNzXNHzU/vr+ddj4f1Szh0mBJLuCNxuyrSKCPmPvXntFY1KaqKzOpOx6mNasFIIvrbP/XVf8alu/ElrfXDzz6hbPK5yzeYgz+VeT0Vz/VY9yubqepf2xYf8/1t/wB/V/xo/tiw/wCf62/7+r/jXltFH1Vdx8x6l/bFh/z/AFt/39X/ABo/tiw/5/rb/v6v+NeW0UfVV3DmPUv7YsP+f62/7+r/AI0f2xYf8/1t/wB/V/xry2ij6qu4cx6l/bFh/wA/1t/39X/Gs/xBqlnNpM6R3cEjnbhVkUk/MPevPaKqOHUWncXMaPmp/fX866vQ9UtoNJiia8ijzksjSgfxHGRn3/WuDorsOepT9orM97+FnxptPhDrl5rSWkOtNLaNai2W8EJ+aSNt2drdNnTHevFfNT++v51nUUPUdOHs1Y0fNT++v50ean99fzrOopGho+an99fzo81P76/nWdRQBo+an99fzo81P76/nWdRQBo+an99fzorOooA/9k=;" vertex="1" parent="psAbm342U6_RFJnEFFYR-3">
          <mxGeometry x="150" width="520" height="76" as="geometry" />
        </mxCell>
        <mxCell id="psAbm342U6_RFJnEFFYR-6" value="" style="edgeStyle=orthogonalEdgeStyle;rounded=0;orthogonalLoop=1;jettySize=auto;html=1;fontSize=17;" edge="1" parent="psAbm342U6_RFJnEFFYR-3" source="psAbm342U6_RFJnEFFYR-2" target="psAbm342U6_RFJnEFFYR-1">
          <mxGeometry relative="1" as="geometry" />
        </mxCell>
        <mxCell id="psAbm342U6_RFJnEFFYR-2" value="&lt;font style=&quot;font-size: 17px&quot;&gt;&lt;b&gt;启动web服务&lt;/b&gt;&lt;/font&gt;" style="rounded=0;whiteSpace=wrap;html=1;" vertex="1" parent="psAbm342U6_RFJnEFFYR-3">
          <mxGeometry y="8" width="120" height="60" as="geometry" />
        </mxCell>
        <mxCell id="psAbm342U6_RFJnEFFYR-4" value="" style="shape=image;imageAspect=0;aspect=fixed;verticalLabelPosition=bottom;verticalAlign=top;fontSize=17;image=data:image/jpeg,/9j/4AAQSkZJRgABAQEAkACQAAD/2wBDAAMCAgMCAgMDAwMEAwMEBQgFBQQEBQoHBwYIDAoMDAsKCwsNDhIQDQ4RDgsLEBYQERMUFRUVDA8XGBYUGBIUFRT/2wBDAQMEBAUEBQkFBQkUDQsNFBQUFBQUFBQUFBQUFBQUFBQUFBQUFBQUFBQUFBQUFBQUFBQUFBQUFBQUFBQUFBQUFBT/wAARCABsAgEDASIAAhEBAxEB/8QAHwAAAQUBAQEBAQEAAAAAAAAAAAECAwQFBgcICQoL/8QAtRAAAgEDAwIEAwUFBAQAAAF9AQIDAAQRBRIhMUEGE1FhByJxFDKBkaEII0KxwRVS0fAkM2JyggkKFhcYGRolJicoKSo0NTY3ODk6Q0RFRkdISUpTVFVWV1hZWmNkZWZnaGlqc3R1dnd4eXqDhIWGh4iJipKTlJWWl5iZmqKjpKWmp6ipqrKztLW2t7i5usLDxMXGx8jJytLT1NXW19jZ2uHi4+Tl5ufo6erx8vP09fb3+Pn6/8QAHwEAAwEBAQEBAQEBAQAAAAAAAAECAwQFBgcICQoL/8QAtREAAgECBAQDBAcFBAQAAQJ3AAECAxEEBSExBhJBUQdhcRMiMoEIFEKRobHBCSMzUvAVYnLRChYkNOEl8RcYGRomJygpKjU2Nzg5OkNERUZHSElKU1RVVldYWVpjZGVmZ2hpanN0dXZ3eHl6goOEhYaHiImKkpOUlZaXmJmaoqOkpaanqKmqsrO0tba3uLm6wsPExcbHyMnK0tPU1dbX2Nna4uPk5ebn6Onq8vP09fb3+Pn6/9oADAMBAAIRAxEAPwD478Xf63S/+vCL/wBmrArf8Xf63S/+vCL/ANmqLwr4M1vxteyWmiafLfzRpvk2kKka+rOxCqPqRWdSpClFzqNJLq9ECMWiug8WeAdf8DyW663pslmtwCYZQ6yRyY67XQlSR6A1z9KnVp1oKdKSkn1TuhtOOjQUUUVqIKKKKACiiigAooooAKKK0vDvh3UPFmtWuk6Vb/atQumKww71TcQCTyxAHAPU1E5xpxc5uyWrb6AZtFOZTGxVhgqcGm1Y9tGFFaHh/Qb7xRrdlpOmwG4v7yVYYYx3Yn9B3J7AVufELwzofhG/h0vTNafXNQt96ajPHDstklBA2REnLgfMCxAB4xTtpcm+tjk6K2R4P1ckAWnJsf7SH7xP+Pf+/wBf06+1Y1SpJ7ME09gorc1rw/Houi6NcSSsb2/ja4aDAxHFnCH6tyaYPB+rkgC05Nj/AGkP3if8e/8Af6/p19qnnja9xcyMaiiirKCiiigAooooAKKnsbGfUruK2tk8yeQ4RcgZP1NRMpVipGCDg0uZXtfUrlly81tBtFWNQ0+fS7uS2uY/KnjxuXIOMgEcjjoRVehNSV1sEoyhJxkrNBRRU9nZzahdRW1unmTSNtRcgZP1NDairsUYuTSSu2QUU6SNopGRhhlOCPcU2mDutGFFFdh8I/BVt8RPiFpPh+8uJbS2vDJvmgALrtjZ+M8fw1UYuTsiJSUU2zj6K3fGEfhuHU0XwxNqs1iI/wB42rxRRy+Zk5wI2Ybcbe+c5qMeD9XJAFpybH+0h+8T/j3/AL/X9OvtWbkluyno7MxqK0dF8P6h4iuWg061a5kRd7YIVVX1LEgD8TS634d1Lw7NHFqNq1u0i7kOQyuPUMCQfwNHMr8t9RXV7GbRXWP8LfEsbFXsYUYdVa9gB/LfVDR/BOsa8spsbaOby5TCwa5iQ7x2AZhnr1HFT7SG/MieeNr3MKitvXPBmr+G4BNqNvHAhfy/luIpDuwTghWJHQ00eD9XJAFpybH+0h+8T/j3/v8AX9OvtT54tXuPmXcxqKKKsoKKKu6bo93rH2r7JD5v2aBrmX5gu2Ncbm5POMjgc0m0tWBSoq9qGi3ml/Y/tUPlfa4VuIfmU742ztPB46Hg81uzfC7xPBvDaaGdBkxx3ETv/wB8qxJ/Kpc4x3ZPNHucpRWlo/h3UfEF09tYWj3EsY3OMhQg9WJIA/E0mt+HtR8O3CQ6jatbO67kJIZWHqGBIP4GnzRvy31HdXsZ1FdFH8PfEMlgLxdLlMJTzQNy+YV/vBM7sfhUGh+DdW8SQtLp9vHMiv5Z3XEUZ3YBwAzAnqKXtIa67C5o2vcxKK29c8Gav4bgE2o28cCF/L+W4ikO7BOCFYkdDTR4P1ckAWnJsf7SH7xP+Pf+/wBf06+1HPFq9w5l3MaitzwjH4ck1N18Ty6pDYeUdjaTFHJL5mRjIkZRtxu75zitX4veCbX4d/EDU9Asrma7trURFJrgAO2+JH5A4/irVqyT7jTu7HHUV3nin4eWEPhOHxX4Y1OTV9D81ba8juIhHc2ExGQsigkFW5w44PTrXB0mnFtME7q6CiiikMKKKKAN/wAXf63S/wDrwi/9mrvvB+ky6x8JdM0a2nNmde8Wx2NzMo5aMQptB9QC5bHrXA+Lv9bpf/XhF/7NXe/DWa71zwPFpWhT248U6Prqa1Z2dxIqfak8tVKpuIDMrICVzyCa8TNrqhGSdrSTu9lvZvyTs/Lcun8WnZ/ky3rlnpS/CPxNpWjpqLw6d4igiiS+lSVjIVlQum1F279o+XB6Dk9u58M+Cre88Qaf4c1Xw34J0nTZkWCfTptQjl1pCU+95gIfzM84AxjjHevN/iB8Q9S0mTU9Ak8KWnha/kv4NTuEhkZ3FwoZ9x3E8NvUhRgDHTk1Pb/HLRbfxhb+Kx4Gt/8AhIfOE9xcjUZPLdiMOyRlSEZueTuxk4Gea+aqYTHVqDdGLfNzNNSTd3GNnfnS1abuuZrpvr1OUYu3b/Nv8rEfgO20zQvAPxD1G60ex1m60u6s47U38IcKTK6k+uOhKggHAByOKr+PIdO8ReAfCniuHR7HRtQubyewu4dNh8qCXZtKOIxwpwSDjrWh8O9atrf4Y/ErUL3TY9Rs5buwaaykkZQytM/AdeQRnIYdwOO1cn4w+IFv4ns9D0bStGj0DQ9MdnitFuGnd5HYF3eRgCTwMccV6NKnWqY6coxfuz1lfS3so+7a/VtPa3W+hE3FR02s/wA3Y9d1S48PD48T+Bf+EN0IaLezpbSypaBbhWeFTvjcH93gkcKAOD3Oa+ddUsxp+p3dqG3CCZ4gx77WIz+le+fFD4maX4J+MWuXqeFLe88SWbILTVHu3VEJhXazwgbXZQ2AcjoO4zXh/h/W4dL8TWeq6hYRazDFOJprO4OEn5yVbg9fofoarJYVoUFW5HZ04aNp80rNtrV2vdLW3poFZq8l5/cZNfQXjjxP4X8F/E5NCuvB2hHw/JDa/wBoTGyzOA8KFniZcbMAg4UcnJ6mvFPFms2viLxFf6jZaXBotrcSb47C2OY4RgcDgfXoBz0FX/iL4z/4T7xVPrP2P7B5sMMXkeb5mPLiVM7sDrtz04zXo4jCyxtWk6iajyyvZ2tJ8ltnq1Z2eqTXoZxahzWfp952Hguz0PRfDfjrxTFp1trw0y5gtdMj1SIvDslkceY8fG47VHB6E1H44ttN8Q+BfCniyHSLHR7+6vZ7G7g06LyreXYVKuI84U4JBx1rnPAvj6PwpZ6tpmoaTHrmh6qsYurGSZoW3ISyOki5KsCT2Oad42+IEXiTTdK0jStIj0DQ9MMjwWiTtO5kcgu7yMAWPAxwMVy/VcSsbz2dua/NdW5OS3La9782vw263uPmTg1tv/wPu0+49Cu/DulL+1dHpA0yzGk/b40+wi3TyNphUkeXjbjPOMVD8AfEp0r4u2eiR6VpUkNxqMxF1NZI1zCAjfLHJ1QfL0HqfWs1fjtaf2pH4jfwlayeNUhEY1k3b+UXCbBKbfG0vt98Z5xXA+DvF134N8Xaf4gt1W4urOfztsucSZyGB+oJ59641gMTiMJUo14WfsowV2neSUve0b0u1q7Puipzjdyj1d/T+rml4s8aSeM5oLN9F0PSQlwcS6VpyWztk4+Yr94e1e86h4N8OaL4sbw3eW/gK28KwgW80l1fxx6uvyDMpcsGV9xzjpjjFfP/AIw8Q+HdY8iTQfDUvh64WRnldtSa5D56AAoNuDnua6i9+MGjateHWdS8D2Go+KGjCyX09y7W0rhNoke2I2k4A4zjPOKrGYPEVqdJYenKEUpaJxum7Wfx276ptq+xXPHnk299vx8vQt/s728dp8ZNsMizfZbW/MEy85KwSBWH868lJLEk8mui8A+NLnwD4003xDbRJNJaylngPyrIjAq6ewKsR7Zq58RrDwrFqEF/4S1Oa6sL7fK2n3UBjmsDkfumb7rjk4Zew5r7J/DF9lb83+N/w9Dj+1Lz1/4Hy/UYvj1wyn7J93RjpH+t7Y/1nT/x39axvDOiv4i16x05OPtEoVm/ur1Y/gAT+FZld14F02/stG1fVLbTb+5vJrc21iYLOV1O5tsjhwpX5QCOvXNY8vKm4LX+v1ZnJcsbR/roYnjnWk13xNeTwcWkZEFuo6CJBtXH4DP41dXx64ZT9k+7ox0j/W9sf6zp/wCO/rWRe+Fdb021e5u9Hv7W3TG6aa1dEXJwMkjA5IH41lUeySioSWxfLF2t0Ciul+HOg23iTxhYWd6M6eC010SxUCJFLNkjkDAxn3rH1qazuNWvJNPt/sli0rGCHczbEz8oJYkk496hVk6rpJapX8tf+GOj2T9l7a+l7ee1391195SrqfDfkQaK9xJZ291J9vhiHnxhsKwORXLVqWOtfY9NNp5O/N1Hc792PugjbjHfPWoxEJVIcse6OjB1YUavPPs/vs7fibPiO2tW0i4MVpDbPa6m9ojRLgsm0n5j3OR1rcn0ixsdSGnyJoiaamEkaadVuugy2Scg55xXHah4g+3WV3b+R5fn3zXu7fnbkEbenPXr+lW5PFVrdSi7udHhudR2gGZ5D5bkDAZo+hP415ssPX5UtevXvaz39f8AI92OMwvtJS06dHaycrrSL3XL0tpuWfA98LHxNBZRw208b3BAuHiDSAAEZVu3Tt61k6xrTak/lmzs7fZITutoBGx+pHWqul6lJpepwXsaqZIn3hSMA+oqfVr+wvNrWenNZSbizk3BkDZ7AEDFdvseXEe05b3S189Ty3iebCOip2s3prqnbRaP8WjstSvLa58dPpc+nWs0NwyRySumZcmMYIbtjjpXPaPa2+n2Wt30lvHeS2TJFEk43JlmILEd+BUE3ibzvFS619mxtdH8jzP7qgY3Y9vSotO8QCzkvkmtVurO8OZbdnKng5Uhh0IJrlhh6lOmopdI3V+qeq37adjvqYyhVrucmvinZ22TXuvbo9e/kW9Zjg1DQbHU0tYbS4ed7eRbddqNgAg7ex5rfguLbTfG1ppEOn2qwwSIgn2fvi20HcW789q5PV9cS/tbe0tbVbKygLMsQcuSx6sWPWtSPxpbjUbfUpdJjk1KPbvn84gPgYztxgHHfmlUoVZU7crektL7X269F62HSxVCNVy50neF3Z62vzW0vq7bpXsR6D9i/tTVPtH2X7V832b7d/qd27nd2zjpmm+IreaNrF7rSraLcx/e2DAR3C5HA25AP+PSs6x1W3huLprqwjvIbg5KMxVkOc5VgOP61LqXiBLi0trSxtf7PtoJDMoEpdy5x827j07V0xpzjiIztp/wOmv4NNHHKtRlhZwclfW1r3evXS23VNNbevpvk+GP+iKeIv8AwcXH/wAj1Q/Zt2/8L40DZE0C+Zc4iY5KDyJeCe+K5f8A4XB48/6HbxF/4Np//i60vgb4r07wr8WtF1vXb1rWxhaZp7pkeUgtC6gkKCxyzDt3r14tOa+fkfPTT9nJHBTf66T/AHj/ADrqV8euGU/ZPu6MdI/1vbH+s6f+O/rVHxlpGkaPqiRaL4gi8R2rx+Y11Day24Rix+TbIATwAc9Oawa5nBSVpG80pSudl4dwPh34n+fyg9xaIz/7O5uvqKZ4m0l7HwtpclvriavpX2iRIVWBo/LfALfeAPPFZvhvxMui299Z3VimpabehRNbtIYzlTlWVh0IzS+IvFCaxZ2VhZ2K6bptnuaO3WQyMWY/MzMep49Ky5ZKpfpe/wCCXr0MEnzf12Ou+I6eFz4v1I302rrffJvW3iiMWfLXGCWB6Y7VxPhL/katG/6/Yf8A0YtdDrPjXw9r2pTX974Xme5mxvZdTKg4AHTy/QVy2m6gum61a3yQ5S3uFnWEv2VgwXdj2xnFKjGUYKMk9vIUYv2fL1t+hb8Z/wDI363/ANfs3/oZrTXx64ZT9k+7ox0j/W9sf6zp/wCO/rWBrWo/2vrF9feX5X2md5vL3btu5icZxz1qlVxppwUZLZfobOKbuworpfhzoNt4k8YWFnejOngtNdEsVAiRSzZI5AwMZ96x9ams7jVryTT7f7JYtKxgh3M2xM/KCWJJOPekqydV0ktUr+Wv/DG/sn7L219L289rv7rr7ylWt4f15tBOokQ+d9sspLM/Nt278fN0OcY6Vk0Vs0pKzMGr7m1q+vNrsmkKYfK+xWsVmPm3btpPzdBjr0r0DxRDoel/EmfV7vXzFPbzxzNYwWshkJVVIXfgLzj1715PG3lyK2M7TmtTxVr3/CTeILzU/I+zfaGDeVv37cKB1wM9PSsJU7yVtFr+NjJwu7dLHTx6j/aXg/xtfInkfar6CQovZWkdttU9YYt8NPDbE7il3cqu7nAypx9M1l+G/EyaLb31ld2Kalpt6F863aQxncpyrKw6EZp+veKhqcOn2tjZLpdhYFmhhWQyNvYglmY9TwO1SqbjOyWl0/uVgs+bbq/yOoNzbeNPEUWr6Nqz6V4kkC7bO5T5GkVNuI5BkYIHAYd65Hw0JF8ZaUJQRKL+LeCMEN5gzW4vxCsV1Aat/wAI5b/24vzi6Fw4i8zGN/ldM9+vWuY0/VXs9cttSkXz5Irlbhlzt3kMGIzjjNOnGUdLWVv6+XqJRfK1boWvGf8AyN+t/wDX7N/6Ga018euGU/ZPu6MdI/1vbH+s6f8Ajv61ga1qP9r6xfX3l+V9pneby927buYnGcc9apVcaacFGS2X6Gzim7scn3l+teo/tO/8lr17/ctf/SaKuI8IaPpGtao8Os6/F4ctVjLrdTWstwGYEAJtjBIyCTnpxXSfHnxNpfjD4p6xq2i3f27TZlgWK48t49+2FFPyuAw5U9RXVL4IrzYl8b9P1Rq/Cf8Ae/DP4rQvzD/ZdvLtPTetwu0/Xk15VXqGt+JPDvgv4e3nhTwzfya3qGsvFLq+qmEwxKkZ3JbxK3Jw3JY9cce3l9KfxW7K35v9bfIIfC33d/wS/QKKKKgoKKKKAN/xd/rdL/68Iv8A2asCt/xd/rdL/wCvCL/2asCgAoqxJYXMdnFdvbzJaysUjnZCEdh1AboSKr0k09htNbhRTlVpGVVUszHAUDJJ9K0dS8M6xo1ulxqGlX1jA7bVlubZ41Y4zgFgATgH8qlzjFpN6spRlJNpbGZRRRVkBRRRQAUUUUAFFXbjRdQtNNtNRnsLmHT7xnW2u5IWWKYoQHCORhipIzg8Z5qGxsbjVL2CztIXuLq4kWKKGMZZ2JwAB6k0R97SOoP3dWQUV1Xj3wIfAF1bWF1q1lfavtY3tnZMX+xMMYjd8bS/JyFzjFT+LvhtceG9FsddstQtde8P3jeUmoWW4COXGTFKjANG+OcHqOQadtG+wr6pHHUUUUhhRRRQAUUUUAFFFFABRRRQAUUUUAFFFFABRRRQAUUUUAFFFFABRRRQAUUUUAFFFFABRRRQAUUUUAFFFFABRRRQAUUUUAFFFFABRRRQAUUUUAFFFFABRRRQAUUUUAFFFFAHY3194t061e4uH8uFMbmxCcZOBwPc1p6Tp2m3Vnr/AIl1y1fVFsoLNVs1lMIlllRRuZl5AGCcD1rlbLwzMZJnvybG0tziWVx39F9Sa3tE8YaPDHrel6la3jaJqMcCq1qV8+JoQAjANwc85Brjxim6LVO97rbe11e3yudeEcFWTqWtrvteztfyva5o+MJLK++GXhl9NtWsYJb+5xbvIZPLbCAgMeSO/PPOOetdh/wp20j1ePQz4UvpbMqI38RC8IYOVyXEX3dobjGM4rzrxR4q0a88KaRo2jQXsIsLmabzLzYS4fGCSp65B4xgDHJq/q3izwf4i1J9c1PTNUm1WVAZrGOVFtZJAoXO8HeoOAcAfjXhSo4n2aVPmirz7t3b937S6X3bXc92NbD87dTlbtDslpfm+y122V+3m/4T2Oi23jyxt9RkvjqsN/st1gjQwMV7uS24cjsD2rN+IGq6TfSTJZanr15dLdMZI9T2eSv3slcOTnPTjpmsnwVr1v4b8YaZqtzHIba1nErxwgFsc8DJH6msnULhbq/uZ0BCSSs4DdcEk16iw0ni3Vk3ay9L3Z5rxMVhXSilrJ972sV69d+Cvhfwpqngn4i694o0mbVl0G1s7i2jguXgbc8+0rlTjDcKSQcAkjmvIq77wL4+0/wx8O/iFoN1DcyXniG2tIbV4VUxo0U4kYyEsCBjpgHn0roxkZyouNO97x23tzK/4XOLDuCqxc9jV8dWvgLxN4L0PXPClkvhfXJL9tPvfD5v3uhs2hkuUL/OFJ+U54z06c+myeAPhha/F+L4QyeFr6S9ZksH8V/2pIJxctEG8wQY8vZuIG3Gcc5r5ihma3mSVDh0YMp9wc19En46fDqfx/F8TZ9D8QnxyirOdNSWH+zGu1jCCTf/AKwLwG246968zF0K1OKjTc5K0tm7qTty3d7tL3t2136HXRqwm25KKl7u6Vra82lrX+HZdH135P4c+BfDul+G/HvinxXp8viC38MzwWMOlQ3LWyXM0sjJueRfmCqEJwOTml8f+HfCI8G+DPiDoOgSaZp1/fTWeoeHpr2SaItCVb5Jj+8CupIPOR2rO+HfxP0ax0nxf4e8ZWV9d6H4leK4nuNJZFube4idnV0V/lYEsQQSKj+JvxD8P6t4R8O+DvCFlqMHh/R5Z7prrV2j+1XU8uNzMseVVQFAABPvVcmJ+spyvuuvu8vJrpe1+a/S+3QfNQ9m+W1rS6a3u+Wz32t1to/n654y8eeBbf4E/Dm8n+GFpdabcXeprbaadavFW1ZZIw7CQNufeSDhjxjivL/2dzb3HxkhvYbZbdLe3vbu2g3FxEywSFBk8nbxyeeKn0Hx94D174X6F4T8bReIrWXQrq6ntLrQUgkEqTlWZZFlZcEFeCM8VyHwz8awfD34iafrawyXWnQyvHLC2A8lu6sjD03bWJ9MiurLKP1eVSDuneWrba1bs9W+6u9+5z4yp7alB6OyV0kk9N1t/wAA5KaaS4mklldpJZGLu7HJYk5JJ9a9S+FrG8+FfxSsJjvtlsLa8VD0WVJwAw9DhiK5n4jeD9N8MX8Nxomu2eu6Jf75LSS3k/fRICPkmjIyjjcOD1611moTaX8Lfhnq+gQataaz4m8RmEXf9nyeZBY20bbwhk6NIzYyB0A/P1o6Rl6NfN7fc9fkcEtZRt3T+Sep514UudIs/EmnTa/aTX+jJMGu7a3fZJJH3CnIwfxH1HWneLrrRrzxLqM/h6zn0/RZJSbW1uX3yRp6E5Pv3P1PWm+FLjR7TxJp02v2k99oqTA3dvbPskkj7hTkc/iPqOtO8XXOjXniXUZvD1pcWGiPKTaW10++SNPRjk+/c/U9aHsvn+n9L5j6v+u/9fcY9FFFSMKKKKACiiigAooooAKKKKACiiigAooooAKKKKACiiigAooooAKKKKACiiigAooooAKKKKACiiigAooooAKKKKACiiigAooooAKKKKACiiigAooooAKKKKACiiigDpvF8lxcf2Wpdnj+xxuQW43HOT9elc99mk/u/qK6zxNYzxRadI0bBEtY4mP91hnIP51g0AUfs0n939RR9mk/u/qKvUUAUfs0n939RR9mk/u/qKvUUAUfs0n939RR9mk/u/qKvUUAUfs0n939RR9mk/u/qKvUUAUfs0n939RR9mk/u/qKvUUAUfs0n939RR9mk/u/qKvUUAUfs0n939RR9mk/u/qKvUUAUfs0n939RR9mk/u/qKvUUAUfs0n939RR9mk/u/qKvUUAUfs0n939RR9mk/u/qKvUUAUfs0n939RR9mk/u/qKvUUAUfs0n939RR9mk/u/qKvUUAUfs0n939RR9mk/u/qKvUUAUfs0n939RR9mk/u/qKvUUAUfs0n939RR9mk/u/qKvUUAUfs0n939RR9mk/u/qKvUUAUfs0n939RR9mk/u/qKvUUAUfs0n939RR9mk/u/qKvUUAUfs0n939RR9mk/u/qKvUUANt/D9/dQrLFb7kbod6jvj1ouPD9/awtLLb7UXqd6nvj1rtPDsbzabbIis7sSqqoySSxwAK6z4sfCvxJ8N/DenXHiKx/s1tVRpILeRwZgqsmS6j7udw4PPXIFYzxFCnUhRnNKc78qvq7K7sutluckalSUmktFv5a2PE/s0n939RV628N6jeQrNDb7426NvUd8dzRXceG/+QLb/wDAv/QjSrVHTjdHbFXOM/4RLVv+fT/yIn+NH/CJat/z6f8AkRP8a9Gork+sz7IvlR5z/wAIlq3/AD6f+RE/xo/4RLVv+fT/AMiJ/jXo1FH1mfZByo85/wCES1b/AJ9P/Iif40f8Ilq3/Pp/5ET/ABr0aij6zPsg5Uec/wDCJat/z6f+RE/xo/4RLVv+fT/yIn+NejUUfWZ9kHKjzn/hEtW/59P/ACIn+NRXPhvUbOFpprfZGvVt6nvjsa9LrM8Sf8gW4/4D/wChCqjiJyklYTijzn7NJ/d/UVct/D9/dQrLFb7kbod6jvj1p1eufCT4W+IviZo18PDtmuoT6bD58tssgWVkLsPkB+8eOnX0zXTWxFHC03WxE1GK3bdkru2/qc83PRU1ds8huPD9/awtLLb7UXqd6nvj1qn9mk/u/qK+sv2ZfC+na58RNV07XtItdQih02UtaajbLKqSLNEMlHBwwyR0yMmvluujToTSlKcbyKP2aT+7+oo+zSf3f1FXqKRsUfs0n939RR9mk/u/qKvUUAUfs0n939RR9mk/u/qKvUUAUfs0n939RRV6igC5Z3WraPJNPdWdxJaynNwlxGwR8nGSSOD70mqRQw3jC3DLAyJIiuckBlDY/Wrdz4c8TXEXlyvNPGwBZGugR64ILVX1iF7a+EMg2yRwwowznBEag0AUaKKKACiiigArq/BnhrTNa0vXr3VLi5t4tNijlBtgpLbnwRgjkkcDkcnmuUrqPDGtWen+F/FVpcTeXcX0EKW6bWO9llDEZAwOPXFceL9p7K1O97x27cyv+Fzrwns/bL2lra7+j/Uf4h8PaP8A8I/Z6zoVzdNBLcG0ltb4p5qSBdwIK4BUj2rp/wDhVulR6smgSNrX9rMAh1BLdTZLKVzjpuK5ON2a8uRjG6sOqnNetap440/WtQfVz401zTYJUDvotoZVkRwoBVHz5YBIzk+vSvMxccVS5YU5tr3tbNu+nKnZPz3sn1PTwssNVcpVIJP3dLpLrzPVq3TbXexk/B+HSrXxxYwX0d9/bEd0yQmF0EAwpB3gjcec9D6VzfiQ+HJJFXR49USczESm+kjZcf7O1Qc59aPBfiCHQfGmnatdeZJBDPvkOdz4OQT7nnPvTPEmm6RYSJPpeupq5kkYtGLWSExjqCdwwfwrdU3HGOcnLWK72uua67L5mLqKWDdOFtJPe17aWfd/I27jwNYQ/FZPDIluDYNcRxeYWXzcMgY87cZyfSoPDfhPStQh8TT6jc3UFvpIVlMG0swMhUggjkkcDkcnniujPiXwtceMIvGcmqTpdKFmbRxasXMyoF2iT7u3IzmuW0HxBaQ6B4wiupfKutSii8iMKx3sJdzDIGBgeuK5YzxNSml7yaUE9OvN71tNdN3sdUoYWNVv3XFyk1r9m2l9dNej1E8QeH9GGg2Ws6Hc3RtpLg2k1rfFPNjcLuBBXgqR7V0138P/AArF4yl8Lpf6ouoyELBOyxtCjFAwV+AW+ox1A968wQ7XUnpmvQ7zxZpUvxnj11brOlLcRSG48t/uiNQTtxu6g9q2xFPEQ92E5O0ZteunKn36+pz0alCSc5winzQXy97ma7dL9jz2eFreaSJ+HjYq31BxTKs6lMlxqN1LGd0byuynGMgkkVWr24a2ueRUSUmo7HuurfCn4daR4+j8H3Gsa9FqV4sIgu8QG3tnkjVlWXgFsk5yu3AYDnBNcr4H+FdrqS+J77W31CfT9BmW1e30OIS3FzMzsoCEggKNpJYg8Vn/ABt8Tab4u+I1/qmk3P2uxlhtkSXy2TJSBEYYYA8MpHTtWt8I/H1poPh/xF4futfv/Cj6m0E1vrWniRmheMtlHEZDlWDY49OldC5XJ6d/z/yv6nN7yhH5X+7X8fuKvxC+Gth4f0/w/rWknVIdK1aWSA2msQiO7t5EKhgcABgQwIIArsr74O+AV+JN34Ct9W15dcdtlpdSLC1sjmMOqSYAZv8AeGMZxjjNcV8RPElnfSaLbQ+M9d8ZSWztJc3mpySfZlJIwIY5MuDgck9eMCulm+Ifh9v2nV8WjUM+HxepN9s8mT7ohCk7Nu7rx0ojyOSj0b/DT9b2FLmUW1ul/mcv4D8B6PfaL4k1/wAU3N9BpGitFA0GmBPtE80jFVVS4KgDaSSRXSfEi001/g54Bi0GW5nsJtQv/IF4qrMpLRja+35cg9xwRg8dKyvBXibw7eaD4y8Ma7qcmjWmsXEV3a6mts86I8TsQrovzYYN26U/x14k8N23w+8HaH4f1WTVrnSL26mnkltnh3b2RlYAj7pwQBknAyQM4pR5XFc2zUfzV/1Klfn06N+mzt/X/AOp/wCFB+H18RDwiz+Jv+EhK+X/AGwLNf7LE+zdtxjfsz8u7d17VxHw+8AaJrWh+MtR8RXd9ZJ4fWB8WIRi+6Uoy4Yck4wDkAE5ORxXoev/ABS0bxFrVx4i/wCFoeKtJs7hPNbwzp7XEc0cmwAxxy7vKC7hnOOh6V5r4R8Vadp/w/8AiFp97dMmoavHaC0jdWdpmSfe+WAwCBzlsZodk/k/+AEbtL1X56h448IeG4PCOl+J/Ct9fSWFzcvZT2OqmM3EEqqGBymAVI9uP5cDU9jZT6leW9pbRma5uJFiijXqzMcAD6k13/8Awzv8R/8AoU7380/+KqOVy1S0L5lHRvU6H9l9vDQ+I2ii9i1VvEH2iT7K9vJELQJ5Lf6xSpYn73Qjt71w3i9fB11JbxeFLfXY7x5isv8Aa80DoQeBt8tFIOfWrPwx16P4Z/FbSr/WoZYk026eK7jUbnj4aNuO5BP6VW8WaR4f8O3Vpd6B4qi8SM0xdo1sJrYxAEFc+YADn29K0vGSjfb/AIYizjKVt9P1PTv+FB+H18RDwiz+Jv8AhISvl/2wLNf7LE+zdtxjfsz8u7d17VzHw/8Ahr4c1Xw7/aHiS41WCY6/Hogj04x4BdCQx3qejDk56DGOcjs9f+KWjeItauPEX/C0PFWk2dwnmt4Z09riOaOTYAY45d3lBdwznHQ9K4fwf420nT/BFpZXt6yXy+LbXVJEdHdvs6IQ8hYLgkE9Op9KqKjze95f+lL9L/Ij3uXT+tH+tg8c/DPQtD8OW+o6RfahPJb61LoV+t4qKryoobzIgvRSM8MSa6i++D/gCP4lXfgOHVteXW5G8u0upFha2jkMYdUkwAzZ7lduM4xxmue8UeNNG1jwrf6fZ3nnXlx4zn1SOPynXdbOm1ZMkADJ7E59q9E8ZXvgvwn8ftV8Wal4guItQ02dZf7DWxdnnlEKhNkw+QKcg/Ngjke9KKjo5bPf/wABje3zb+ehUnLVR31t97t+Bxv7O/jnxLofxI0HwpFqk0OjyXzrPYrt2M207u2eqj8q8j1n/kMX3b/SJP8A0I10fw78ZweF/idpPiS+jZreC98+ZIhlgrE7seuNx/KrvibS/Cei6jDq+l+KofE4N+ssmmf2fPbt5W4sdzOu09ApAP8AFWavOMHN97/+S/huXpGU+Vdrf+Tf8A6/w18I/B/iu7s9G0658T3GoXcX7rXRYBNMMuzdjayiTZn5dxI57YpP2Z4/Dtr8TtKg1GLVD4jS7lW2e3liFoFETA7wV3E/f6Edveu1s/jB4fj+JVr4lk+J2tHQ5J948Ora3CRWyFcbHAOwov8AsBicD614x8NfGVj4P+LWm+ILve+nQXkjyNGuW2OGXcB7Bs49q1TSnFrrf5bWMZJypyXlp+JU8Xr4OupLeLwpb67HePMVl/teaB0IPA2+WikHPrXp3/Cg/D6+Ih4RZ/E3/CQlfL/tgWa/2WJ9m7bjG/Zn5d27r2rzHxZpHh/w7dWl3oHiqLxIzTF2jWwmtjEAQVz5gAOfb0r1rX/ilo3iLWrjxF/wtDxVpNncJ5reGdPa4jmjk2AGOOXd5QXcM5x0PSojy8vvfP7un/Aua1HJy935ff1/4Jq/sVeG7fUPjJo8WoQrKdNjubkRtyPNj3BT+DHI9wK8t+KXirUvGmpaxrOrXMl1e3U29ndido3jCj0UDgDsBXY/swfEi1+G/wARtF13UzI2nSGa3u5Dl3WOQsC57nBwx7nBqL9or4Tv8M5PtNpqFpq/h3WC8+lX1pMHEkQdeGx0I3qPQ/oPi6Uo0eIKn1jR1KUFTfflc3OKffVNrqtegL3qMlDpO79NEvxv9/mcMvi6wDIfP6eHDp33G/12Pu9P16e9WfCVhHN4Nku2LCSF1VQCMHc7Zz+VecV6b4Furb/hF5LG6ka3S4wyzBSwVlduoHODmvexEFCF490VGPIvd8v0L02nxx6TY3QZvMnkdGGRgAYxjj3rWk0DS11iTS1nuhck7Y5CFKA4yAe5/DFUNSu7b7LYWNrK1wkDM7TFSoZmI4APOBitrUJNPsfFM99NdOJYX3fZhGSWbaMYbpj615rb/P8AQUpS876/noceylGKnqDg0sf+sX6iprXyLi+T7W7RQO+ZGQZIHtRdrbxXzi2kaS2V/kdxgkVqt1c6W9bHT6rp2n6l4lubVpp0vZW+VgB5YbbkA9zVLwb9kXWbdZln+1iRghRl2AbT1GM+tI2rWv8AwmYv/N/0XzQ3mbT0246YzWfouoR6frkF1JkxLISdo5wcjP61ik+W3kc3LL2bj5f5iyR6bc3VtFaLdJvlCuZmU8EgcYHWtX+wNL+0CPzbvH2s2Z+797PB+nr/AErLaGysb20lhv1ukEoZ8RMu0Ag55HP4VoHVrT7WX835f7V+052n/V5+90/TrTd9LFT5vs3HeGb+8sdeh05bhvs4nZWQdG6g/wAq4rxV/wAgu8/3h/6GK6S01KK08SC9OXhFwz/KOSpJ5/I1keNrWzi0O5ktr9bpmdf3flMpA3DnJGK0pfHFvyK+GT03X+ZVXxdYBkPn9PDh077jf67H3en69PepPh74k1HwjNpmsaTdSWeoWkhliljYgghjwfUHoR0IOK89r2/9n/4Tz/FSYxvf2uk6Lpy/aNT1C7lCLBCXIJGepODjt6mu3GVMLg8NUrYp/u7a310fS3W97W67HJUptpQpq7bX5H1ncaTa6f8AtV6neWsKwHVfC8d/MiDA8xpo1Y/jsBPuSa/N2v0C8J/ETT/iV+05r1/pBL6RZ6F9gtJSCPMjjmi+fB7Fi2PbFfn7XBw/SrUMowtLEJqahFNPdabPzWx3VZKVWbTvr+PX8Qooor6AzCiiigAooooAKKKKANbxI6r/AGYCwB+wxdT9ax/NT++v51e8Xf63S/8Arwi/9mrAoA0fNT++v50ean99fzrOooA0fNT++v50ean99fzrOooA0fNT++v50ean99fzrOooA0fNT++v50ean99fzrOooA0fNT++v50ean99fzrOooA0fNT++v50ean99fzrOooA0fNT++v50ean99fzrOooA0fNT++v50ean99fzrOooA0fNT++v50ean99fzrOooA0fNT++v50ean99fzrOooA0fNT++v50ean99fzrOooA0fNT++v50ean99fzrOooA0fNT++v50ean99fzrOooA0fNT++v50ean99fzrOooA0fNT++v50ean99fzrOooA047gRSK6yKGU5ByOorQ8R+KL7xbrV1q+rXa3eoXTBpptqpuIAA4UADgDoK5yigDR81P76/nR5qf31/Os6igDR81P76/nR5qf31/Os6igDR81P76/nR5qf31/Os6igDu9E1K0h0uFHuoUYbsq0gB+8fel1zVbabSZYkvIpOQVjWUHnIyQM+36VwdFO5zewXNzXNHzU/vr+ddj4f1Szh0mBJLuCNxuyrSKCPmPvXntFY1KaqKzOpOx6mNasFIIvrbP/XVf8alu/ElrfXDzz6hbPK5yzeYgz+VeT0Vz/VY9yubqepf2xYf8/1t/wB/V/xo/tiw/wCf62/7+r/jXltFH1Vdx8x6l/bFh/z/AFt/39X/ABo/tiw/5/rb/v6v+NeW0UfVV3DmPUv7YsP+f62/7+r/AI0f2xYf8/1t/wB/V/xry2ij6qu4cx6l/bFh/wA/1t/39X/Gs/xBqlnNpM6R3cEjnbhVkUk/MPevPaKqOHUWncXMaPmp/fX866vQ9UtoNJiia8ijzksjSgfxHGRn3/WuDorsOepT9orM97+FnxptPhDrl5rSWkOtNLaNai2W8EJ+aSNt2drdNnTHevFfNT++v51nUUPUdOHs1Y0fNT++v50ean99fzrOopGho+an99fzo81P76/nWdRQBo+an99fzo81P76/nWdRQBo+an99fzorOooA/9k=;" vertex="1" parent="1">
          <mxGeometry x="290" y="270" width="513" height="108" as="geometry" />
        </mxCell>
        <mxCell id="psAbm342U6_RFJnEFFYR-9" value="" style="edgeStyle=orthogonalEdgeStyle;rounded=0;orthogonalLoop=1;jettySize=auto;html=1;fontSize=17;" edge="1" parent="1" source="psAbm342U6_RFJnEFFYR-5" target="psAbm342U6_RFJnEFFYR-4">
          <mxGeometry relative="1" as="geometry" />
        </mxCell>
        <mxCell id="psAbm342U6_RFJnEFFYR-5" value="&lt;b&gt;用户访问http://192.168.8.125:5000/&lt;/b&gt;" style="rounded=0;whiteSpace=wrap;html=1;fontSize=17;" vertex="1" parent="1">
          <mxGeometry x="30" y="276" width="220" height="96" as="geometry" />
        </mxCell>
        <mxCell id="psAbm342U6_RFJnEFFYR-7" value="" style="shape=image;imageAspect=0;aspect=fixed;verticalLabelPosition=bottom;verticalAlign=top;fontSize=17;image=data:image/jpeg,/9j/4AAQSkZJRgABAQEAkACQAAD/2wBDAAMCAgMCAgMDAwMEAwMEBQgFBQQEBQoHBwYIDAoMDAsKCwsNDhIQDQ4RDgsLEBYQERMUFRUVDA8XGBYUGBIUFRT/2wBDAQMEBAUEBQkFBQkUDQsNFBQUFBQUFBQUFBQUFBQUFBQUFBQUFBQUFBQUFBQUFBQUFBQUFBQUFBQUFBQUFBQUFBT/wAARCADuAnADASIAAhEBAxEB/8QAHwAAAQUBAQEBAQEAAAAAAAAAAAECAwQFBgcICQoL/8QAtRAAAgEDAwIEAwUFBAQAAAF9AQIDAAQRBRIhMUEGE1FhByJxFDKBkaEII0KxwRVS0fAkM2JyggkKFhcYGRolJicoKSo0NTY3ODk6Q0RFRkdISUpTVFVWV1hZWmNkZWZnaGlqc3R1dnd4eXqDhIWGh4iJipKTlJWWl5iZmqKjpKWmp6ipqrKztLW2t7i5usLDxMXGx8jJytLT1NXW19jZ2uHi4+Tl5ufo6erx8vP09fb3+Pn6/8QAHwEAAwEBAQEBAQEBAQAAAAAAAAECAwQFBgcICQoL/8QAtREAAgECBAQDBAcFBAQAAQJ3AAECAxEEBSExBhJBUQdhcRMiMoEIFEKRobHBCSMzUvAVYnLRChYkNOEl8RcYGRomJygpKjU2Nzg5OkNERUZHSElKU1RVVldYWVpjZGVmZ2hpanN0dXZ3eHl6goOEhYaHiImKkpOUlZaXmJmaoqOkpaanqKmqsrO0tba3uLm6wsPExcbHyMnK0tPU1dbX2Nna4uPk5ebn6Onq8vP09fb3+Pn6/9oADAMBAAIRAxEAPwD4copevA5Ne0Xnhfw14R1seFU8Eaj441q1gjk1K6trqZGjdlDMsUcQI2ruA3NnJrgxWMjhWouLk3d2Vtla7vJpdV16lRjzHi1Fei+IPhHcf8LGuvD+hyh7P7MmoJc6hIsSwWzRrJumY8DaGwT6jpWT4q+Gd/4X0eHV01DS9b0mSb7Mb3Sbnzo45cbtj5AKkjnpipp5hhqnIlPWaTS9dvR+RTpyV9DkKK9Lt/gLrEzaWs2t6BZS6paxXVlDd3pjefzBlUVSmd3Qf3cnAJ5rD8N/C3W/E2ua3pEQt7PUNHglnuoryTywPLYKyhsEZyepIGATmlHMcJJSkqitHf77fnoLklo7b/rschRXYeKvhjqHhfQrfWl1DS9a0qab7M13pNz5yRS43eW+VBBI59PeuPrro16eIjz0pXQnFx3Ciui8D+BdR+IOqXOn6W1utzBaSXZFw5QMqAZUHB+Y5GM4HqRWl4l+Feo+HfDw1yLUtJ1zTFmFvPPpF154t5CMhZOBjPYjI9+RWUsZh4VVQlNKWmnrt9/TuNRlJXSOLor0PR/glrGrafptxNquiaTcaoglsLDUb3yri5UnClV2kAMem4jNYWl/D7VtSuvEdswis7nQbWW6vIbliGAjYKyrgHLZPfA96iOPwsua1Re7v99vz09Q5JaO25zNFbtt4PvLrwbe+JUlgFjaXcdm8bM3ml3UsCBjGMA9/wAK9PtfgnpEnwvnvm8UeGf7U/tSONdU+3zeQkRiJMB+TG8nDfd6Dr2rLEZlh8Lbne8uXRXs9N/vQ4wlJ6ef4X/yPE6K6jS/h7f694qutD0y7sL82ytLNqMU+LRIlALSmRgMIM9SKm8WfDW/8LaTDqqahpmt6TJN9nN9pFz50ccuM+W+QCpxzyOa6PrmH9pGlzrmey9dvv6IXJLXTY5SON5pFjjRpJGO1VUZJJ6ACiaGS3meKVGiljYq6OCGUg4II7GvWvBd43w2+EN34y09EXxJqepnSbK8ZQzWUSxh5Hjz0dshc9QOlcR4ItYPEvji1j1jfex3TyvOZJG3SNsZtxYHOd3Oc12VLU736K7+6/5GPN7rl0/yOZpVUswAGSeABXRa1ptla+D/AA7eQRbLy6e5E8m5jvCuAvBOBgHtU/w5sYpdeOo3S5stKia+l99n3V+pbFZ+0XK5dr/gDlaN1/WtjmJYnhkaORGjdTgqwwR+FMrf03RtQ8dapqdxHJCLhUe8mMz7QRuGcHGB97vgY70mt+D7rRdNh1AXVnqFlJJ5RnsZvMVHxna3AwcUc6VlJ6j5le1zBorrbf4cXs0NhLJqOmWgvoVmtxcXBQybv4QNvXp7cjmsyz8I6lea5caV5SQXNtuNw0zhY4VX7zM3QD396PaQ112FzxavcxaK3Nb8I3Oi2Ud6Lqz1Gxd/K+02MvmIr4ztbIBBxz0rT0n4fXM39lz3dxYxLeMkiWMtxsuJYi3VVx3Gcc5Paj2kbXuDnFK5yFFdRqnh+3Xxxqmn291Z6Xb208nltfSN5YCtwucMSfr6UvxIW/HiZ31E2LXEsMcgbTwwiKlflIyAelKNRS5bddR83vWOWorqbH4eX95a2ksl7p9jLeKHtrW7uNksyn7pAx37ZIzUfhnwn/aHiH7DqF1aWDW9wkU1veSMjS/NhkTaDk8Y6jqOaftI667Cc42bOaorrPG3hG20HUNRe11PTZIY7l0jsYZneeNdxwCCvYcHk/jWx4Z8M6Nff8IX9ptfM+3teC7/AHjjzNmdnQ8Y46Y96j20eRT/AK2uKU1FXPO6KVsbjjpmkrc1CiitHSdFl1dblo5YYUt1V5GnYqACcZziolKMFzSehdOnKrLkgrszqK29S8J3mmWtxPJLbyC3ZVkSKTcyhvutjHQ9qLTwnc3VvBK9zZ2rXA3Qw3E215B0BAx37ZxWP1ily83NodP1LEc/s3B33/G356epiUVsaRoJutWNrdz29m0MqpJHcuVLfNgquAef8as+KPDsGl3l48F7ZmJJSqWscrNKoz0II7fWj6xT9oqfVjWDrOi61tE7efXp8jnqK62+8IJcDSzaTWtobizifbcTEGWQ5ztBz7egrDtNBvLzVJLBYwk8W7zfMYBYwv3ix9BShiaU4uSew6mBr0pKLje+1ut9TOorV1Lw7Pptot0s9teWpfyzNayb1VsZweARVmy8JzyRWc801rELgho7aWXbLIueoHv255qniKSjzc2hCwddz5OXXf5GDRW/qPh83Hiq906wRYo43YjzHIVEAySSewqpqXh+TT7UXK3dpew7tjNay7tpxwCCAaI4inLlV9Xr9454OtBz926i2m/Tcy6fDDJcTJFFG0ssjBURASzE8AADqa9Asf2fPiJqVlb3lr4VvJra4jWWKRSmGVhkEfN3Bqj4F0e98P8Axi8OabqNu1rfWutWsU0L4yjCZcg4rtjTbqRhLS7POlNKDktbHMaloWpaL5f9oaddWHmZ2faYGj3YxnG4DOMj86o133xv8S6vrfxI8R2uo6re39tZapdx2sN1cPIkC+aRtRWJCjCgYHoPSpvDPhnRr7/hC/tNr5n29rwXf7xx5mzOzoeMcdMe9csqijFT7/5X/Qqb9nv/AFY87orq/AunadeSa3PqFkL+KysJLlIWleMFlZccqQehNWbjT9H8QeEdU1Wx0ttGuNOkiBVZ3limV2xj5+Qw69aTqKLtbt+Iub3rfI4uivQW0zw7oM+iaZe6TLqFxfwQzTXn2pozH5vQIo4OPfrVTR/BtoPGWt6dciW9h0uOeVLeJtslzsICpkDjOecelL20dfn+BPtFa/8AWpxNFdFrVx4fv9K82ysZNH1OOXabUSvLHJHjlstyrA9s10GkTeGtQ8Oa1qL+FYVk05YcIL6fEm99pz83GKbqWV3F/wBfMpytbQ89orrPCVrpXiTx5aQy6ctvpk2/NmszkDETEfMTu+8M9ara1ptla+D/AA7eQRbLy6e5E8m5jvCuAvBOBgHtT9olJRa1f/B/yHza8v8AXX/IzYfDmrXGnm/i0u9lsQrMblLdzFgZydwGMDBz9KqW9rPd+Z5EMk3loZH8tS21R1Y46DnrXsHwH8S6vcaT440aXVb2TR4fCuoSRae9w5t42+U7ljztB+ZuQO59a8w8K+LdX8E6zFqui3slhexjAkjPDKeqsDwynuDwa6XFKSV9Gr/i1+gk2032f+T/AFMiivSvjfpFhHqWgeItNtI9PtvEmlx6lJZwjEcM5LLKqDsu5cge9ea1m002n00+4tO6TXUKKKKACiiigAooooAKKKKACiiigAooooAKKKKACiiigB8ZCyITwMivo7xhYSeINe+Leh2FzbQazdXOnzxRXFylv50KLlwGcgcZU4z6V83V32pfEjS/E2jqniHwzHqOvRWv2WHWbe9e3chV2xtKgUrIV454JAANeDmWFq1qlOpTV7emj5oSTs2rr3LPW+uhtTklo/63X6nqV7o2leKPiVqbSx2PifV7bw7ZvpllcXO2C9uBFGGJbcu4gZO3IzVLx5Bf2vwN1eDVPD2jeGb1dYti1jpIIO0o+GkHmPgnBwMg4HTkV8+UVyxyWUZU/wB7dQ5ej+zbb3rJP/C3fr0KVVLp/VrH0P4o+HGueMPEHw9v9KjintLbQ9N+1SG4RPsqrli7gkELjkEDnBHUVHoN1b+Lvid8X5NNuYTb3uk3yQXDOFjbMkahtx4Ck9zxg5ryLx14z/4TS40aT7H9j/s7S7fTceb5nmeUCN/QYznpzj1NHgvxn/wiFv4hj+x/a/7W0uXTc+bs8reVO/od2NvTjr1rmWV4r6r7z95KyVtveUnd3s9vIaqRTj/27f5Hdax4bv8A4d/BHUdM8QRpY6lq2rQTWlmZUeQxxo26TCk4XJAzXE+Hfhzqfifwpr3iC1ns47LRlVriOebbK2f7i456dyM9Bk1ytFe7RwtajCVqi55S5m+XTorJX7K27118jLmXuq2i/wA2/wBT0z4EErrHisg4I8M6j/6LFcHaeINQsdHv9Kgumj0+/MbXMAA2yFCShPHYk9Kz6K3jhYqtOrLXm5dLbcu3+fkLm93l83+KS/Q9+1rwPqvxF1bwN4i0EQXejW+mWNvdXf2mNFs3h4kEgLArjGenPaodJ1zT/FXxZ+J1tY3kA/t+wvLTTpZZAkc8pZSqhjwN204JrweivIWUS5HCVTRLljpt7ylrr72qX8v4lqpa1lrp/wCSnr2veH734dfBW90XX0jsdZ1PWIriCwMqPL5McbBpGCk4XJAGetN8EeHr/wAcfBPV9C0OAX+rxa7DetZpIqyeT5DJvAJGRu4ryOiun+z6jpNe0XO5qd+XS6t9nmvay/m8w9ok1ZaJNfff/M9g+CkcvhfxX4s0DUbSzGtXGlzWUGn6owEM1wHRvJchgPmCkfeH1qx8SrjxHovw/k03VvDvhjwnb3t7G/8AZ+nh1vJWRTiTb5jqEGSMnB5GK8XoqZZZz4pYmUk9m1Z7x7e9ZfNN+YRqcqaS7/irf1setWttJ4m/ZvlgsFM91oGutd3kKcslvLCFEuP7oZSCe1eS1s+FPGGs+B9XTU9Dv5dPvVBXfHghlPVWU5DKfQgis7UL6XVNQubyfb51xK0z+WoVdzEk4A4Ayegr35tSlzLy/BJfoc8Vyq39au5Xrsp/+Kd+HMMX3bvXJvNf1FvGcKPxbJ/CuRgaNZozMjSQhgXWNgrFc8gEg4OO+D9DXSal4j0fWGtzd6fqkv2eFbeIDUYVCRr0UAWwrOUeeyvp/X6ile6Lvw0t2u18SwK6o0mkyorSNtXJZQMk9B71PqOk3PhX4dXFlqarb3l7fxyQ25dWfYqHL4BOBkgVQ0fxRomix36QaPqDLe2zWsnmakhIViCSuIBzx3zWb9r8Of8AQK1T/wAGcf8A8j1m6TlNu+mn4akKL5m33/Sxq+PmK2vhMg4I0eEj/vp6v+Adem1HWtca8a3vdS1CyZIkvcCOeQFSEbBHUL6jpXN/a/Dn/QK1T/wZx/8AyPR9r8Of9ArVP/BnH/8AI9V7FOLi33/EOX3VE6XxhNq2n+FzZ32laPokdxcq/wBltQwuHKg/PjewC84ya0dQ0C78Qat4Y1qx8uTTEtrSOW481QIWQgMrAnOc9u/auJ+1+HP+gVqn/gzj/wDkej7X4c/6BWqf+DOP/wCR6lUbbSV/mJwdrLz/AB+ZreJPD2o+I/H3iCDTbR7uWO5kdlTGQu7GefrWr8UvCerx3UOotYyCygsbeOWbjCsFCkdfXiuU+1+HP+gVqn/gzj/+R6Ptfhz/AKBWqf8Agzj/APkehUXHltJaeTKtLm5v66eZ12veGL/xlNompaUY5LH7Dbwy3PnKotmQYbfkgjHWuSt5IrHxpbu98L2GG+QteEnEgVxl+T04zSfa/Dn/AECtU/8ABnH/API9H2vw5/0CtU/8Gcf/AMj1cafL9rQSi+Xlfoa3xE8LapY61qurTWjLptxeSNFchlZHDMWXGD3FcdWxPdaA0Mgh0zUo5ipCNJqMbKGxwSBAMjPbI+orHohFwiot3NVe2o6ONpZFRFLOxwFHUk1oeIPD1/4X1OTTtTgFteRgF4hIr7cjIyVJHSm+H9Si0bXLC/mtvtcdrOkxg37N+0ggZwccj0pNe1m48Q61e6ldHM91K0re2T0HsBx+FZ3qe1SS923zv0/W/wAjoSp+ybb966t6a3v+FvmUK3tA/wCQH4h/69o//Ri1g0VVSHtI8t+q/B3HQq+xnz2vo/xTX6ncav8A8e3if/rjY/yWrZa41K00qaw0vTdQhS1jje4uPvRMowQ3zjAHXpXnlFcP1LRJS1Xl5Jd12PV/tS823DRp9V/M5dU+9tjYvb5p/FLXVxJCzfaVZ5LfPlnDDJXPOOKu+MtDvodUv9RaA/YZZyyTqwKsGORjBrmqK6vYuMoyi9lbbp9+hwvEqcKkakW3J8179dd9HffyOo8RH/TvDv8A14W/8zWkzK/jHxLa71jlu4JYYt52hnO0gZ98GuForD6p7qjzbK34p/odKzC03Ll3cXv2TVtut/kdVcafP4f8J3ltfqILm6uIzFCWBbaoOWwDwOat3mk3GsyaFqFpsezjtoYpZfMAETIfmB5//XXFUU/q0vi5veu+mmqttfy7k/XaduTkfJZJa66Ny3t3b6I7G6a7Hj7U/sLwCctIBHcEbJQRynPBz+FM8QaVHDobXN3psWkagJVWOOGQ4lUg5Owk4x61yNFCwzjKLUtrert8/wA0ypY+M1UUoX5nJ7qyv8r3XdNeZ6HYwfCg2Vuby98ZLeeWvnCCztDGHx820mUEjOcZ5qj4FGnr8YvDg0lrl9N/tq1+zteKqzFPOXG8KSAfoa4qrWl6pc6LqdpqFlJ5N5aTJPDJtDbXUhlOCCDggdRivVhNRqRm1szwpRbg4p7nR/Fz/kqnjD/sL3f/AKOauSrqPG3xK8RfESS3fX72K8e3LtG0dnBAcvjcSY0XdnaOua5eueK5Ul2NpPmdztvhleS6f/wklzAwWaHSpXRmUMAQy44IIP41h614y1jxBbpb314ZLdG3CGONI0z6lUABP1rFoqPZrm52ZqKTbPUL7w7eeKdS8Natpwjn06K0tY55/NUCBo/vh8nIxWPLCfE3jzXLnSdUW0uxLJPZMH2GchsbVfIwSOR61w9FQqTXXvb5kqDStc9G8XQ358HtJ4oSFNcFyotH+QXEkeDv37eqjjBPesjwx/yIfjL/AHbT/wBGmuQopqnaLjfqn91v8hqOiX9b3CiiitzQ9V+AP+u8f/8AYpah/JK8thhkuJkiijaWWRgqRoCWYngAAdTXX6T8XvFeheFZvDljqMVvpE0EtvJCLG3LtHISXUyGPfzuP8XHbpWR4R8Zat4F1RtS0W5WzvzE0Kz+WrsgbGSu4HB46jkVpJxcl2St+Lf6kK6T7t/ol+h3fx5T+x4/BPhuYj+0dG0KKK9jByYZnZpDGfcBlz9a8pqa8vJ9Quprq6mkubmZzJJNKxZ3YnJJJ5JNQ1DfM3J9W39+pSXKkl0CiiikMKKKKACiiigAooooAKKKKACiiigAooooAKKKKACiivUtS8F+BvAs9vpPiq+12414xRy3Y0lYRBZl1DBDvyXYAgnGBzXHiMVDDuMWm5O9kld6bv0V196KjFyPLaK9Otvgbql38Q5dBs3j1HTreW2klvEnit2a1mwyyKsjDLbCeAGwR371PiZ8G9Y8A32rXH2df7At7tobe4kvbeSVk3EIWRG3ZIxn5Rj0Fc0M0wdSrGjGquaSTSv3tbTe7vtuX7Odm7bHnlFdnoPwc8ZeJtIi1PTtDlns5gTC7SxxtKB1KIzBn/4CDWNoPg3WvE2pXen6bp8lzfWsMk81vkI6rH9/hiMkf3Rz7V1LGYaXNapH3d9Vp69vmRyysnbcxaK6nxV8MfE/guwgvtY0p7Szmfy0nWRJU34ztYox2tweDg8GrWg/B3xj4m0iLU9O0OWeymyYXaWONpsdSiswZ/8AgINS8dhVTVZ1Y8r0vzK1+172HySva2pxlFdz8Ofh2PGN14nsrmK8TUdN0ya5t7WEBXa4R1VY2UqT1YggYOe9Zfiz4b+JPA9vbXGtaY9pb3JKxTLIksbMOq7kYgH2PPBpLG4d1nh+dKfa+91fTvoHJK17HNUUVs+GfB+seMri6g0axe/mtoDcSxxsoYICBkAkbjlgMDJ56V1VKkKUXOo0kur0IMaiul8WfDfxJ4Ht7a41rTHtLe5JWKZZEljZh1XcjEA+x54q9oPwc8ZeJtIi1PTtDlns5gTC7SxxtKB1KIzBn/4CDXM8bhY01WdWPK9L3VvvvYvlle1tTjKKkmhktppIZo2iljYo8bghlYHBBB6EGo67d9UQFFdjpPwh8Ya7ocOr2WiSzWE5PlSGSNWkAOCVRmDFR6gY96o2vw78Q33iLUtBt9NabV9OSWS5tUkQsgj+/g7sMR6KST2zXGsbhW5JVY+7vqtLd+xXLK17HOUV1Pir4Y+J/BdhBfaxpT2lnM/lpOsiSpvxnaxRjtbg8HB4NWdB+D3jHxLpMWpadoks9nMCYXaSONpgOpRWYM//AAEGk8dhVTVZ1Y8r0vzK1+172HySva2pxtFa+h+EdZ8Sa8NF03TprnVCzKbULtZSv3t2cBcd84xXYa18I7rwt8O9S1jWoLiz1e31GG2iiWWN4HidGJYFc7jlSMhscEYpVcbh6M405zXNK1lfXV2TtvbzCMJS2X9bnnFFeqeA7XT/AAP8N73x5eafb6tqst+NL0m3vYxJBC4TfJO6HhyAQFB4B55rj/Dvjy/8PeKJ9c+z2WoTXRk+1W97apJBOrtudSmMAE/3cY7Yr0XFKXK3/T1RlzNq6X9dTm6K7/4x+FdM0HWNK1PQ4mttE1/T49TtrV23G33ZDxZ7hWU4PoRXAVGqbT3RW6TXUKKKKACiiigAooooAKKKKACiiigAooooAKKKKACiiigAooooAKKKKACiiigAooooAKKKKACiiigAooooAKKKKACiiigAooooAKKKKACiiigAooooAKKKKACiiigAooooAKKKKACiiigB8X+tT/eFfSviS11ebxF8XJfDMdy/iRLnT1iawBNysBH7zZt+bBwucdhzXzPXpusePvDniu3k1fUV1zSfGH2TyJLnSnjNveOqBUeQMQyZwobbkcZxXz2aYepWqU5RV0rp6X+1CSurq6fK07dzanJLR/1uv1v8jZ+JbPb/ABy8MtdMiSJHpJmYEbQQke48cY69OK5f40eH9UsfiP4qvLjTbuCzk1S4ZLiSBljYNIxUhiMHI5FcNcXU10yvPLJMyqEDSMWIUDAHPYCtTUvGXiDWNOTT7/XNSvrBCCtrc3ckkSkdCFJIGK1w+Bq4aVFwknyx5X07ar7tgc000+tvwTX6nr3jDw7r2v8Aiz4aX+iWN5eWH9k6alvc2kbNFGyH5xuHClTknOMd6t6Tfxt8c/ild6fMAq6Xqrxywn+IKMsCP9oHmvFNO8Xa7pFhJY2GtajZWUmd9tb3UkcbZ65UHBqlY6peaW8z2V3PaPNE0EjQSMheNhhkbB5U9weDXF/ZFV05U5TVlFxWnRyTu/PT82VGoo2fnH/yX/M0tP8AGGoad4V1Xw9GY207UpIppldSWV4zlSpzwT0PqK9R+InhnxH4j1j4f3nhyyvLu3bRLCKyurSNmiilQYYbgMIVbk56dTXiVa2neLtd0exksrDWtQsrOTO+3t7qSONs9cqDg16WJwUpVI1sPZSV73Wjukr6ddF8tDKMtGnta343PVPA8mqWfiT4rnUr6O71ePQb5bi7tmBV5A6BiCAO+ecVh6S7Sfs76+jEskev2zopPCkxOCR9RXndnql7pq3AtLue1FzEYJxDIyebGeqNg/MpwODxxQmqXkenyWCXc62Mkgle1WRhEzgYDFc4JAJ5rH+zZczldfFB7W+C33X6djT2mt/8X4qxp6P4H13xBoOqazp+nyXOmaYA13cKygRAjPQnJ454BxXZfBGaS3tfiDJE7RyL4Yu8MpwR8yV57a61qFjY3VnbX9zb2d0ALi3imZY5sdN6g4bHvTLLVLzTVuFtLue1W4iMEwhkZBLGeqNg8qcDg8cV1YnD1cTSqUptWbVtHsrPXu7326ERkouMuqf6nomks0n7O+voxLJHr9syKTwpMTgkfUV1PjDw7r2v+LPhpf6JY3l5Yf2TpqW9zaRs0UbIfnG4cKVOSc4x3rxJNUvI9PksEu51sZJBK9qsjCJnAwGK5wSATzV3TvF2u6RYSWNhrWo2VlJnfbW91JHG2euVBwa4amXVeeVWlJXbk9U7WlFL79Lj5k48r7Nfjc3fjNcW938VvFUtq6SQNqEuGj+6TnBI/HNcXW/4T8Vx+Fpbl5NB0jXfOCgLq0LyCPGeV2uuCc85z0FaXiD4iQa9pM1inhDw1pTSbf8AStPtZUmTBB+UtKwGcYPHQmu6j7XDKGHjTcoxSXNddEle245NVJSm3a56hrnhfXvEniH4X63olpcXOiwaXp6fbYMmG1aJv3odhwhBBznr707S5pLb47fFWaJ2jlj03VnR1OCpAyCK8+8C694Q0Wxs5NYvfE7XkNyLh7DTxCLOQo4ZMlnzzgZO36Vz3iDxrf6x4s1zXLaabTZdVlmaVLaVl/dyEkxkjG5cYBB4OK+ehl1epKdB/CouKbVt5J93f1Wn3mkZqKUut4/+S3IdP8Yahp3hXVfD0RjbTtSkimmV1JZXjOVKnPBPQ+or3GHwrZaBr3hC0fwv4h8Xzi2s54ddbUpI7aBTh8RgRsqxx57sMYP1r5zrXt/F+u2umrp0OtajDp6nItI7uRYgc5zsBx156V7OOy+WIt7F8t733V20le8Wnolts+phGVtH2/W57hb28t18WvjLY2CM2p3WnXyWsUX+skbzELKg7kjPA5Ncu2i6rov7Oeqx6naXNiJNfgeGG6Ro2x5TAsFPOCRjPcg+leXf27qX9rHVf7Quv7TL+ab3z287eerb87s++an1LxZresRTRX+sahfRzOskqXN08gdlGFZgSckAkAnpXJDK60HBKSsvZt6O94JLTydv6ubuqnJyt1k/vVj0KeNtT/ZltGtx5n9l+JJDdBeTGssChGPoCQRn1ryium8C/ELVfh/e3MtgLe5tLuPybzT76IS211H/AHZEPX2IwR60eHPGw8M+KrjXLfRdMuZGMjW9peQmW3tmZsqyqTyU6LnP419VLllLm72/BJfjY4o3jG39au/6nYfHKNtN0f4c6RONl9Z+Ho2niP3ozJI7qrDscEce9eU1o+IPEGo+KtZu9W1W6kvdQun8yWaTqx/oAOABwAMVnVDfNJy7tv73cpLlSj2SCiiikMKKKKACiiigAooooAKKKKACiiigAooooAKKKKACiiigAooooAKKKKACiiigAooooAKKKKACiiigAooooAKKKKACiiigAooooAKKKKACiiigAooooAKKKKACiiigAooooAKKKKACituTwuyQyumpadMY0aTy4p9zEKCTgY9BUWl+GdS1VYZo7K6+wPKsTXiwM0SZYDJbGOM+tRKcYK8nYqMZSdoq5k0Vs+IvDcuh+Kb7RIGe/mt52gVo4yGkIPZQT+XNU9S0XUNFkWPULG5sJGGVW5haMkeoDAVMasJqLi91dehpOjUpylGS+F2fkylRXUeF/B9rrGj3+ranqv8AZOm2kkcJkW3M7vI+cAKCOMDrmsPVreztdQmisLxr+0Ujy7h4TEX4GfkJOOcjr2qY1oTm6cd1vo7fft12uOVGcaaqPZ7aq/XpvbR62sU6KK6S1+Gvi++Utb+FdbuFFul2Wi06Zh5LglJeF+4wBw3Q4NaSnGCvJ2MoxcnaKuc3RV3TNE1HWpp4tOsLq/lghe4mS1haRo41GXdgoOFHcngVb17wdr/haO3fWtD1LSEuBuha/tJIBKPVSwGfwo54qXK3qHLJq6Whj0VuaV4F8Sa9pc2pab4e1XUdOhz5l5a2UssKY67nVSBj3NZum6ZeazfQ2Wn2k99eTNtit7aNpJHPoqqCSfpRzxd7PbfyDlaSdtyrRXoF58HdT0j4b6v4n1cXekXunanBpzaRe2TRSESRs4kJYgr93GNvOetaHhvwKln8MPEuq694C8V3VzPbxTaNrlvaSrYW65JeSRyApUjGD8w+nWuaWLpKLlF3s0tO7t3tfR39DeOHqOUYtWum/uuvzVjy+ip7GxudUvIrSzt5bu6mbZHBAhd3b0Cjkn6Vf8QeEtc8JzRw65ouoaNNINyR6hayQMw9QHAzXVzRUlFvVmCi2m0tDJor1q3/AGaPGtx8N5/Eo8P68NSTUksk0T+xpzNJC0Rc3AOM7AQF+7jJ69q8/tfB+rT+LLbw3NYz2OsTXUdp9lvImikjkdgAHVhleo6isqNeliJunSkm07f195dSlOlBVJqyev5/5GLRXoXxWPhrw/dP4S8PaakjaXcGO812dma4vJlBVwoztSMNnCgc7Qc1f8PaPofxM8D6laWmlx6R4u0CwN6k9szeXqVvHjzA6EnEoB3bl+9zkV0WTTad7fl3Mb6pNbnl1FORGkdURSzMcBVGST6Va1bRtQ0G8az1OxudOu1AZre7haKQAjIJVgDyKQynRRRQAUUUUAFFFFABRRRQAUUUUAFFFFABRRRQAUUUUAFFFFABRRRQAUUUUAFFFFABRRRQAUUUUAFFFFABRRRQAUUUUAFFFFABRRRQAUUUUAFFFFABRRRQAUUUUAFFFFABRRRQAUUUUAFFFFABRRRQBtW62bak508XBgFpOW+0bdwPlP8A3e3SvQfEGr6rpviDwHY6dc3EFi2nWRjt4WIjkLn58qOGyeDmuBvtWt9PtX0/Sv8AVMNs90w+eb1A9F/z9bGn/EjxJpWkxaba6pJHZxZ8tCiMUBPIViCwHsDivOxeHnWcZRSdr6PzVr7PY78LWjSU4ybV0tVvo0+6PSNLaC3+K3xCuZnuInt7S6kSWzUGeP5lDNHkgbgpPeuc8SeI9M1L4e3FnaN4i1RVvUkjvtWhQxwNtIZA6ucFgc7fbNcYvizV4/EMmux30kWqyOZGuIwFJY9eAMYPpjFS+IfG2t+KoootTvmuIYiWSFUSNAx77UAGffGa4YZfUjUhKTTSUev8q6aa/evQ9GpmNOUaiimuZza06S766fcz0LSfiJr3/CrNWvftUH2m3vreCNvsUGAhVsgrsweg5IzXluratda5qE19euslzMQXZI1jBwAB8qgAcAdBT4dcvYNHuNKSbbYTyrNJDsX5nUEA5xkdT0NUK78NhIYec5xild9F0stPvR5+Ixc69OnTcm+Va3fW71+52CvqL4j+MvF2geNvgvZ6LqepWVrJ4f0dobe0kdI55GO18qOHJAVSDnjAr5dr37xv+0nreit4Xh8CeJpIbS38N2Nndr9kVvKuo0ZZNnnRkq2No3p1wOTisMdSnUqUuSCla++23V2f5EYeUYxqKUuW66b7rbVfmdj4bmTw7+1B8ZrjStlubTSNZmh8tRtSQKG4HThs8V4jJ8adc1P4c634S1ya41+K/uoLy3vNQunlkspEJ3FN2fvg4PI7+tc5ofjrXfDmpapf2GoPHe6pbT2d5PIiytNFN/rQS4PLf3hz71g1NDL4wa9raVowSfW8L6/fb9TatjHPmdPS8pv5SSVvzPsXxN4y8OeC7r4X27a349024h0HTbiy03wvFC1lOzDLfK0ql3d9wbg56c1yngbV1k+KHxx17QNNvtA1GLQtQurC1uIPIvLJ2kj3/ICdjgFuh4zXk/hn4/eP/B2gw6PpPiOa20+33CCN4YpWgz1ETuhaP/gJFc54b8eeIfCHihfEWkatc2ethnc3gbe7lvvb92Q+c8hs5rijldRRqRbV2mlrvd31VtPPWXU1+ux/d+Ti3/26raO/6I9dbxBrfiP9knXZ9ZvrzUhH4otooLi8kaVtvkuSgdiSQC2cZ4LH1qt8D9c1K++HfxZsrnULq4srfwu3k28szNHH++jHyqTgcelcL4t+NnjXx1o9xpWua217p000dw1t9mhjQOgYKVCINo+ZuFwCSSQTW1o/7TvxH0DS4tOsNbtLezjgW2EY0exbMagAKxMJLdB94nNbSwdd0akIxjeUr7uy0j/d307IiOIpKpTk5O0V21fvN9+z7mv+zPNcaf8A8LI1LTS0et2PhS7msZoR+9hffGGePuGCk8jkZrnr3xd498TfCG8i1Np9Z8KW+qRt/aWoOZpLe6KHEcbs24BlJJUAjvxWK3xa8Wf8Jwvi+LV2tPEQAX7ZZwRW42hQuPLjVUIwMEbcHvmneOvi94v+JVvbW/iLWZL61tmLxW0cUcEKsereXGqru684zya6Xhqsq/tZRi78t7ttq3bTXyenozKNaEafIpPTm+d0lrrp+N12PTNP8beI/wDhlXVLwa/qn2yPxbBCLgXknmLGbRzt3bshc9uma8++EOrS3Pxo8J32o3UlxNJq1uZLi4cuzEuACWPJ7dapeA/i14s+Gcd5H4c1Y2MF4VM8ElvFcRSFc7SUlVlyMnnGawtY8Q6hr2vXOs3k4bUribz5Joo1i/eZzuCoAq8+gFdeDpPC4mVTlXK3fTfppa3l3+Rz4iar4eNO7uk15bt3387bfMvfEG2ls/HniOCZCksepXCsrdQfNau1/Z1Ux+KPEV03FvbeHdQkmfsq+Vjn8SKwvH3xGtviHYWl1f6LFb+KkZVu9Yt5Cq3sYUgGSLGBJ93LA846U6b4lQ6f4DPhnw/o8ekfbY0Gr6iZTLcXxXnaCQBHHn+Ede5612xiqcXG99LferXOaTc2nbrf7nc4uzmntryCa2ZkuY5FeJo/vBgcgj3ziuh+ImueKfEHiWS68Ym8OteUiML238iQIB8o2bVwMHPTnOa521upbG6huIJGinhcSRyL1Vgcgj8a1/GHjbW/H2tNq2v37ajqDRrF5zIqfKvQAKAB+Xeh/Cl5/wBfMOrZh0UUUhhRRRQAUUUUAFFFFABRRRQAUUUUAFFFFABRRRQAUUUUAFFFFABRRRQAUUUUAFFFFABRRRQAUUUUAFFFFABRRRQAUUUUAFFFFABRRRQAUUUUAFFFFABRRRQAUUUUAFFFFABRRRQAUUUUAFFFFABRRRQAUUUUAFFFFABRRXTaDp3he58J6/c6rq11Z6/AI/7Ms4YC0dwSfn3tjjA9x+PSn0b7C7HM0UUUhhRRRQAUUUUAFFFFABRRRQAUUUUAFFFFABRRRQAUUUUAFFFFABRW+ngu+k8CyeLBLb/2dHqK6aYtzed5hjMgONuNuB1znPasCm9HZhurhRRXY+CvhjfeNNLv9U/tPS9D0mykSGW+1e4MURkcEqi7VYlsAnpQk5bCbS3OOorU1jR4dE16XT21K01GCJ1Vr7TWaSF1IBJQsFJxnuByK0vG+l+GrPxY9n4U1ebU9EYRiO+vojEdxA3ZG0HAOecfn1Ja9vMLnM0V6B4n+D1z4c8Iy+I4PEnh/XtOiuks5P7JuZZGSRlLAHdEo6D1rz+h6OzBaq6CiiikMKK3PAuk2+veNvD+m3as1reahb28yqcEo8iqwB7cE10Hxfj8M6b4pvdG8O6BPo/9l3lxazzzag1z9p2vtVgpQbPuk4yfve1U1ZJ97/hb/MSd21/XX/I4Oiuk0vwHf6t/YfkzWy/2uZhB5jsNvlZ3b8LxnHGM/hXPxwvNMsSLvkZtqqO5JwBWakm7IXMn/X9diOiui13wXJ4ft5mudV0x7qEhXsoZmaZSTyMbccd+apada6TLo+pS3l5NBqMYX7JAkeVl5+bcccYH0/GkpprmWocy3RlUVs+H/Df/AAkBZRqmn2EgdUWO8kZWkJ/u4U5qnrOly6Hqt3p87I81tIYnaMkqSD2yBxT5lzcvUd03YpUUVpeHdBuPE2sW+m2rxxzzbtrTEhRhSxyQCegPam2krsG0ldmbRWnfeH7jT9F03U5HiaC/MqxKpJceWwU7hjHU8YJr0X4YaL4R8ZeF/EVhd+H7hdd0vRLzU11ZdRbZI8fKDyNmBjcP4jnb71UbSTae1/w3Ffbzdvxt+Z5PRRRSKCiiigAooooAKKKKACiiigAooooAKKKKACiiigAooooAKKKKACiiigAooooAKKKKACiiigAooooAKKKKACiiigAr3X4Z+PfEHiD4VfELRNR1Sa60rTtAUWlq+NsWJUUYwM9OK8Kr1Lw/8e5/Dekz6daeCvCXk3NstpdO9nOXuUGD+8ImAJJAJ4HNaRa5ZJvdNfemvwM5J3i0tmvwaLXwb1y98M/Dz4l6pp0ogvrW3094ZSivsb7UBkBgRnn04r0D4t6pNrHhf4p2FykBtNKu9JurKOOBE8mWcZmcEAHLkknPrXil18TLqW18TWtpo+k6VZ6/FbxXFtYwyJHEIXDqYgXOCSOc56nGKl1r4tavr1v4nhuLaxRfEJtDdGONwU+zjEfl5c4z3zn2xVc6cOV/1rcSjZ38/wBF/wAE9t8K32oeCX8KeHtU8a6D4WZorbzvDdro8tybpZSD/pMmxgZHDAH5sDIxisHw7pNl4Q+LfxavdMs4Fn8O2N9c6XE8YdLeQSKFdVPHyBjj0rh4vj9raxafJPo+gX2rWEccUGtXWnh7wKmAo37sZAGA2Nw7EHmqvhn4g+ItT+LE/iGwv9L0XVtWllM73jLHY7XBLpJ5hI2HGMMTzjnNaSmpT93+9+O33f8ADEKLjDX+7+G/3/8ADnYa54z1fxz+zjquoa3It3fL4jgjN55KxvKBA5AbaAGIz164IHYV31zrulfDuDwjpcHjrTvC+lDSrO6vNEl0OW6F6ZFDSPLIsbBt+SOvGO1cT8VPFAg+Ez6FqGseG77VbrV47qCx8LNEbW1t0iYEnygFDM7e5P4Vxej/AB01jS9N0y3uNH0HWbrS41isNR1Ow865tkU5RVbcAQp6bgcUvaKMpesfwjZ/j8tA5HKK+f4vQ5j4gPosnjbXH8OsG0J7uR7MqjIPKLZUBWAIA6YI7Vz9W9V1S61vUrrUL6Zri8upWmmmbq7sck/maqVyRVkkdLd3c+htD8M+O5tF097f4KeGb+3a3jMd1LZSF5lKjDsftAySOTwOteJeMoLu18U6pFf6XBol4k7CXT7ZSsdu3dFBZsAfU1jUVrOXM7oiMeVWCvobxt8WNf8Ahzpfw0j0WaG1ik8N2kt1m3jdrld7jy3LAnZgHgY+8a+ea3/FfjS+8YQ6HFeRW8S6Rp8emweQrAtGhYgvljlvmPIwPaqjNxjZb3T/AAf+YnFSevZ/mj2D4XXXhrxD8RvH/iiwhh8O2Nnpst9p73tr9oTT5GZFMvlKGztLMQADjI44ql8VvF2geJvh2Ibzxpa+M/FcF+j2t5FpM1pKtsVIeNmaNQy52kZOa8s8F+NtT8B6w2oaYYXMkLW89vdRCWG4hb70ciH7ynA/KtTxf8UtQ8WaNDo8emaToOkRzfaTY6Na+RHJLjbvfLMzEDgZOKUpL2aguiX53/L59NhRi+dyf9aW/roeu61421TwN4j+G3hLR/s8Ph640/TLi5sjbRst1LMwMkjkgksT0IOQRkYqNufiJ8fgOT/Zl+f/ACOlcV4P+N2pLceF9M1Gx0O4GnTQ21vrV7aBru0txIPlWUttAUE4JGV6gjrUHiz4jXXhT43eK9e8P3VpeQXN7cxncFuLa7gdjlGHR0YY6H0rWpJSd76Pn+V0rfdf/IiEWla23J+F7/eS6Rx+zT4hJ6HxHagf9+Hr1y513Svh3B4R0uDx1p3hfShpVndXmiS6HLdC9MihpHlkWNg2/JHXjHavAfGfxT1LxlpFrpA0/S9C0a3mNwunaNbeRC0xGDI2WYs2OOTwK1NH+OmsaXpumW9xo+g6zdaXGsVhqOp2HnXNsinKKrbgCFPTcDiiNRJt+cfuSt+ffQHTbSXr+LubHhHxZ4N8KfGnxBqNrKINAmW6j0nUFszMLF3/ANVMIXAJC8jGM81f+LU3iTxB4Dh1S58T6P470W3vljGrW8BivbR2Q4jcMqsqMBnBzyB0rzvw/wDEnWfD/ii+17db6jd6gJEvotQhEsN0shy6unHBPPGOlXfFnxYv/FHh9dDg0jR/D2keeLqS10a1MKzSgEBnLMxOATjnFY3/AHSjfVW/P+td/kaW/eOX9bf15Hqtr8cPHS/s/wBxrQ8R3I1SPxFHZJc7U3CH7MzbPu4xkA14DrmuX3iTVrrU9TuGu7+6fzJp3Ay7epxXS+C/ilfeDdHvdIOlaTr2k3Uy3L2OsWxmjWVQVEi7WUhsHHXpXP3euG48Qvq0NlZ2TG4+0JaW8RFvGQ2QqoxPy+xJqpyU53b00+WiT/zFFcsbJf1dmZX0Xo/xMg/4UHrGof8ACFeFtsGtW9ubP7JL5EpMTHzHXzclxjqCByeK8c+I3xC1H4n+JpNc1WCzt7t4kiKWMRjjwowDgkkn3JqvbeNb618D3vhVIrc6fdXsd88jK3miRFKgA7sbcH0z71Kk1GS7/wCa/Qbjdxf9bf5lqz+JGsaH4suvEHh/yPDF3cJ5flaVHsijQhcqquWIBKg9TzXZftOXc2ofEHT7q4kMtxNolhJJI3VmMIJP5muB8IeKo/Cd7NcSaFpOvCSPyxDrELyxpyDuUK688Y69zXVeOvjbc/ECxkgv/Cnhm3uWhjt0v7S1mW4ijTG1UZpWAGBjoeCacmnTUb6p3/Br9QSfPe3S35f5F3R/+TafEP8A2Mdr/wCiXq3+zfY2B1XxTq15c29jNpOjSXNrfXVsblLSQui+d5YBLFQxxwetcf4J+Jl/4L03UNNGnaXrek3zpLNp+r25mh8xM7XG1lIYAkcGnad8UNQ0Pxhc6/pOnaXpYuoTbz6Xb2xNlJCVCtG0bs2VbGTz154q1JKbl3X3Plt+euhHK3Hl7P8AW56B8VvF2geJvh2Ibzxpa+M/FcF+j2t5FpM1pKtsVIeNmaNQy52kZOa6Dwd4/TUfDPhXSfCHjbTvB99bWyW13oeq2BEF9c7jukaYIwYPkDDYxXkHi/4pah4s0aHR49M0nQdIjm+0mx0a18iOSXG3e+WZmIHAycVq6R8ctS02x0yG68PeHNautMjWGz1DUtPMlxEinKDcHUNt7bgacZq7b2bX4K39X33YSi7JLpf8/wCtttiLQ9PvtL+Pml2mpWcGn38XiGBZ7W1XEUb/AGhchBk4X09sVk/Fz/kqnjD/ALC93/6OaodI8aTN8SbDxVrUkt5MupxahdtGo3viUO20ZAzwcDgVo/FjWfCfiTxFc6x4afWvO1C6nuruPVYYY1Qu25RH5btkctnPtWH/AC7h5X/Hl/yNfty87fqY+m+Nb/S/7G8lID/ZRmMG5W58z727nn2xik8G6wuma1AG0+zvjPNGoa7RmMfzdVwwweffoKwKmtLlrO6huEALxOsihumQcjNZ8kdfMiUU4tI7P4leIEuPEGs2A0jTYmW6YfbI4mE5w3Utuxk9+KseFfEWpal4P8S6fc3bzWdrpo8mFsYTDqOPwri9Z1WXXNVu9QnVEmuZDK6xghQSe2SeK6HTfiLJpdlJbQ6DouyWIQzM0Em6VRj737znkZrn9k1SUErsUo7WX9XMDQf+Q5p3/XzH/wChCtL4hf8AI8a5/wBfcn86zNQ1Q32pG8itrfT2ypWK0UqiEAcgEn0z1rV1rxtJr9vOt1pOli6mwXvo4GWckEHOd2MnHPHc1q1LmjK39aFa81z0CTULPwzHotpH4htdItPscE09g+nvL9o3DLM7BTndyOvFefTa5B4f8a3GpaEI5LaOeRrYSIwTYwIxjg4wamsfiBe2draRS2WnX0tooS3uru33yxKOVAORkDtkHFc7eXk2oXU1zcSGWeZzI7t1Zick1nTpNSfN1uRCHKrMtXmt3F9pOn6dIqCCxMhjZQdx3kE559R6V6L8Af8AXeP/APsUtQ/kleVV6j8OfGXgzwV4X115v7dm8S6po93pjRxwQmzQyfcYMZA/QLn5e5612QSipekvxT/Ut7xt3X53PLqKKKksKKKKACiiigAooooAKKKKACiiigAooooAKKKKACiiigAooooAKKKKACiiigAooooAKKKKACiiigAooooAKKKKACiium0HwnYax4T1/V7jxDY6bd6aIzBplwf317uOD5fPb2B98dadtG+wuyOZooopDCiiigAoorV8Q+F9T8KzWcWqW32WS8tY72AeYr74ZBlG+UnGQOh59RR0uHkZVFFFABRWqvhfU28MP4hFtnR0uxYtc+YvExQuE253fdBOcY96yqNtGAUUUUAFFFFABRRRQAUUV02g+E7DWPCev6vceIbHTbvTRGYNMuD++vdxwfL57ewPvjrTto32F2RzNFFFIYUUUUAFFFFABRRRQAUUUUAFFFFABRRWrF4X1ObwzP4gS2zpEFytnJceYvErKWC7c7ugJzjHvR5gZVFdr4A+HsXiiy1LWtX1IaH4Y0vaLu/MZkd3b7sMSZG52+uAOTWd4d0/wxqXiie01TVL3StFkMi2199nWV4zu/dtKgPTH3tpznpVcrul3J5lZs5uiug8deC7/wAA+I59IvzHK6KskVxA26K4iYZSRD3Vh/Udq5+pKCiiigAooooAKKKKACiiigAooooAKKKKACiiigAooooAKKKKACiiigAooooAKKKKACiiigAooooAKKKKACiiigAooooAKKKKACiiigAooooAK9q8Aa1a+Kvhj44sL3w7oAfR9EWW1v4dMiS73iRF3tLjcWwTz1rxWvXfCfxd8GeFdB1HTo/h/dTtqlktlfzHXmXzgCGJUeSdmWGeDx0rSNuWSb3T++zt9zM5XvFpbNfmrlX4RtY6f4H+IOtXOj6brF1psFjLbJqVsJkRmuAp4POCDyAecYORxXb/ABS0fQZfDfxGtrTw3peltoN1ptxZ3NnBsm/0kZlRmzynPyr0AAxXmDfELS7DSvGOl6N4fk07T9fhtYo4pL8zta+VIJCdxQb9xB4+XGe9XfEnxi/4SC08aQf2R5H/AAkhsDu+07vs/wBmAH9wb934Y96vmi4cv9biUXe/n+i/4J3V9c6F4H1jwB4SXwjoupWupWVhdX99e23mXcsk7AsVkz8oXjC9OxBFeXfGKxttL+Kniu0s7eK0tYdSnjiggQIkahzhVUcAD0FewfDSbxX4z0vwjqM3gCw1aPS3itLXxVcSlPs9vHJgll3hWMY3YLA4x0J6+feKrTwz43+KnjS8vvF1voNk+oyyWtw9nNcrcgyNyvlKcDAByeuadZXkrdXJ9tNLfh/wBU3aLv05fv1ueX19KeMvGlhoPin4f6Zc+FtF1uG+0LS47ubU7bzpfLZdu2Ik4jwMnIGcnngAV5D4l8H+EtJ0ea60vx/a67eoV2WMel3ULPkgE73QKMDJ5Pautb46aDfXmgXuq+AodSv9Dsba0s521KSP5oRw0iqmHXd8wU9ORuI6FOSirS7p/Kzv+YpxctV2a+d0aHh3wfoVp8ZvG3w9mtLeS21EXVhpdzcxq8lpcLl4CrkZHTacdcjNc7q2h2vgv4I2n27T7c+IvEGpyNHJPCpmt7W3OxgpIym6TIOMZArmtN1jXPGXxQtNTtnH/CQ6jqqTxNGMBZ2lBXA7AHH4Cuq/aZ8YJ4s+LGpx2xQWGl/6BCsQwmVJMrAe8jOfyrLalG+70+6zv63dvQ13qS7b/fp/wV6HbWvxYnX9n+41T/hFvChZPEUdr9lOjRfZyPszN5hj6GTjG7rjiuW+DOj2HxA8YeKtb1PTtEjaw06S/gsbnbaaYsxZEXzACAsY3E7c4Nc14J+JGm6H4TvvDXiDw4PEejXF4l+kcd61pJFMqFNwdVbIKnGCKreFfiJb+D/FGrXljoscuganDJZ3Gi3VwzhrZyD5fmgBtwwMPjPHSteZOpzN9PufLb89TPlahypdfwvf8jvfito+jXHw7GpXMngq28UW9+kccXhC8iKz2zKc74kYgFWA+YDoea3fCllYX/hXwzF4L0PwR4iuGtFGq6frZiGpy3W4+YqGVgQpGNpQ15H4v8aaDq2jQ6X4f8IWnh23Wb7RLcSXDXd3I2MBfOZQVT/ZAwTzWxofxM8J2VrpMmpfD21vtX01EVL201B7RJihyryxKpDN6nIz3ojKN3fa6/L+tHuwlF2VvP8AP+vQ4fxNbGz8RanA2mvo5juZFOnyMWa2wx/dknk7emT6VmVr+LPE134y8Tanrl8EW7v52nkWMYVSxzgew6fhWRXLG9lc3e7seuaXD4cOm2hl+D2v30vlJuuo9WnVZjgZcAW5AB64BPWvNPEQgXXL4W2mzaPB5p2WFxIZJIB/cZiASR6kCtm2+K/jezt4re38Y6/BBEoSOKPVJ1VFAwAAGwAB2rndQ1C61a9mvL65mvLuZi8txcSF5HY9SzHkn61rNqTuv6+4iKaWpXr2rwBrVr4q+GPjiwvfDugB9H0RZbW/h0yJLveJEXe0uNxbBPPWvFa9d8J/F3wZ4V0HUdOj+H91O2qWS2V/MdeZfOAIYlR5J2ZYZ4PHSnG3LJN7p/fZ2+5kyveLS2a/NXKvwjax0/wP8QdaudH03WLrTYLGW2TUrYTIjNcBTwecEHkA84wcjiu3+KWj6DL4b+I1taeG9L0ttButNuLO5s4Nk3+kjMqM2eU5+VegAGK8wb4haXYaV4x0vRvD8mnafr8NrFHFJfmdrXypBITuKDfuIPHy4z3q74k+MX/CQWnjSD+yPI/4SQ2B3fad32f7MAP7g37vwx71fNFw5f63Eou9/P8ARf8ABPTfBXhZtPsfDFhfeF/Ael213FC11H4lv4n1O8WQ8ypkhotwPyqBkH1rnfDvgjQvDfxQ+JbTabFq1h4UtLy6srC9y8TusgWMSD+JQG5B64rHm+N2j6leaXrOq+CLbUPFNjHBGNS/tCVIpPKACO0AGCwAHfGRyCOKh8M/EbWtc+Meratoegw6lP4ka4hm0G4fzEnhk+Z4i3y54XOeOn4VcmpT93+9+Pw/1bToQk1H3v7v4b/116mlr2o6Z4v+A+p69/wjWjaRrEevQWzT6XaLCGjMLNgDnb7hSAcA4zk16Bb+DdI8J2nhbT47P4evptzp9rdanJ4lvYk1GZpVDSFCzBowAfl2+neue+KUc/hv4Iy6RqXhuz8F3F1rsc1no0E5llaNYW3zOWdmPzELk46AAVxdv8YNE1Cx0dvEvgi18Q6xpNvHaW9819JCkkUf+rWaIAiTHTqMjg0uaMZST7x/9J1/HoHLKUVbz/PT8DjfiBpemaL421yx0W6jvdJgu5EtJ4pRKrxbvlw4OG4xz3rn60bjV1vNffU5rK1CSXP2h7KCMRQY3ZMaqv3V7YHatf4jeLNN8aeJpNT0rw7aeF7RokjGn2RBjBAwW4VRk+wH9a5UrRXc6G7yZ6n4o8UaL8OdN+HqxeDPD2onUNAtbnUJr6xWR5QWcHbjG1zhsvgsfl54xUPw78J+EPEvxL8a32kRWV3oGl2Ml9pkGuSGC0DlkCicsQfLUs3BPOBmvNPHPjj/AITS28NRfYvsf9jaTFpe7zd/nbGY+Z90bc7unPTrSfD3x5J4D1S8laxh1XTr+1exvtPuGZVnhbBI3LypyAQw6Yrp506km9vet89vu09DHlagkv7t/lv+p6T8VtH0a4+HY1K5k8FW3ii3v0jji8IXkRWe2ZTnfEjEAqwHzAdDzXR+CvCzafY+GLC+8L+A9LtruKFrqPxLfxPqd4sh5lTJDRbgflUDIPrXjvi/xpoOraNDpfh/whaeHrdZvtEtxJcNd3cjYwF85lBVP9kDBPNdRN8btH1K80vWdV8EW2oeKbGOCMal/aEqRSeUAEdoAMFgAO+MjkEcU4SgpNva6+62v9dSZRlypLs/vvp/XQ2PD/gnQ/DPxK+Jskumw6tY+FLW6uLGwvsvE7iRUjEg/jVQ3Q9cU3WvE0Xir9nXWL1dH07Rp/8AhI7dJY9Lh8mB/wBw5DCPJCnBwcYBwOM5zzFl8ZmtfiP4l8SS6LDd6b4hWeG+0eac4eGUglBIACCCBhgPwpviT4qaVqHgC58JaL4VTQtPl1CPUFk+3NcPuVGUhyygsTkcjAAHTqaxv+6Uetl9/Nd/h+Rrb9435v7uW35l3Uv3P7M2jCP5Vm8TTtLj+IrbqFz+BNeVV6R8P/FmhXnhHUfBHiueaw0m6uVvrLVIIjKbG6C7SzIOWRl4IHIx+I53w5oOgXniq4s9Z8Qrp2i25kJ1CG2eVp1VsARoOcuORngd6qS5p3T3S/BJP8hRfLGz6X/Ft/qdf8aP3nhX4XzvzO3h1UZj1KrK4UfgK8qrsvip45t/HPiC3fTrVrDRNNtI9O021kOXS3jB2lyP4iSWP174zXG1nJ80pSXVt/ey4rlik+iX5BRRRSGFFFFABRRRQAUUUUAFFFFABRRRQAUUUUAFFFFABRRRQAUUUUAFFFFABRRRQAUUUUAFFFFABRRRQAUUUUAFFFFABRRRQAUUUUAFFFFABRRXTaD8P9T8ReE9f8Q2r2q2GiiM3KzTBZDvOBsXv+ntmnZ2b7C7I5miiikMKK09D8M6x4oneDRtJvtWmjG547G2eZlHqQoOBVbVNKvdDv5rHUbO4sL2EgSW11E0ciEgEBlYAjgg8+tMCrRRRSAKKKKACiiigAooooAKKltraa8uIre3ieeeVxHHFGpZnYnAUAckk9qW8s7jTrua1u4JLW6hcxywzIUeNgcFWU8gg9jQBDRRRQAUUUUAFFFFABRUlvby3U8cMMbzTSMESONSzMxOAAB1JNTz6Xd2mptp91byWl6kvkvBcqY2jfOMMGxtIPr0ppNuyFcqUV0fj7wLqPw48Sz6Hqr20l5CiOzWkvmJhlDDnA5wfSucpDCipba2mvLiK3t4nnnlcRxxRqWZ2JwFAHJJPalvLO4067mtbuCS1uoXMcsMyFHjYHBVlPIIPY0AQ0V02g/D/U/EXhPX/ENq9qthoojNys0wWQ7zgbF7/p7ZrmabTTsxLXVBRRRSGFFKAWIAGSa6/wAZfDe48B6TYyavqNpFrd0Vc6HGS1xbxMuQ8pxtQnj5M55zTs7XFfWxx9FX7HRrjULG9u4jGIrRQ0gZsE59B36VQqFKMm0nsaypyjFSktHt+QUUUVRmFFFFABRRRQAUUVJNby2+zzYni3qHTepG5T0I9R70r9B2drkdFFFMQUVILeVrcziJzCrbDJtO0N1xn1qOlcbTW4UUUUxBRRRQAUV02g/D/U/EXhPX/ENq9qthoojNys0wWQ7zgbF7/p7ZrmabTTsxLXVBRRRSGFFFFABRVvUNJvtIeFL6zuLJ5olniW4iaMvG33XXI5U9iODVSgAooq2NJvm0s6kLO4OnLN9nN55TeSJCNwTfjG7HOM5xQBUooooAKKK3fBvhy28Va0NOuNZs9DaRD5Nxf7hC0nG1GYA7M8/MeBimk5OyE2krswqK1PE/hnUvB+u3ej6tbNa39q+ySMnI6ZBBHBBBBBHUGsukMKKKKACiiigAooooAKKKKACiiigAr2DwbY+EvF/w38WhvCMNnrOh6Qtymqpf3DNLLvVCxjL7BnJOMYrx+vZ/A/jD4YeFfDeuWE0vi2W41zTlsrtktLUpEdysxjJlBIyMDI6VpHWMk+z++zt+JnLeLXdfddX/AAML4K+GdA8Qf8JhceIrKW+tdL0Sa/jSGZonDo6cgg4zgkfMCOc4NWvFGh+FvEnwpPi7w/ocnhq7sdUTTrm0F49zFMjxl1kBfkMCMY6VU8O+M/C/g258a2+ljV7nTdY0STTrN7yGJZllcoSZAr4C5VuQSenFZdj41sbX4Q6r4VeK4OoXWrQ3ySKq+UI0jZSCd2d2T6Y96cmuWy7L7+bX8PwCKfNfz/Dl/wAz1/wreeBNF+But3Gn6r4vsbKTV7aO6uLaGCO6MnlMQi4lAMfU8nOccVwPgvw74b8XeK/FmtXsur6x4e0XTn1Lyr6QR3d4V2KqSOpbaNzHkEnAFc9Y+NbG1+EOq+FXiuDqF1q0N8kiqvlCNI2Ugndndk+mPej4W+OrLwZqGrQatZTX2iaxYSadex2rhJlRiCHjJ43AqODwapyUpt+Wnryq34kqLjBLz19Ob/I3/E2h+F/FHwvn8XeH9Ek8M3Wn6lHYXNiLx7mGVJELK6s/zBgRgjOK8rr0nxV448MWvgE+EfB9rqps7m+W/vL7WfLErsqFUjVIyQFGSc5zmvNqylbmdttPyV/xuaxvyq/9au34G94QTwxJezDxTNq0Nn5f7o6PFFJIXyPvCRlGMZ6c9K1PFUXw/TS8+GrrxLNqW8fLqttbxw7Oc8xyMc9O1ZfhDxxrPgS9mu9FuIbeeaPynaa1huAVyDjEiMByByBmtTxV8XfFPjXS/wCztXvba4tN4k2RadbQHcM4O6ONW79M021y2W4lfmv0ONr0H4OeFNH8Qahr2o6/BNeaToWlzalLZQymJrllKqse8cqCW5I54rz6u4+EfjD/AIRXX723m0ibXtP1iyl0280+2YrNJE+CTGQD8wKg9Ox+tOG79Hb1tp+Ip7fd919fwOl8QaT4P1z4Nah4q0Xw6+halFrMNkYjey3CIhiZjsLHoePvAkEHBwcD0DR/gNZ2On+GrZvh3qXiuLUrO3ub7XotSaD7O0oBKxRg7TsBH3gc1z3jK303Sv2er2207QtT0Czl8RQmFdabNzdEQOWc4VRtHAwBjjrk1z91488A+MrfRL7xbpuvHWdMsobGSHTJIhbXqRDCFmYh4yRwdufbFa+5GUk11j93Lr+NttTL3mlbz+++n4d9CTwnY6L8NfjfP4d1LQ4/Eb2+tQ2lneTXUsDW5WbAk2xkBicqcNx8vvUPx48S+HL3xh4q0+z8Hwadq8erTiTV11CeRpSsrbj5TNsG488DjtXn9p4gh0zxjb63YWCWlvbXy3cFiJGdY1WQMse5sk4AAyea6r4pa54G8V3mo65of/CQQa5qN411NbahHB9mTeSzhXVtx+Y8ZHSsbt04rtf/ANtt+Tv+Jtb35Pvb9TzuvSvgt4Z0DxD/AMJhP4hspb210vRJr+NYZmicOjpgqQcZwSPmBHOcGmxfBG6ljR/+Ex8EruAO1vEMAIz2Iz1rp/g3pdv4V1L4l2WoyWus2tv4am89tLu1kjlQtEWEcoyM4PXnBHtVxi4t37S/JkSkmlbuvzRi+JtF8LeJ/hTL4s8P6FJ4avNN1KOwurUXklzFOkiFlkBflWBXGBxW5rVj8O/Alh4GOp+EZtXm1nRre8vZRqU0KxFmYNIgBOXODwSFG0YHJNcx4q8ceFrX4djwl4QtdW8i6vl1C+vNYMYkZlQqkaLGSNoyTk85rJ+JHjSx8YWnhGKziuIm0jRINNn89VAaRGckphjlfmHJwfahyUbtLqv/AEnX8QUW0k+z/PT8Dt/BHwj0LxJ8UPFljprT+K9C0W2kvLO3spwj3/KiOLzO3L4Zh/dOKn+K3wki0f4djxMfB914Fvre/S0k0+W9a6iuI3UkSKzEsrAjBGcc1wPwx8cWXg6+1aDVrOa+0XWLF9PvY7VwkyoxDB4yeNylQcHg0ni++8Cpo0Nl4V03VpbwzebNqmsyKsgTGBEkUbFMZ5LHJ4qZcvs0l2X33/y87fMcb87b/pW/z/qx6RHo/gv4f694F0O58P3Goa1fw2OoT62L50aCSZgyqkIGxlXjOeSM8jrXK/EXVtK0X46eM7jWNBi8RWn9oXKizmuZbcBjJw26MhuMHjpzWr/wtDwPrk3hXW9e0zXD4k0OC2tWisni+yXKwEbHYsd4OOqjg4xkda5rV/EHg/xl8SvEuta62uWmk39zLc2q6fBC84LPkBw7hQMZ6E81pUac1y23l9ztb8CIXUfe7R+/W/4kvx48N6P4Y8aWsGhaeNLsbjTLS8+yrNJKEeSMM3zOSx5PrXS6vpfw/wDhr/wjeja74auddutQ0+3v7/VhqEkLW4mGcQxqNp2Dn5s5qj8XvGXw+8eAajpj+JotYt7G3sreK7trdbdhEoXLlZCwJUE8DripJviJ4B8XR+H9R8WaVrj63pNnDZPBpzwm0vkh4TeX+ZMjhsA8dKXupytb4v8AyXX/AIHmP3mo37fjp/wfIz/hnqXhbQPipDapo48UWU2q28emX1zcTW0kC+b8shRCAzcqSGGMr71Z+PHiXw5e+MPFWn2fg+DTtXj1acSauuoTyNKVlbcfKZtg3Hngcdq4U+Kki8dJ4itNOt7GOK/W9h0+D5YowrhljHHQAAZrpPilrvgbxVeajrmh/wDCQQa5qN411NbX8cH2ZN5LOFdW3Hk8ZHSs2704rtf16W/J3/E0tacn3t+pueDbHwl4v+G/i0N4Rhs9Z0PSFuU1VL+4ZpZd6oWMZfYM5JxjFc/8IPCekeILrxBqWvRTXelaDpkmoyWVvJ5bXLBlVY9/VQS3JHPFdP4H8YfDDwr4b1ywml8Wy3GuactldslpalIjuVmMZMoJGRgZHSsHwn448MeCfFGuW9rbarqfg/WNPbTrhbkRw3qqwUl12lk3Ky8DOCOtaStz30+F+nN71v0M1flt5r7tL/qW/E2h+F/FHwvn8XeH9Ek8M3Wn6lHYXNiLx7mGVJELK6s/zBgRgjOK6vVdD+HPhbX/AAZo154Rn1CTXNLsJrm6XU5ovIeYYLxrk5bOWIJ29AAOTXE+KvHHhi18Anwj4PtdVNnc3y395faz5YldlQqkapGSAoyTnOc1H4w+Ium+IPF/g7VbeC6S30bT9PtLhZUUOzwH5ygDEEHtkj3xVRcObXbmj93K7/iKSlbzs/vvp+Bd8M+Dbbw/+0hp3hqRvtVpZ+IEtw0gGXRZfl3fUAZrkPiPqE+qfEDxJdXMjSzSajcFmY5/5aMAPoBgfhWt4g+IiTfGK68a6VFIsf8Aav8AaNvFcgK+A4YK2CQM4wcE1e+Lmi6JfXsvjDw5rFrd6VrFy0jaaz7byymfLukkf90Hdhxwf58+vsoN9L3+fLb8mbf8vJedrfK/+Zz2jxabqej6ijaaqXVrZtKLkTPlmBAztzjvVXw7a2ctnqtzd2/2kWsSSIm8pyXA6j61c0XU9B02zuUdtSaW6tvIl2xx7VJwSV+b1HeqUepafY2+rW9r9peK6hSOJplUMGDBjuwenHavJ99ucYqWrXfa6v8AqfQr2SVKc3G6Ur7dny3VtfmautaPpcdjq/2W1eCaz8iVZDKWyJMfLj0GevXinaJ4fiurK0YeH7u9WUDzbp5THjJ6oAeQB3PWqF94itrqHWUVJQbyO3SPcBwY9u7PPtxUtxr2k6g1ndXUN59rt40j8mNl8ltvQ5PIHsP/AK9Y8tdU+XX73/KvNPe/Wx0uphHWc1y7PSyS+OXeLV+W3S7Qlp4dtIPEeq29zvns9OjkmKqdrSBcYXPbqKbc2+mX3hm71C2sTZzx3Ece3zmcAEE8Z9ff0pY/Ekb+Kb+7jtZLm1vg8T2/R2RhzjGeeKuahHb23gy7SCzuLOJruPb9rOXkO0k9hwPanJ1Yyhz3u+Xrp53V/wBBRjQlGqqSVl7Tpd7e7Z20+9fkWbPwikVnp/8AxJJ9TFxCkst0s5TZu5woHoPWuT13TRo+sXdmGLrDIVVj1I7Z/CtRtX0jUoLJtShvBc2sSwYtyuyVV6ZzyDjjis6109davLgwSWunxA7ljubgIACeAC3WtqHtKcpSrN2/Df1f4JHLivYVqcKeHir6Wta+2t/dXXu2+2hm12+rXGmRSaFHfWLXjSWEClhMU2LyMgDqevX2rnr7w69javOb/T5guPkguldzzjgDrWpLrmiXzaY93Be+ZZ20cR8rZiQr2OTwM9+vPSnXaquMoXaV9vQnCxlh1OFS0W7W5rNb/NCWnh+0XxNqWiyjzHKyJaysxBWQDK5wcHI4qiNNgtfC0l3cRZu57jybfJI2Koy7YzzzxzUFxq9xf+IjqMS7bmS4EkaLzg5+UfyrU+IV8k2uG0hUJDagrtXpvY7nP5nH4Ul7X2kISe6Tfy3+92/EuTwzpVasIr3W1HTdS2/8BSbXy7F+21TTP+EOuJP7GjMK3aK0P2iTDNsPzZzkfTpWV4d0q38Ra1dFLNlt4oWnWzhkJLYwAgY88k9ah0fVLFNJudN1FbgQySrMslrtLBgCMEMemDTNL1W00nUroLHNPp1xE1uwbCy7GxzxxkECp9lOCqqne721b0089/xK+sU6rw7quPKt1ZJ3u97K9tu68rmr4g8NC30N786XJo8sUqoYmlMiyKc8jPIIP86lstDtV0eyuIdGk1rzU3XEsU7BomycqFXuB6isHUptIW1EWnwXLyl9zXF0wBAx90Kpx+Jq1pt9okC200iaha3cQG82jqVkIPXJOVz7VLhV9ktXv5//ACV/x+RSqYf2792Pw+W99/g5b28vncl8OReEzrF4viOTWrbTgD5A02GKSYNu6OJGUYxnp3q94qi+H6aXnw1deJZtS3j5dVtreOHZznmORjnp2qDSviVrPhvxFqGsaLJDZT3gKuJbWG4G3IOMSIwzwOQM1P4q+Lvinxrpf9nave21xabxJsi062gO4Zwd0cat36Zr2Iu9ON1r/XU+fqpKtLld43dvT06HXeDbHwl4v+G/i0N4Rhs9Z0PSFuU1VL+4ZpZd6oWMZfYM5JxjFZHwt0Xw/ceE/G2t69o51n+xobOWC3F1JBkvOEYFkPQg+h9sHmt7wP4w+GHhXw3rlhNL4tluNc05bK7ZLS1KRHcrMYyZQSMjAyOlc5b+LvDPh/w/470XRxq1xaa1BZx2Ut9FEsitHKsknmhXIA4IG3PbOK3dlNPTb8by/wCAc0btW8193u/8E7T4lfD/AMH2Hh3xyujaPPp994durGSO7kvHl86O6GfKKHgBMgA9Tjk1HN4Z8B+E7zwV4Z1Tw5c6rqWtWtnd3mri/kiMJuGGESIfKVUYznk9iDzWL4s+LWka9Y/EGG3tr5G8QtphtTJGgCfZwBJ5mHOM9sZ98V0/g/xBY+P7vwRd33gjW9R8QaYbXToL+zc/YZkjkASSUbCcoOoDAHbycdNoKDnZd4/dbX8bGc3JRu+z+/T/AIJ5R8VNFsvDfxI8S6Vp0P2ews7+aCCHczbEViAMsSTx6muVr1bxx4R/4Tz4weOmtdb0PTI4dTmPmatqMdqsmZGHyFvvYxzj1Fc/4l+Fk/hnR5tQfxL4X1FYio+z6brMVxO2SB8qKcnGcn0Ga4IJ8ik+x1ya52keueOL/wAGx+JPAWneIvDU+uTX+gaZC90t+9v9lRl2gxon3mBJY7jg8DA61yHh34Y6LJ8TPG3gG6jN1qCRXUWiXjyMjLcRZdAQpCneoIOQeRxirt78TPhx4g1Twvqesab4i+2aFp1nahLTyBFdPCM4cM2VXd/EDkg9ARk8JH421fX/AIvReJ7CHZrF3qy3VvbxkkeY0gKx57jovvXZK061v5nL7m9H67s5Y80ad+yj96Wvy2L0vhXS9C+Cqa3qNn5mvaxqbW+nM0jr5NvCP3z7QQDlyE+YHHbFek2vjLweP2f7i7Pw9tjpy+Io4W07+1rra0v2Zj52/duBxkbc45zXJftQ+JLbVPiXPpGnRpBpmhqbSOGM/IJWYyTEe/mOR/wGsjwT408ML4A1Dwj4rh1ZLKXUY9TgutHETyLIIzGVZZCBtwex61lGfMpWtra3ya/NK/r5mrjZxb8/xT/K6Ro/CXwLpfxS8aeILmLQZjpun2Ul/B4fsbpt0zBlVIRM+WAJbJbrxWz8VvhJFo/w7HiY+D7rwLfW9+lpJp8t611FcRupIkVmJZWBGCM45rjfBPjbQ/BviLxBbm1v9R8J6xay6dKrFI7wQswKuMZXeCoOOlUvF994FTRobLwrpurS3hm82bVNZkVZAmMCJIo2KYzyWOTxRLl9mkuy++/+VutvmEb87b/pW/z/AKseo6P8N9Dt/BPhzUbD4e3nxAt7yzWfUtTsdSlE1tMWIeFYYzwUAH3gc5rwjWo7WLV71LFLiKzWZxDHeACZUycB8cbgOuO9ekeD/FXw60dtG1SW38U6Nrlisfnpo08bQXToc797sHTd3UAgdqxZlHxj+JmsahLead4Zt76aW+lmv5gkUEe4ZGcfO3I4Ayxp1EpTXL5/1/w+q6ih7sXzeX9f18ja+NzG90D4bajMd95ceHY45ZT1fy5HVST3OOPwryqu9+MHi/TfE2t6bY6EZH0HQ7CPTLKaVdrzqmS0pHYsxJx6Yrgqzk+acpLq2/vZcU1GKfRL8goooqSgooooAKKnvLOawuHguI2ilU4KtUFABRRRQAUUUUAFFFFABRRRQAUUUUAFFFFABRRRQAVa0vVb3RL6G+068uLC9hOY7i1laORDjGVZSCOCenrVWintqgNXXfFWt+KJI5NZ1i/1eSMEI19dPOVB64LE4rKra1PwbrWj+H9M1y90+W30rUy4tLpsbZdpw2Ocj8cZ7Vi0PRtPcOl0FFFFIAq3Y6tfaWlylneXFol1EYJ1glZBLGcZR8H5lOBweOKqU+GJ55UijUvI7BVVRkkngCmrvRC9RlFa/irwlq/gnWJNK1yxk07UI1V2gkIJCsMg5BIPFZFIYUUUUAFFbvg/wTrHjzVDYaNafaZUQyyyMwSKGMdXkdiAqj1JrMutPkt9UmsEeO6ljmMAa2bekjBtuUI+8Ceh75p2enmK618irRWv4q8Jav4J1iTStcsZNO1CNVdoJCCQrDIOQSDxWRSGFFFFABRRW54P8H3/AI41j+y9Ma2+3NGzxRXM6w+cRj5ELEAuc8DPODTSb0Qm0tWYdFWdS0270fULixvreS0vLdzHLBMpV0YdQQarUhhRRRQAUUUUAFFFFAEkFxLazLLDI8UqnKvGxVh9CKlvNSu9QKm6uprkr086Qvj8zVaip5VfmtqWpyUXFPQKKKKogKKKKAHxyvDIskbtHIp3KynBBHQg0kkjzSNJIzO7HczMckk9STTaKVtbju7WCiiimIKKKKACiiigAooooAK3tN8feJ9H0sabYeI9WsdO+b/Q7a+ljh5OT8gYDknnisGindiFJLEk8mkoopDCp7G+udLvIbuzuJbS7hcPFPA5R42HRlYcgj1FQUU9tUBJcXEt5cSzzyvPPKxeSWRizOxOSSTyST3qOiikAUUUUAFFFFABRRRQAUUUUAFFFFAHSfaJby1fT9WtZRcxwPLbzOpWQbVZsHPVflP+enN11K6DrUUs13qCSOkdtMDJJMrkAxuAOpPU/rXLUAFFFFABRRRQAV6LP4U8IaHp/h6fV7vVzJqtklwy2nl4hJYgsSw+70wo54PPSvOq6vxxrllrGn+F4rSbznstLS2nGxl2SBmJXkc8EcjiuDExqTnTjFtJt3t6f5ndhpQhGpKSTaWl+91+lzSsfhpHJ421nSJrySaw0qF7qWezj3ySxgKVCL03Hco9uaZ4n8EWFv4YbXNJj1W0iguFt57XWIlWT5gSroygAjjBGKqfDXxTB4Z1S/F1c3FjDf2clob21z5luxIKyAAgnBXsc1a8Ya1by6ItovjHWPE9y8wYiZpUtUQDusmSz57jAFcL+tRxMYuTaXL0dn/NsrL5vTSx3x+qyoTnypN82l1dfy2u7u3knfqdNZyeDf8AhVN2TBrv9n/2rF5i+dD5vneUcEHZjbjPUZrjtC8O6R4iufE0ls17FZafp0t7arK6GQspUAOQuCOT0x2q14W1LRr7wTqHh7VdUOjO99HexXLW7zI2EKlSE5B5zUXg/V9J8N69rFlc3j3OkahZy6edQghYFVbGJAjYOMjp1qI050VWUObmvdb6rTbo3+JbqU6yw/Py8uz2utZbre3XsULHw3bXPgHU9bZ5hd2t5DbogI8sqykkkYznj1roZ/CnhDQ9P8PT6vd6uZNVskuGW08vEJLEFiWH3emFHPB56VT1rU9E0PwTL4f0nU31qe8vFup7oW7QxxqikKgDck5Oc9Ko+ONcstY0/wALxWk3nPZaWltONjLskDMSvI54I5HFa/vq01rJRcn0s7cum6017mNqNGDuouSj3uubn8nZ+72NfTfhzp48V+J9K1DUJDa6TZSXaXVrtO4LsIJBzn5W6AjnvVDW/DOh3HhE6/4fnv8Ay7e6W1ubfUQhYFlJV1KcY4xiq/gPXLLRYfEovJvJN5pE9rB8jNvkYrtXgHHQ8nijT9csoPhrq+lPNtv57+CaOHY3zIqsCc4wOo6mhxxMal+ZuzgttHf4nb8fIcZYacPhSvzvfVWV4q/rp5nKVu+EX8MpfSnxTDq01l5f7tdIlijk8zI6mRWG3GegznFYVFe4nZ3PDauepfFrRtK0/wAFeBr7QdQ16bR9Sju5IrHWrtJhbFJQh8tUVVXcck468Vq/8Kx8G+GfC3hvUPEn/CU3TaxZJetqGjxRGytFYkbGLKSzLjLAEVm/FCNrf4R/CeCVTHN9jvpfLbg7HuMq2PQjkVvfDfxVoXhe00a60/4pax4ZjjCPqGhXFnNcxySA5k8sIPLKt23DIzyTXQlHnkn3/wA/67mLb5U12/r+tjjPAXw+0jxT4i8QG51eYeGNDtZr+e9toMTzwowVQiN91m3DrwKs+KvA/hi68Anxd4PutVFnbXy2F5Y6yIzKjMhZJFeMAFTgjGM5rW8P/Ebww3xA8dm5hm0bwz4ot7i0SW3hDtZh3Do5jB5GV5UevFU/E+ueF/C/wvm8I+H9bk8TXWoakl/dXws5LaGJI0KrGqyfMWJOScYrHT2afWy9b82v/kvy+Zprzteb+62n4m9efDD4c6Fq3hbStW1LxEL7XtOs7lXtRA0VrJMMZfKgsu7+EDIA6nPHAP4f0TwT8QNX0bxX/aV1aadNLbeZo0kcUrSI+FbMisApAJx15FdD468a6NrPjjwJqFneedZ6Zpmm293J5Tr5ckR/eDBUE49QCD2zVbxQ3hn4hfFjxXqFx4ph0PSLm6luLW9msZ5hMC/A2Iu5eDn5gOlaStz+5beX3Jq3627kRvy+92j9/UZ8etBg0Dx1ElvqOqapHdafa3guNZuBPc/vIwwVnAGcDAHHavVfh3p+g+BvhPrWraF8RrTT7ybUbeCXXI9IuC8A8tm+z7TGW5PO5RjjrXF/HCbwX4smj1nR/G9vfXdpp1rZJp39m3UbTNGqoxDugUDGTz6Vy+m+KNMt/gfrPh+S526vca1BdxW/lsd0SxMrNuxtGCRwTmjmUHU5e+npzf5BZyUL/P15f8zZ03wzZfFbxp4wgufEdz4h137A95pmpRR+Ql9LEilkaN03cqCB937mea56PwTYWvwhm8V6hLcpqF1qQsNMt42URuqrumkcFSSBkKMEc+tZHw/8RXnhPxvomr2KNLdWt3G6xJ1kGcFP+BAlfxr0T9p7UrC18Z23hPRk8jSNAjdFhGMCeZzLL09Nyr/wGokkqaa3en3O9/u0LTbm0/X9Lffr95RWV9B/Zr32beTLrniBoLyReGkhhhDJGT/d3MWx61wfhGTw/Dq27xJHqkmniM7RpEsccwkyNpy6sMde2eleheBbeP4lfCu68DW1xDB4kstS/tTTILiQRi9Vo9kkKseN4wGAJ5/OuH8PeF9NutavtO8Sa9H4Ua03Iz3FpLcZlVtpj2xAkEc8njiqlf2l11St8opP8bkxtyWfd/i3b8Dovj1oMGgeOokt9R1TVI7rT7W8FxrNwJ7n95GGCs4AzgYA47V1V58MPhzoWreFtK1bUvEQvte06zuVe1EDRWskwxl8qCy7v4QMgDqc8VvjhN4L8WTR6zo/je3vru0061sk07+zbqNpmjVUYh3QKBjJ59KyvHXjXRtZ8ceBNQs7zzrPTNM023u5PKdfLkiP7wYKgnHqAQe2auKhztPbn/8AJfe/4BDcuVNb8v4+7/wSv4e+G+j2fxOvvDviPxHb6Y2m6ktqiyWc0wvsS7So2A7MgD73972rv/2jPEr+d4k0SL4iR3VpDeCJPCcOmSxLCquMIJNgT5MZ4POK818YeKNM1T44X3iC1ufN0iTWhdpceWwzF5obdtI3dO2M1l/FjXLLxN8SvEuq6bP9psLy+lmgm2Mm9C2QcMAR+IrDmbpQXrf8P6/I25f3kn6W/E7qP4Z+BPDsnhvR/E+p67/wkGt2sF15umpD9lsxP/qw4cbnI4LYI9q8z8YeG7jwT4s1XRJ5RJcaddPAZo+A21sBh6Z4Nes3HiDwF44vvCfiTWPE1xoV/pFla2t5pP8AZ0k7XBt+hikX5QHAH3sYrib+z1T45fFLWbnRLICbUbmW88uaRUWCHd952JwAoIyfyrWorztDvLbtpy/hf9SIP3by7L79b/19xs/HZzq1p4D8QT/NqOq6DE15N3mkjZo/Mb1YqoyfavKa9H+NmvabeapoehaPdpqGn+HdMj00Xsf3LiUEtK6f7JZiB9M15xWUmnOTW13+bLjdRin2X5BRRRUlBRRRQAUUUUAFFFFABRRRQAUUUUAFFFFABRRRQAUUUUAFFFFABRRRQAUUUUAFFFFABRRRQAUUUUAFFFFABRRRQAUUUUAFFFFABRRRQAUUUUAFFFFABRRRQAUUUUAFFFFABRRRQAUUUUAFFFFABXQ+D/H2t+Ari5n0S5htpbhQkhmtIbjIByMCRGx+GK56imm4u6E0nozY8VeLtZ8bas2p65qEuo3rKE8yTACqOiqoACgegAHNY9FFIYUUUUAFFFFABRRRQBc0fVrrQdWs9SsZFivLSVZ4ZGjVwrqcqdrAg4I7ik1XVLrXNUu9RvpmuL26laeaZgAXdiSx446ntVSigBc45HBpWdpGZmJZmOSxOST602igAooooAKKKKACnLIybgrFdwwcHqPSm0UAFFFFABRRRQAUUUUAFFFFABRRRQAUUUUAFFFFABRRRQAUUUUAFFFFABRRRQAUUUUAFFFFABRRRQAUUUUAFFFFABRRRQAUUUUAFFFFABRRRQAUUUUAf//Z;" vertex="1" parent="1">
          <mxGeometry x="286.5" y="420" width="520" height="198" as="geometry" />
        </mxCell>
        <mxCell id="psAbm342U6_RFJnEFFYR-11" value="" style="edgeStyle=orthogonalEdgeStyle;rounded=0;orthogonalLoop=1;jettySize=auto;html=1;fontSize=17;" edge="1" parent="1" source="psAbm342U6_RFJnEFFYR-8" target="psAbm342U6_RFJnEFFYR-7">
          <mxGeometry relative="1" as="geometry" />
        </mxCell>
        <mxCell id="psAbm342U6_RFJnEFFYR-8" value="&lt;b&gt;用户上传预测图片&lt;/b&gt;" style="rounded=0;whiteSpace=wrap;html=1;fontSize=17;" vertex="1" parent="1">
          <mxGeometry x="40" y="459" width="210" height="120" as="geometry" />
        </mxCell>
      </root>
    </mxGraphModel>
  </diagram>
</mxfile>
